<svg width="16.666504" height="16.666656" viewBox="0 0 16.6665 16.6667" fill="none" xmlns="http://www.w3.org/2000/svg" xmlns:xlink="http://www.w3.org/1999/xlink">
	<desc>
			Created with Pixso.
	</desc>
	<defs/>
	<path id="Vector" d="M1.66 11.66L1.66 13.33C1.66 15.17 3.15 16.66 5 16.66L13.33 16.66C15.17 16.66 16.66 15.17 16.66 13.33C16.66 10.55 16.66 6.1 16.66 3.33C16.66 1.49 15.17 0 13.33 0C10.95 0 7.38 0 5 0C3.15 0 1.66 1.49 1.66 3.33L1.66 5C1.66 5.45 2.04 5.83 2.5 5.83C2.95 5.83 3.33 5.45 3.33 5C3.33 5 3.33 4.21 3.33 3.33C3.33 2.41 4.08 1.66 5 1.66L13.33 1.66C14.25 1.66 15 2.41 15 3.33L15 13.33C15 14.25 14.25 15 13.33 15C10.95 15 7.38 15 5 15C4.08 15 3.33 14.25 3.33 13.33C3.33 12.44 3.33 11.66 3.33 11.66C3.33 11.2 2.95 10.83 2.5 10.83C2.04 10.83 1.66 11.2 1.66 11.66ZM7.98 7.5L6.91 6.42C6.58 6.09 6.58 5.57 6.91 5.24C7.23 4.91 7.76 4.91 8.08 5.24L10.58 7.74C10.91 8.07 10.91 8.59 10.58 8.92L8.08 11.42C7.76 11.74 7.23 11.74 6.91 11.42C6.58 11.09 6.58 10.57 6.91 10.24L7.98 9.16L0.83 9.16C0.37 9.16 0 8.79 0 8.33C0 7.87 0.37 7.5 0.83 7.5L7.98 7.5Z" fill="#84BE51" fill-opacity="1.000000" fill-rule="evenodd"/>
</svg>
