<svg width="70" height="70" viewBox="0 0 70 70" fill="none" xmlns="http://www.w3.org/2000/svg">
<circle cx="35" cy="35" r="34.5" fill="#84C551" stroke="#84C551"/>
<path d="M43.7979 33.1723C43.716 33.159 43.6332 33.1529 43.5504 33.1539H29.4408L29.7484 33.0108C30.0492 32.8685 30.3228 32.6748 30.5569 32.4384L34.5136 28.4818C35.0347 27.9843 35.1223 27.1841 34.7211 26.5857C34.2542 25.9481 33.3588 25.8096 32.7211 26.2765C32.6696 26.3143 32.6207 26.3554 32.5746 26.3997L25.4197 33.5546C24.8605 34.1131 24.86 35.0192 25.4186 35.5783C25.4189 35.5787 25.4193 35.5791 25.4197 35.5795L32.5746 42.7344C33.1342 43.2925 34.0403 43.2912 34.5984 42.7316C34.6423 42.6876 34.6833 42.6407 34.7211 42.5913C35.1223 41.9929 35.0347 41.1927 34.5136 40.6953L30.5641 36.7314C30.3541 36.5212 30.1128 36.345 29.8486 36.2091L29.4193 36.0159H43.4716C44.2026 36.0431 44.844 35.5324 44.9813 34.8139C45.1078 34.0338 44.578 33.2988 43.7979 33.1723Z" fill="white"/>
</svg>
