<svg width="70" height="70" viewBox="0 0 70 70" fill="none" xmlns="http://www.w3.org/2000/svg">
<circle cx="35" cy="35" r="34.5" stroke="#84C551"/>
<g clip-path="url(#clip0_25_424)">
<path d="M43.7979 33.5961C43.716 33.5828 43.6332 33.5767 43.5504 33.5778H29.4408L29.7484 33.4347C30.0492 33.2923 30.3228 33.0986 30.5569 32.8623L34.5136 28.9056C35.0347 28.4081 35.1223 27.6079 34.7211 27.0095C34.2542 26.3719 33.3588 26.2334 32.7211 26.7003C32.6696 26.7381 32.6207 26.7792 32.5746 26.8235L25.4197 33.9784C24.8605 34.537 24.86 35.443 25.4186 36.0022C25.4189 36.0025 25.4193 36.0029 25.4197 36.0033L32.5746 43.1582C33.1342 43.7163 34.0403 43.715 34.5984 43.1554C34.6423 43.1114 34.6833 43.0645 34.7211 43.0151C35.1223 42.4168 35.0347 41.6165 34.5136 41.1191L30.5641 37.1552C30.3541 36.9451 30.1128 36.7688 29.8486 36.6329L29.4193 36.4397H43.4716C44.2026 36.4669 44.844 35.9563 44.9813 35.2377C45.1078 34.4576 44.578 33.7227 43.7979 33.5961Z" fill="#84BE51"/>
</g>
<defs>
<clipPath id="clip0_25_424">
<rect width="20" height="20" fill="white" transform="translate(25 25)"/>
</clipPath>
</defs>
</svg>
