<svg width="70" height="70" viewBox="0 0 70 70" fill="none" xmlns="http://www.w3.org/2000/svg">
<circle cx="35" cy="35" r="34.5" transform="matrix(-1 0 0 1 70 0)" fill="#84C551"/>
<g clip-path="url(#clip0_25_430)">
<path d="M26.2021 33.5961C26.284 33.5828 26.3668 33.5767 26.4496 33.5778H40.5592L40.2516 33.4347C39.9508 33.2923 39.6772 33.0986 39.4431 32.8623L35.4864 28.9056C34.9653 28.4081 34.8777 27.6079 35.2789 27.0095C35.7458 26.3719 36.6412 26.2334 37.2789 26.7003C37.3304 26.7381 37.3793 26.7792 37.4254 26.8235L44.5803 33.9784C45.1395 34.537 45.14 35.443 44.5814 36.0022C44.5811 36.0025 44.5807 36.0029 44.5803 36.0033L37.4254 43.1582C36.8658 43.7163 35.9597 43.715 35.4016 43.1554C35.3577 43.1114 35.3167 43.0645 35.2789 43.0151C34.8777 42.4168 34.9653 41.6165 35.4864 41.1191L39.4359 37.1552C39.6459 36.9451 39.8872 36.7688 40.1514 36.6329L40.5807 36.4397H26.5284C25.7974 36.4669 25.156 35.9563 25.0187 35.2377C24.8922 34.4576 25.422 33.7227 26.2021 33.5961Z" fill="white"/>
</g>
<defs>
<clipPath id="clip0_25_430">
<rect width="20" height="20" fill="white" transform="matrix(-1 0 0 1 45 25)"/>
</clipPath>
</defs>
</svg>
