<svg width="220" height="47" viewBox="0 0 220 47" fill="none" xmlns="http://www.w3.org/2000/svg">
<rect y="0.000732422" width="220" height="47" rx="23.5" fill="#E74E13"/>
<path d="M59.0156 26.9851H59.8984C60.6536 25.4747 61.25 23.9669 61.6875 22.4617C62.125 20.9513 62.4505 19.3236 62.664 17.5789H69.3203V26.9851H70.8437V32.3289H68.5078V29.0007H61.3515V32.3289H59.0156V26.9851ZM64.5859 19.5945C64.4193 20.7872 64.1406 22.0502 63.75 23.3835C63.3646 24.7169 62.9297 25.9174 62.4453 26.9851H66.9062V19.5945H64.5859ZM74.3203 24.6179C74.3203 25.4825 74.4609 26.1361 74.7422 26.5789C75.0286 27.0216 75.4922 27.2429 76.1328 27.2429C76.7682 27.2429 77.2239 27.0242 77.5 26.5867C77.7812 26.144 77.9219 25.4877 77.9219 24.6179C77.9219 23.7533 77.7812 23.1049 77.5 22.6726C77.2187 22.2403 76.7578 22.0242 76.1172 22.0242C75.4818 22.0242 75.0234 22.2403 74.7422 22.6726C74.4609 23.0997 74.3203 23.7481 74.3203 24.6179ZM80.3594 24.6179C80.3594 26.0398 79.9844 27.1518 79.2344 27.9539C78.4844 28.7559 77.4401 29.157 76.1015 29.157C75.263 29.157 74.5234 28.9747 73.8828 28.6101C73.2422 28.2403 72.75 27.7117 72.4062 27.0242C72.0625 26.3367 71.8906 25.5346 71.8906 24.6179C71.8906 23.1908 72.263 22.0815 73.0078 21.2898C73.7526 20.4981 74.7995 20.1023 76.1484 20.1023C76.987 20.1023 77.7265 20.2846 78.3672 20.6492C79.0078 21.0138 79.5 21.5372 79.8437 22.2195C80.1875 22.9018 80.3594 23.7013 80.3594 24.6179ZM88.0547 20.2664H90.6797L87.2187 24.4539L90.9844 29.0007H88.2812L84.7109 24.571V29.0007H82.3281V20.2664H84.7109V24.5085L88.0547 20.2664ZM100.055 29.0007H97.6719V22.0554H95.4765C95.3099 24.0085 95.1068 25.4669 94.8672 26.4304C94.6276 27.3888 94.3073 28.0841 93.9062 28.5164C93.5104 28.9434 92.9896 29.157 92.3437 29.157C91.7917 29.157 91.3385 29.0736 90.9844 28.907V27.0007C91.2396 27.1049 91.4948 27.157 91.75 27.157C92.0469 27.157 92.2943 26.9434 92.4922 26.5164C92.6953 26.0893 92.875 25.3783 93.0312 24.3835C93.1927 23.3835 93.3307 22.0111 93.4453 20.2664H100.055V29.0007ZM108.109 29.0007L107.648 27.8132H107.586C107.185 28.3184 106.771 28.67 106.344 28.8679C105.922 29.0606 105.37 29.157 104.687 29.157C103.849 29.157 103.187 28.9174 102.703 28.4382C102.224 27.9591 101.984 27.2768 101.984 26.3914C101.984 25.4643 102.307 24.782 102.953 24.3445C103.604 23.9018 104.583 23.657 105.891 23.6101L107.406 23.5632V23.1804C107.406 22.295 106.953 21.8523 106.047 21.8523C105.349 21.8523 104.529 22.0632 103.586 22.4851L102.797 20.8757C103.802 20.3497 104.917 20.0867 106.141 20.0867C107.312 20.0867 108.211 20.3419 108.836 20.8523C109.461 21.3627 109.773 22.1388 109.773 23.1804V29.0007H108.109ZM107.406 24.9539L106.484 24.9851C105.792 25.0059 105.276 25.1309 104.937 25.3601C104.599 25.5893 104.43 25.9382 104.43 26.407C104.43 27.0789 104.815 27.4148 105.586 27.4148C106.138 27.4148 106.578 27.2559 106.906 26.9382C107.24 26.6205 107.406 26.1986 107.406 25.6726V24.9539ZM117.703 27.2585V22.0554H115.914C115.784 23.0242 115.604 23.9434 115.375 24.8132C115.151 25.683 114.839 26.4981 114.437 27.2585H117.703ZM121.367 32.1335H119.227V29.0007H113.352V32.1335H111.211V27.2585H111.945C112.445 26.4825 112.865 25.5033 113.203 24.321C113.542 23.1388 113.779 21.7872 113.914 20.2664H120.086V27.2585H121.367V32.1335ZM125.242 20.2664V23.6257H128.57V20.2664H130.953V29.0007H128.57V25.3992H125.242V29.0007H122.859V20.2664H125.242ZM133.352 18.0085C133.352 17.2325 133.784 16.8445 134.648 16.8445C135.513 16.8445 135.945 17.2325 135.945 18.0085C135.945 18.3783 135.836 18.6674 135.617 18.8757C135.404 19.0789 135.081 19.1804 134.648 19.1804C133.784 19.1804 133.352 18.7898 133.352 18.0085ZM135.836 29.0007H133.453V20.2664H135.836V29.0007ZM151.352 29.0007H138.344V20.2664H140.727V27.2117H143.656V20.2664H146.039V27.2117H148.969V20.2664H151.352V29.0007ZM157.477 21.7976C156.971 21.7976 156.576 21.9591 156.289 22.282C156.003 22.5997 155.839 23.0528 155.797 23.6414H159.141C159.13 23.0528 158.977 22.5997 158.68 22.282C158.383 21.9591 157.982 21.7976 157.477 21.7976ZM157.812 29.157C156.406 29.157 155.307 28.769 154.516 27.9929C153.724 27.2169 153.328 26.1179 153.328 24.696C153.328 23.2325 153.693 22.1023 154.422 21.3054C155.156 20.5033 156.169 20.1023 157.461 20.1023C158.695 20.1023 159.656 20.4539 160.344 21.157C161.031 21.8601 161.375 22.8315 161.375 24.071V25.2273H155.742C155.768 25.9044 155.969 26.433 156.344 26.8132C156.719 27.1934 157.245 27.3835 157.922 27.3835C158.448 27.3835 158.945 27.3289 159.414 27.2195C159.883 27.1101 160.372 26.9356 160.883 26.696V28.5398C160.466 28.7481 160.021 28.9018 159.547 29.0007C159.073 29.1049 158.495 29.157 157.812 29.157Z" fill="white"/>
</svg>
