<svg width="220" height="47" viewBox="0 0 220 47" fill="none" xmlns="http://www.w3.org/2000/svg">
<rect width="220" height="47" rx="23.5" fill="#E74E13"/>
<path d="M50.0639 29V17.8H60.2719V29H57.6959V19.32L58.2879 19.912H52.0479L52.6399 19.32V29H50.0639ZM67.9282 29.128C67.2029 29.128 66.5682 28.968 66.0242 28.648C65.4802 28.328 65.0536 27.8427 64.7442 27.192C64.4456 26.5307 64.2962 25.6987 64.2962 24.696C64.2962 23.6827 64.4402 22.8507 64.7282 22.2C65.0162 21.5493 65.4322 21.064 65.9762 20.744C66.5202 20.424 67.1709 20.264 67.9282 20.264C68.7389 20.264 69.4642 20.4507 70.1042 20.824C70.7549 21.1867 71.2669 21.6987 71.6402 22.36C72.0242 23.0213 72.2162 23.8 72.2162 24.696C72.2162 25.6027 72.0242 26.3867 71.6402 27.048C71.2669 27.7093 70.7549 28.2213 70.1042 28.584C69.4642 28.9467 68.7389 29.128 67.9282 29.128ZM62.8402 32.104V20.392H65.2242V22.152L65.1762 24.712L65.3362 27.256V32.104H62.8402ZM67.4962 27.08C67.9122 27.08 68.2802 26.984 68.6002 26.792C68.9309 26.6 69.1922 26.328 69.3842 25.976C69.5869 25.6133 69.6882 25.1867 69.6882 24.696C69.6882 24.1947 69.5869 23.768 69.3842 23.416C69.1922 23.064 68.9309 22.792 68.6002 22.6C68.2802 22.408 67.9122 22.312 67.4962 22.312C67.0802 22.312 66.7069 22.408 66.3762 22.6C66.0456 22.792 65.7842 23.064 65.5922 23.416C65.4002 23.768 65.3042 24.1947 65.3042 24.696C65.3042 25.1867 65.4002 25.6133 65.5922 25.976C65.7842 26.328 66.0456 26.6 66.3762 26.792C66.7069 26.984 67.0802 27.08 67.4962 27.08ZM77.9976 29.128C77.0803 29.128 76.2643 28.936 75.5496 28.552C74.8456 28.168 74.2856 27.6453 73.8696 26.984C73.4643 26.312 73.2616 25.5493 73.2616 24.696C73.2616 23.832 73.4643 23.0693 73.8696 22.408C74.2856 21.736 74.8456 21.2133 75.5496 20.84C76.2643 20.456 77.0803 20.264 77.9976 20.264C78.9043 20.264 79.7149 20.456 80.4296 20.84C81.1443 21.2133 81.7043 21.7307 82.1096 22.392C82.5149 23.0533 82.7176 23.8213 82.7176 24.696C82.7176 25.5493 82.5149 26.312 82.1096 26.984C81.7043 27.6453 81.1443 28.168 80.4296 28.552C79.7149 28.936 78.9043 29.128 77.9976 29.128ZM77.9976 27.08C78.4136 27.08 78.7869 26.984 79.1176 26.792C79.4483 26.6 79.7096 26.328 79.9016 25.976C80.0936 25.6133 80.1896 25.1867 80.1896 24.696C80.1896 24.1947 80.0936 23.768 79.9016 23.416C79.7096 23.064 79.4483 22.792 79.1176 22.6C78.7869 22.408 78.4136 22.312 77.9976 22.312C77.5816 22.312 77.2083 22.408 76.8776 22.6C76.5469 22.792 76.2803 23.064 76.0776 23.416C75.8856 23.768 75.7896 24.1947 75.7896 24.696C75.7896 25.1867 75.8856 25.6133 76.0776 25.976C76.2803 26.328 76.5469 26.6 76.8776 26.792C77.2083 26.984 77.5816 27.08 77.9976 27.08ZM95.0616 29L92.1816 24.92L94.2136 23.72L98.0056 29H95.0616ZM88.9656 29V20.392H91.4616V29H88.9656ZM90.7256 25.736V23.736H93.7336V25.736H90.7256ZM94.4536 24.984L92.1176 24.728L95.1416 20.392H97.7976L94.4536 24.984ZM102.998 29.128C102.08 29.128 101.264 28.936 100.55 28.552C99.8456 28.168 99.2856 27.6453 98.8696 26.984C98.4643 26.312 98.2616 25.5493 98.2616 24.696C98.2616 23.832 98.4643 23.0693 98.8696 22.408C99.2856 21.736 99.8456 21.2133 100.55 20.84C101.264 20.456 102.08 20.264 102.998 20.264C103.904 20.264 104.715 20.456 105.43 20.84C106.144 21.2133 106.704 21.7307 107.11 22.392C107.515 23.0533 107.718 23.8213 107.718 24.696C107.718 25.5493 107.515 26.312 107.11 26.984C106.704 27.6453 106.144 28.168 105.43 28.552C104.715 28.936 103.904 29.128 102.998 29.128ZM102.998 27.08C103.414 27.08 103.787 26.984 104.118 26.792C104.448 26.6 104.71 26.328 104.902 25.976C105.094 25.6133 105.19 25.1867 105.19 24.696C105.19 24.1947 105.094 23.768 104.902 23.416C104.71 23.064 104.448 22.792 104.118 22.6C103.787 22.408 103.414 22.312 102.998 22.312C102.582 22.312 102.208 22.408 101.878 22.6C101.547 22.792 101.28 23.064 101.078 23.416C100.886 23.768 100.79 24.1947 100.79 24.696C100.79 25.1867 100.886 25.6133 101.078 25.976C101.28 26.328 101.547 26.6 101.878 26.792C102.208 26.984 102.582 27.08 102.998 27.08ZM109.434 29V20.392H112.042L115.29 26.28H114.25L117.722 20.392H120.058L120.09 29H117.834V22.952L118.218 23.208L115.258 28.168H114.202L111.226 23.032L111.69 22.92V29H109.434ZM122.481 29V20.392H131.041V29H128.545V21.88L129.105 22.44H124.401L124.961 21.88V29H122.481ZM138.586 29V27.32L138.426 26.952V23.944C138.426 23.4107 138.261 22.9947 137.93 22.696C137.61 22.3973 137.114 22.248 136.442 22.248C135.984 22.248 135.53 22.3227 135.082 22.472C134.645 22.6107 134.272 22.8027 133.962 23.048L133.066 21.304C133.536 20.9733 134.101 20.7173 134.762 20.536C135.424 20.3547 136.096 20.264 136.778 20.264C138.09 20.264 139.109 20.5733 139.834 21.192C140.56 21.8107 140.922 22.776 140.922 24.088V29H138.586ZM135.962 29.128C135.29 29.128 134.714 29.016 134.234 28.792C133.754 28.5573 133.386 28.2427 133.13 27.848C132.874 27.4533 132.746 27.0107 132.746 26.52C132.746 26.008 132.869 25.56 133.114 25.176C133.37 24.792 133.77 24.4933 134.314 24.28C134.858 24.056 135.568 23.944 136.442 23.944H138.73V25.4H136.714C136.128 25.4 135.722 25.496 135.498 25.688C135.285 25.88 135.178 26.12 135.178 26.408C135.178 26.728 135.301 26.984 135.546 27.176C135.802 27.3573 136.149 27.448 136.586 27.448C137.002 27.448 137.376 27.352 137.706 27.16C138.037 26.9573 138.277 26.664 138.426 26.28L138.81 27.432C138.629 27.9867 138.298 28.408 137.818 28.696C137.338 28.984 136.72 29.128 135.962 29.128ZM143.091 29V20.392H145.571V23.752H149.315V20.392H151.811V29H149.315V25.784H145.571V29H143.091ZM154.184 29V20.392H156.68V29H154.184ZM155.432 19.192C154.973 19.192 154.6 19.0587 154.312 18.792C154.024 18.5253 153.88 18.1947 153.88 17.8C153.88 17.4053 154.024 17.0747 154.312 16.808C154.6 16.5413 154.973 16.408 155.432 16.408C155.891 16.408 156.264 16.536 156.552 16.792C156.84 17.0373 156.984 17.3573 156.984 17.752C156.984 18.168 156.84 18.5147 156.552 18.792C156.275 19.0587 155.901 19.192 155.432 19.192ZM159.075 29V20.392H161.555V23.56H164.083V25.72H161.555V29H159.075ZM167.219 29.128C166.334 29.128 165.544 28.936 164.851 28.552C164.158 28.168 163.614 27.6453 163.219 26.984C162.824 26.312 162.627 25.5493 162.627 24.696C162.627 23.832 162.824 23.0693 163.219 22.408C163.614 21.736 164.158 21.2133 164.851 20.84C165.544 20.456 166.334 20.264 167.219 20.264C168.104 20.264 168.888 20.456 169.571 20.84C170.264 21.2133 170.808 21.736 171.203 22.408C171.598 23.0693 171.795 23.832 171.795 24.696C171.795 25.5493 171.598 26.312 171.203 26.984C170.808 27.656 170.264 28.184 169.571 28.568C168.888 28.9413 168.104 29.128 167.219 29.128ZM167.219 27.08C167.624 27.08 167.982 26.984 168.291 26.792C168.611 26.6 168.862 26.328 169.043 25.976C169.235 25.6133 169.331 25.1867 169.331 24.696C169.331 24.1947 169.235 23.768 169.043 23.416C168.862 23.064 168.611 22.792 168.291 22.6C167.982 22.408 167.624 22.312 167.219 22.312C166.824 22.312 166.462 22.408 166.131 22.6C165.811 22.792 165.555 23.064 165.363 23.416C165.182 23.768 165.091 24.1947 165.091 24.696C165.091 25.1867 165.182 25.6133 165.363 25.976C165.555 26.328 165.811 26.6 166.131 26.792C166.462 26.984 166.824 27.08 167.219 27.08Z" fill="white"/>
</svg>
