<svg width="40.000000" height="40.000000" viewBox="0 0 40 40" fill="none" xmlns="http://www.w3.org/2000/svg" xmlns:xlink="http://www.w3.org/1999/xlink">
	<desc>
			Created with Pixso.
	</desc>
	<defs/>
	<circle id="Ellipse 8" cx="20.000000" cy="20.000000" r="20.000000" fill="#8C3213" fill-opacity="1.000000"/>
	<circle id="Ellipse 8" cx="20.000000" cy="20.000000" r="19.500000" stroke="#8C3213" stroke-opacity="1.000000" stroke-width="1.000000"/>
	<path id="Vector" d="M27.93 21.76L25.23 17.27L27.65 16.6C27.9 16.53 28.05 16.27 27.98 16.02C27.91 15.77 27.65 15.62 27.4 15.69L24.39 16.53C24.39 16.53 24.39 16.53 24.39 16.53L20.46 17.62L20.46 12.46C20.46 12.2 20.25 12 20 12C19.74 12 19.53 12.2 19.53 12.46L19.53 17.88L15.36 19.04C15.36 19.04 15.36 19.04 15.36 19.04L12.34 19.88C12.09 19.95 11.94 20.21 12.01 20.45C12.07 20.66 12.26 20.8 12.46 20.8C12.5 20.8 12.55 20.79 12.59 20.78L14.47 20.26L12.06 24.27C12.02 24.35 12 24.43 12 24.51C12 26.43 13.56 27.99 15.48 27.99C17.4 27.99 18.96 26.43 18.96 24.51C18.96 24.43 18.93 24.35 18.89 24.27L16.2 19.78L23.51 17.75L21.1 21.76C21.06 21.84 21.03 21.92 21.03 22C21.03 23.92 22.59 25.48 24.51 25.48C25.44 25.48 26.32 25.12 26.98 24.46C27.63 23.81 28 22.93 28 22C28 21.92 27.97 21.84 27.93 21.76ZM15.48 27.06C14.23 27.06 13.2 26.16 12.98 24.98L17.98 24.98C17.76 26.16 16.72 27.06 15.48 27.06ZM17.66 24.04L13.29 24.04L15.48 20.4L17.66 24.04ZM24.51 17.89L26.7 21.53L22.33 21.53L24.51 17.89ZM24.51 24.55C23.27 24.55 22.23 23.65 22.01 22.47L27.01 22.47C26.79 23.65 25.76 24.55 24.51 24.55Z" fill="#FFFFFF" fill-opacity="1.000000" fill-rule="nonzero"/>
</svg>
