<svg width="41.000000" height="41.000000" viewBox="0 0 41 41" fill="none" xmlns="http://www.w3.org/2000/svg" xmlns:xlink="http://www.w3.org/1999/xlink">
	<desc>
			Created with Pixso.
	</desc>
	<defs>
		<clipPath id="clip3_7084">
			<rect id="comparison 1" width="16.000000" height="16.000000" transform="translate(12.000000 13.000000)" fill="white" fill-opacity="0"/>
		</clipPath>
	</defs>
	<rect id="comparison 1" width="16.000000" height="16.000000" transform="translate(12.000000 13.000000)" fill="#FFFFFF" fill-opacity="0"/>
	<g clip-path="url(#clip3_7084)">
		<path id="Vector" d="M27.93 22.76L25.23 18.27L27.65 17.6C27.9 17.53 28.05 17.27 27.98 17.02C27.91 16.77 27.65 16.62 27.4 16.69L24.39 17.53C24.39 17.53 24.39 17.53 24.39 17.53L20.46 18.62L20.46 13.46C20.46 13.21 20.25 13 20 13C19.74 13 19.53 13.21 19.53 13.46L19.53 18.88L15.36 20.04C15.36 20.04 15.36 20.04 15.36 20.04L12.34 20.88C12.09 20.95 11.94 21.21 12.01 21.45C12.07 21.66 12.26 21.8 12.46 21.8C12.5 21.8 12.55 21.79 12.59 21.78L14.47 21.26L12.06 25.27C12.02 25.35 12 25.43 12 25.51C12 27.43 13.56 28.99 15.48 28.99C17.4 28.99 18.96 27.43 18.96 25.51C18.96 25.43 18.93 25.35 18.89 25.27L16.2 20.78L23.51 18.75L21.1 22.76C21.06 22.84 21.03 22.92 21.03 23C21.03 24.92 22.59 26.48 24.51 26.48C25.44 26.48 26.32 26.12 26.98 25.47C27.63 24.81 28 23.93 28 23C28 22.92 27.97 22.84 27.93 22.76ZM15.48 28.06C14.23 28.06 13.2 27.16 12.98 25.98L17.98 25.98C17.76 27.16 16.72 28.06 15.48 28.06ZM17.66 25.05L13.29 25.05L15.48 21.4L17.66 25.05ZM24.51 18.89L26.7 22.53L22.33 22.53L24.51 18.89ZM24.51 25.55C23.27 25.55 22.23 24.65 22.01 23.47L27.01 23.47C26.79 24.65 25.76 25.55 24.51 25.55Z" fill="#8C3213" fill-opacity="1.000000" fill-rule="nonzero"/>
	</g>
	<circle id="Ellipse 8" cx="20.000000" cy="21.000000" r="20.000000" fill="#C4C4C4" fill-opacity="0"/>
	<circle id="Ellipse 8" cx="20.000000" cy="21.000000" r="19.500000" stroke="#8C3213" stroke-opacity="1.000000" stroke-width="1.000000"/>
</svg>
