<svg width="200" height="40" viewBox="0 0 200 40" fill="none" xmlns="http://www.w3.org/2000/svg">
<rect x="0.5" y="0.5" width="199" height="39" rx="19.5" fill="#FCFDFA" stroke="#1E6140"/>
<g clip-path="url(#clip0_37851_9676)">
<path d="M58.6344 14.4528C58.8451 14.3194 58.9078 14.0405 58.7745 13.8297C57.571 11.9281 56.2804 10.9289 54.9318 10.9289C53.9347 10.9289 52.9587 11.4857 52.0301 12.5506C51.2569 13.4373 50.5292 14.6545 49.8655 16.1654C48.7099 18.7957 47.9 22.0311 47.9 24.0393C47.9 27.9167 51.0544 31.0711 54.9318 31.0711C55.8284 31.0711 56.6864 30.9024 57.4758 30.595C58.2626 30.8834 59.0796 31.0276 59.8953 31.0276C60.8734 31.0276 61.849 30.8208 62.7676 30.4091C64.1729 29.7798 66.1117 28.3739 67.8306 26.743L67.8306 26.743C68.0115 26.5713 68.019 26.2855 67.8474 26.1046L67.8474 26.1046L58.5809 14.3683M58.6344 14.4528L58.5809 14.3683M58.6344 14.4528C58.6344 14.4528 58.6344 14.4528 58.6344 14.4527L58.5809 14.3683M58.6344 14.4528C58.4237 14.5863 58.1447 14.5235 58.0113 14.3127L58.0958 14.2592C58.1997 14.4234 58.4169 14.4722 58.5809 14.3683M62.3983 29.5849L62.3983 29.5849C63.6873 29.0078 65.5771 27.6361 67.2089 26.0879C67.2089 26.0879 67.2089 26.0879 67.2089 26.0878L67.2778 26.1604L62.3983 29.5849ZM62.3983 29.5849C61.2097 30.1176 59.9131 30.2563 58.6627 29.9973M62.3983 29.5849L58.6627 29.9973M58.6627 29.9973C59.2041 29.6571 59.6959 29.2453 60.1251 28.7752C62.9762 28.3968 65.0152 26.3473 65.1026 26.2582L65.0313 26.1882L65.1027 26.2582C65.2773 26.0803 65.2747 25.7943 65.0967 25.6197L65.0967 25.6196C64.9187 25.445 64.6328 25.4476 64.4581 25.6256L58.6627 29.9973Z" fill="#9ACA70" stroke="#9ACA70" stroke-width="0.2"/>
<path d="M59.5417 15.1944L59.5417 15.1944C59.7708 15.6501 59.9916 16.1367 60.2005 16.643C62.4284 16.204 64.8827 16.0447 66.8427 16.2186C69.4893 16.4533 71.2473 17.2716 71.8564 18.6311M59.5417 15.1944L71.7652 18.672M59.5417 15.1944C59.4296 14.9717 59.1583 14.8818 58.9354 14.9939L59.5417 15.1944ZM71.8564 18.6311L71.7652 18.672M71.8564 18.6311C71.8564 18.6311 71.8564 18.6311 71.8564 18.6311L71.7652 18.672M71.8564 18.6311C72.3761 19.7907 72.001 21.1551 71.3251 22.4147C70.6468 23.6789 69.6511 24.865 68.8823 25.6857M71.7652 18.672C72.7648 20.9025 70.3423 23.9809 68.8093 25.6174M68.8823 25.6857L68.8093 25.6174M68.8823 25.6857C68.8823 25.6857 68.8823 25.6857 68.8823 25.6857L68.8093 25.6174M68.8823 25.6857C68.7934 25.7806 68.673 25.8286 68.5527 25.8286C68.4421 25.8286 68.3311 25.7882 68.244 25.7066L68.244 25.7066C68.062 25.5361 68.0527 25.2503 68.2232 25.0683M68.8093 25.6174L68.0207 18.2331C67.884 18.2008 64.9808 17.5471 61.0174 18.9206C60.8691 18.4405 60.7074 17.9637 60.5347 17.498C62.6413 17.0977 64.9335 16.9559 66.763 17.1181C67.5861 17.1911 68.5141 17.3407 69.3083 17.6358C70.105 17.9318 70.7487 18.3674 71.0323 19.0003L71.0323 19.0003C71.3192 19.6406 71.2266 20.5096 70.7492 21.5527C70.273 22.5931 69.4216 23.789 68.2232 25.0683M68.2232 25.0683L68.2962 25.1367M68.2232 25.0683C68.2232 25.0683 68.2232 25.0683 68.2232 25.0683L68.2962 25.1367M68.2962 25.1367C70.7015 22.5689 71.7321 20.3173 71.1236 18.9594L68.3124 25.6336C68.1707 25.5009 68.1634 25.2784 68.2962 25.1367ZM61.7072 21.6848L61.7072 21.6848C61.7529 21.9299 61.5912 22.1657 61.3461 22.2115C61.3461 22.2115 61.3461 22.2115 61.3461 22.2115L61.7072 21.6848ZM61.7072 21.6848C61.5919 21.0668 61.4439 20.429 61.2696 19.7891M61.7072 21.6848L61.2696 19.7891M61.2696 19.7891C63.1239 19.1416 64.7447 18.9689 65.9099 18.9599C66.5016 18.9553 66.9757 18.9929 67.3029 19.032C67.4665 19.0515 67.5934 19.0713 67.6799 19.0864C67.7232 19.094 67.7563 19.1004 67.7789 19.1049L67.8048 19.1102L67.8116 19.1117C67.8133 19.1121 67.8141 19.1123 67.8141 19.1123L67.8365 19.0148M61.2696 19.7891L68.2594 18.7533C68.2148 18.9422 68.0255 19.0595 67.8365 19.0148M67.8365 19.0148L67.8136 19.1121C68.0563 19.1695 68.2995 19.0189 68.3567 18.7762M67.8365 19.0148L68.3567 18.7762M68.3567 18.7762C68.4139 18.5334 68.2634 18.2904 68.0207 18.2331L68.3567 18.7762ZM60.8193 21.8504L60.9176 21.832L58.9354 14.9939C58.7125 15.1059 58.6228 15.3774 58.7348 15.6002C59.6487 17.4174 60.4284 19.7549 60.8193 21.8504Z" fill="#9ACA70" stroke="#9ACA70" stroke-width="0.2"/>
<path d="M66.4885 21.8792L66.4885 21.8792C66.7123 21.7692 66.9829 21.8615 67.0929 22.0854C67.0929 22.0854 67.0929 22.0854 67.0929 22.0854L66.4885 21.8792ZM66.4885 21.8792L62.3976 23.8898L62.3976 23.8898M66.4885 21.8792L62.3976 23.8898M62.1915 24.4942C62.1915 24.4942 62.1915 24.4942 62.1915 24.4942L62.2812 24.4501L62.1915 24.4942ZM62.1915 24.4942C62.0815 24.2704 62.1738 23.9998 62.3976 23.8898M62.1915 24.4942L62.3976 23.8898M62.7518 24.6106L66.8427 22.6001L62.7518 24.6106Z" fill="#9ACA70" stroke="#9ACA70" stroke-width="0.2"/>
<path d="M53.6328 14.182L53.6328 14.182C53.8307 14.3333 53.8687 14.6163 53.7177 14.8145L53.6382 14.7539M53.6328 14.182L51.5107 26.4552V26.3552L51.5107 26.4552C51.5399 26.4552 51.5696 26.4524 51.5993 26.4465M53.6328 14.182C53.4346 14.0306 53.1512 14.0685 52.9998 14.2665L52.9998 14.2665C52.9598 14.3189 52.1251 15.4259 51.4691 17.4422C50.8673 19.2917 50.3106 22.2918 51.0682 26.0919L51.1662 26.0724C50.4126 22.292 50.9667 19.3095 51.5642 17.4731C52.2159 15.4702 53.0443 14.373 53.0793 14.3273C53.1972 14.1731 53.4178 14.1436 53.5721 14.2614C53.7262 14.3792 53.7558 14.5996 53.6382 14.7539M53.6328 14.182L52.2223 17.7229C52.8355 15.8231 53.6302 14.7644 53.6382 14.7539M53.6382 14.7539L53.7179 14.8143C53.7179 14.8143 53.7147 14.8185 53.7085 14.827C53.7025 14.8353 53.6935 14.8477 53.682 14.8641C53.6589 14.8968 53.6255 14.9455 53.5835 15.0097C53.4996 15.1382 53.3817 15.3287 53.2449 15.578C52.9712 16.0767 52.6219 16.8105 52.3175 17.7536C51.7567 19.4913 51.2371 22.3198 51.9539 25.9153C52.0027 26.1599 51.8439 26.3977 51.5993 26.4465M51.5993 26.4465L51.5798 26.3484L51.5994 26.4465C51.5994 26.4465 51.5994 26.4465 51.5993 26.4465Z" fill="#9ACA70" stroke="#9ACA70" stroke-width="0.2"/>
<path d="M58.5454 19.9554L58.5455 19.9554C58.7775 19.8648 59.0392 19.979 59.1301 20.2111M58.5454 19.9554L59.6963 23.1347C59.6963 23.1347 59.6963 23.1347 59.6963 23.1347M58.5454 19.9554C58.3133 20.0461 58.1986 20.3079 58.289 20.54C58.289 20.54 58.289 20.5401 58.289 20.5401C58.2892 20.5404 58.2896 20.5415 58.2904 20.5437L58.2943 20.5541C58.2977 20.5632 58.3026 20.5766 58.3088 20.5941C58.3213 20.6291 58.3391 20.6805 58.3605 20.7467C58.4034 20.879 58.461 21.0705 58.5203 21.3086C58.6391 21.7851 58.7647 22.4469 58.7948 23.1942C58.8739 25.1591 58.2894 26.7561 57.0645 27.9515L57.0645 27.9515C56.886 28.1257 56.8825 28.4116 57.0567 28.59L57.0567 28.59C57.1452 28.6807 57.2627 28.7263 57.38 28.7263C57.4935 28.7263 57.6075 28.6835 57.6953 28.5978C59.1006 27.2264 59.7902 25.3345 59.6963 23.1347M58.5454 19.9554L59.6963 23.1347M59.1301 20.2111L59.037 20.2476L59.1301 20.211C59.1301 20.2111 59.1301 20.2111 59.1301 20.2111ZM59.1301 20.2111C59.1524 20.2679 59.6263 21.4955 59.6963 23.1347" fill="#9ACA70" stroke="#9ACA70" stroke-width="0.2"/>
<path d="M56.1371 16.6884L56.1371 16.6884L56.1363 16.6884C55.8871 16.6973 55.6922 16.9065 55.7011 17.1557L55.7011 17.1557L55.863 21.7112L55.863 21.7112C55.8718 21.955 56.072 22.1467 56.3141 22.1467C56.3198 22.1467 56.3252 22.1466 56.3301 22.1465L56.3304 22.1464C56.5796 22.1376 56.7745 21.9284 56.7656 21.6791L56.7656 21.6791L56.6036 17.1237C56.6036 17.1237 56.6036 17.1237 56.6036 17.1237C56.5948 16.8738 56.3854 16.6814 56.1371 16.6884Z" fill="#9ACA70" stroke="#9ACA70" stroke-width="0.2"/>
<path d="M52.5491 27.4054L52.5492 27.4054C52.5491 27.4054 52.5499 27.4062 52.5514 27.4078L52.5577 27.4146L52.5813 27.4393C52.6017 27.4605 52.6314 27.4907 52.6693 27.5276C52.7452 27.6013 52.8535 27.7017 52.9859 27.8105C53.2518 28.0292 53.6093 28.2776 53.9909 28.4165C54.2252 28.5017 54.3461 28.7608 54.2608 28.9951C54.2608 28.9951 54.2608 28.9952 54.2608 28.9952L54.1669 28.961C54.1149 29.1037 53.9801 29.1924 53.8365 29.1924C53.7965 29.1924 53.756 29.1856 53.7163 29.1711L52.5491 27.4054ZM52.5491 27.4054C52.382 27.2207 52.0966 27.2062 51.9116 27.3734L52.5491 27.4054ZM51.8793 28.0112C51.9129 28.0484 52.6941 28.9056 53.682 29.2651L51.8793 28.0112ZM51.9116 27.3734C51.7266 27.5406 51.7121 27.8261 51.8793 28.0112L51.9116 27.3734Z" fill="#9ACA70" stroke="#9ACA70" stroke-width="0.2"/>
<path d="M56.5127 22.6461C56.2633 22.6461 56.0611 22.8482 56.0611 23.0977V23.1296C56.0611 23.379 56.2633 23.5811 56.5127 23.5811C56.7621 23.5811 56.9643 23.379 56.9643 23.1296V23.0977C56.9643 22.8482 56.7621 22.6461 56.5127 22.6461Z" fill="#9ACA70" stroke="#9ACA70" stroke-width="0.2"/>
<path d="M55.6465 23.5724C55.3971 23.5724 55.1949 23.7745 55.1949 24.0239V24.0558C55.1949 24.3053 55.3971 24.5074 55.6465 24.5074C55.8959 24.5074 56.098 24.3053 56.098 24.0558V24.0239C56.098 23.7745 55.8959 23.5724 55.6465 23.5724Z" fill="#9ACA70" stroke="#9ACA70" stroke-width="0.2"/>
<path d="M56.7646 25.147C56.5153 25.147 56.3131 25.3491 56.3131 25.5986V25.6305C56.3131 25.8799 56.5153 26.0821 56.7646 26.0821C57.014 26.0821 57.2162 25.8799 57.2162 25.6305V25.5986C57.2162 25.3491 57.014 25.147 56.7646 25.147Z" fill="#9ACA70" stroke="#9ACA70" stroke-width="0.2"/>
</g>
<path d="M94.7463 16.2H96.5663V26H94.7463V16.2ZM89.6783 26H87.8583V16.2H89.6783V26ZM94.8863 21.8H89.5243V20.246H94.8863V21.8ZM98.0694 26L102.479 16.2H104.271L108.695 26H106.791L102.997 17.166H103.725L99.9454 26H98.0694ZM100.099 23.732L100.589 22.304H105.881L106.371 23.732H100.099ZM114.569 26.14C113.823 26.14 113.127 26.0187 112.483 25.776C111.849 25.524 111.293 25.174 110.817 24.726C110.351 24.2687 109.987 23.732 109.725 23.116C109.464 22.5 109.333 21.828 109.333 21.1C109.333 20.372 109.464 19.7 109.725 19.084C109.987 18.468 110.355 17.936 110.831 17.488C111.307 17.0307 111.863 16.6807 112.497 16.438C113.132 16.186 113.827 16.06 114.583 16.06C115.386 16.06 116.119 16.2 116.781 16.48C117.444 16.7507 118.004 17.1567 118.461 17.698L117.285 18.804C116.931 18.4213 116.534 18.1367 116.095 17.95C115.657 17.754 115.181 17.656 114.667 17.656C114.154 17.656 113.683 17.74 113.253 17.908C112.833 18.076 112.465 18.314 112.147 18.622C111.839 18.93 111.597 19.294 111.419 19.714C111.251 20.134 111.167 20.596 111.167 21.1C111.167 21.604 111.251 22.066 111.419 22.486C111.597 22.906 111.839 23.27 112.147 23.578C112.465 23.886 112.833 24.124 113.253 24.292C113.683 24.46 114.154 24.544 114.667 24.544C115.181 24.544 115.657 24.4507 116.095 24.264C116.534 24.068 116.931 23.774 117.285 23.382L118.461 24.502C118.004 25.034 117.444 25.44 116.781 25.72C116.119 26 115.381 26.14 114.569 26.14ZM120.165 26V16.2H121.957V26H120.165ZM131.606 16.2H133.426V26H131.606V16.2ZM126.538 26H124.718V16.2H126.538V26ZM131.746 21.8H126.384V20.246H131.746V21.8ZM143.063 16.2H144.883V26H143.063V16.2ZM137.995 26H136.175V16.2H137.995V26ZM143.203 21.8H137.841V20.246H143.203V21.8ZM153.33 26V22.864L153.778 23.27H150.908C150.086 23.27 149.377 23.1347 148.78 22.864C148.192 22.584 147.739 22.1873 147.422 21.674C147.104 21.1513 146.946 20.526 146.946 19.798C146.946 19.042 147.114 18.398 147.45 17.866C147.786 17.3247 148.262 16.914 148.878 16.634C149.494 16.3447 150.217 16.2 151.048 16.2H155.122V26H153.33ZM146.974 26L149.396 22.5H151.23L148.892 26H146.974ZM153.33 22.276V17.236L153.778 17.74H151.104C150.357 17.74 149.783 17.9127 149.382 18.258C148.99 18.594 148.794 19.098 148.794 19.77C148.794 20.414 148.98 20.9133 149.354 21.268C149.736 21.6133 150.296 21.786 151.034 21.786H153.778L153.33 22.276Z" fill="black"/>
<defs>
<clipPath id="clip0_37851_9676">
<rect width="24" height="24" fill="white" transform="translate(48 9)"/>
</clipPath>
</defs>
</svg>
