<svg width="201" height="40" viewBox="0 0 201 40" fill="none" xmlns="http://www.w3.org/2000/svg">
<rect x="0.5" y="0.5" width="200" height="39" rx="19.5" stroke="#1E6140"/>
<path d="M55.0309 21.87H53.2109V26H51.4189V16.2H53.2109V20.302H55.0869L57.9009 16.2H59.8329L56.4869 20.946L59.9589 26H57.9009L55.0309 21.87ZM65.7029 26.14C64.7043 26.14 63.8036 25.9253 63.0009 25.496C62.1983 25.0573 61.5683 24.4553 61.1109 23.69C60.6536 22.9153 60.4249 22.052 60.4249 21.1C60.4249 20.148 60.6536 19.2893 61.1109 18.524C61.5683 17.7493 62.1983 17.1473 63.0009 16.718C63.8036 16.2793 64.7043 16.06 65.7029 16.06C66.7016 16.06 67.6023 16.2793 68.4049 16.718C69.2076 17.1473 69.8376 17.7447 70.2949 18.51C70.7523 19.2753 70.9809 20.1387 70.9809 21.1C70.9809 22.0613 70.7523 22.9247 70.2949 23.69C69.8376 24.4553 69.2076 25.0573 68.4049 25.496C67.6023 25.9253 66.7016 26.14 65.7029 26.14ZM65.7029 24.544C66.3563 24.544 66.9443 24.3993 67.4669 24.11C67.9896 23.8113 68.4003 23.4007 68.6989 22.878C68.9976 22.346 69.1469 21.7533 69.1469 21.1C69.1469 20.4467 68.9976 19.8587 68.6989 19.336C68.4003 18.804 67.9896 18.3933 67.4669 18.104C66.9443 17.8053 66.3563 17.656 65.7029 17.656C65.0496 17.656 64.4616 17.8053 63.9389 18.104C63.4163 18.3933 63.0056 18.804 62.7069 19.336C62.4083 19.8587 62.2589 20.4467 62.2589 21.1C62.2589 21.7533 62.4083 22.346 62.7069 22.878C63.0056 23.4007 63.4163 23.8113 63.9389 24.11C64.4616 24.3993 65.0496 24.544 65.7029 24.544ZM77.0251 16.2C77.8744 16.2 78.6118 16.34 79.2371 16.62C79.8718 16.9 80.3571 17.3013 80.6931 17.824C81.0291 18.3467 81.1971 18.9673 81.1971 19.686C81.1971 20.3953 81.0291 21.016 80.6931 21.548C80.3571 22.0707 79.8718 22.472 79.2371 22.752C78.6118 23.032 77.8744 23.172 77.0251 23.172H74.8131V26H72.9931V16.2H77.0251ZM76.9411 21.632C77.7344 21.632 78.3364 21.464 78.7471 21.128C79.1578 20.792 79.3631 20.3113 79.3631 19.686C79.3631 19.0607 79.1578 18.58 78.7471 18.244C78.3364 17.908 77.7344 17.74 76.9411 17.74H74.8131V21.632H76.9411ZM91.9209 26L91.9069 19.504L88.6869 24.88H87.8749L84.6549 19.588V26H82.9329V16.2H84.4309L88.3089 22.682L92.1449 16.2H93.6289L93.6569 26H91.9209ZM100.935 26.14C99.9367 26.14 99.036 25.9253 98.2333 25.496C97.4307 25.0573 96.8007 24.4553 96.3433 23.69C95.886 22.9153 95.6573 22.052 95.6573 21.1C95.6573 20.148 95.886 19.2893 96.3433 18.524C96.8007 17.7493 97.4307 17.1473 98.2333 16.718C99.036 16.2793 99.9367 16.06 100.935 16.06C101.934 16.06 102.835 16.2793 103.637 16.718C104.44 17.1473 105.07 17.7447 105.527 18.51C105.985 19.2753 106.213 20.1387 106.213 21.1C106.213 22.0613 105.985 22.9247 105.527 23.69C105.07 24.4553 104.44 25.0573 103.637 25.496C102.835 25.9253 101.934 26.14 100.935 26.14ZM100.935 24.544C101.589 24.544 102.177 24.3993 102.699 24.11C103.222 23.8113 103.633 23.4007 103.931 22.878C104.23 22.346 104.379 21.7533 104.379 21.1C104.379 20.4467 104.23 19.8587 103.931 19.336C103.633 18.804 103.222 18.3933 102.699 18.104C102.177 17.8053 101.589 17.656 100.935 17.656C100.282 17.656 99.694 17.8053 99.1713 18.104C98.6487 18.3933 98.238 18.804 97.9393 19.336C97.6407 19.8587 97.4913 20.4467 97.4913 21.1C97.4913 21.7533 97.6407 22.346 97.9393 22.878C98.238 23.4007 98.6487 23.8113 99.1713 24.11C99.694 24.3993 100.282 24.544 100.935 24.544ZM114.68 20.904C115.305 21.072 115.781 21.3613 116.108 21.772C116.434 22.1733 116.598 22.6773 116.598 23.284C116.598 24.1427 116.28 24.81 115.646 25.286C115.011 25.762 114.092 26 112.888 26H108.24V16.2H112.622C113.723 16.2 114.582 16.4193 115.198 16.858C115.814 17.2967 116.122 17.9173 116.122 18.72C116.122 19.2333 115.996 19.6767 115.744 20.05C115.501 20.4233 115.146 20.708 114.68 20.904ZM110.032 20.386H112.468C113.056 20.386 113.504 20.2693 113.812 20.036C114.12 19.8027 114.274 19.4573 114.274 19C114.274 18.5427 114.12 18.1973 113.812 17.964C113.504 17.7213 113.056 17.6 112.468 17.6H110.032V20.386ZM112.832 24.6C114.12 24.6 114.764 24.1147 114.764 23.144C114.764 22.192 114.12 21.716 112.832 21.716H110.032V24.6H112.832ZM125.167 23.732H120.267L119.301 26H117.425L121.835 16.2H123.627L128.051 26H126.147L125.167 23.732ZM124.565 22.304L122.717 18.02L120.883 22.304H124.565ZM140.073 17.74H135.215L135.229 26H133.437V16.2H140.087L140.073 17.74ZM145.644 16.2C146.494 16.2 147.231 16.34 147.856 16.62C148.491 16.9 148.976 17.3013 149.312 17.824C149.648 18.3467 149.816 18.9673 149.816 19.686C149.816 20.3953 149.648 21.016 149.312 21.548C148.976 22.0707 148.491 22.472 147.856 22.752C147.231 23.032 146.494 23.172 145.644 23.172H143.432V26H141.612V16.2H145.644ZM145.56 21.632C146.354 21.632 146.956 21.464 147.366 21.128C147.777 20.792 147.982 20.3113 147.982 19.686C147.982 19.0607 147.777 18.58 147.366 18.244C146.956 17.908 146.354 17.74 145.56 17.74H143.432V21.632H145.56ZM159.733 16.2L155.477 24.11C155.104 24.81 154.656 25.3373 154.133 25.692C153.62 26.0373 153.06 26.21 152.453 26.21C151.968 26.21 151.487 26.1073 151.011 25.902L151.459 24.474C151.842 24.5953 152.159 24.656 152.411 24.656C152.999 24.656 153.485 24.3527 153.867 23.746L154.021 23.508L150.115 16.2H152.061L154.959 21.954L157.941 16.2H159.733ZM169.679 16.2V26H167.887V17.74H162.805V26H161.013V16.2H169.679ZM178.938 23.732H174.038L173.072 26H171.196L175.606 16.2H177.398L181.822 26H179.918L178.938 23.732ZM178.336 22.304L176.488 18.02L174.654 22.304H178.336Z" fill="black"/>
<g clip-path="url(#clip0_37855_9681)">
<path d="M36.9999 29.35V26C38.0813 25.9011 39.1093 25.4843 39.9542 24.8022C40.7991 24.12 41.4231 23.203 41.7477 22.1667C42.0723 21.1305 42.0828 20.0213 41.778 18.9791C41.4732 17.9368 40.8667 17.0081 40.0349 16.31C40.5577 15.6464 40.883 14.849 40.9738 14.0092C41.0647 13.1693 40.9172 12.3208 40.5484 11.5608C40.1796 10.8008 39.6043 10.16 38.8883 9.71159C38.1724 9.26322 37.3447 9.02544 36.4999 9.02544C35.6552 9.02544 34.8274 9.26322 34.1115 9.71159C33.3955 10.16 32.8202 10.8008 32.4514 11.5608C32.0826 12.3208 31.9352 13.1693 32.026 14.0092C32.1168 14.849 32.4422 15.6464 32.9649 16.31C32.1331 17.0081 31.5266 17.9368 31.2218 18.9791C30.917 20.0213 30.9276 21.1305 31.2521 22.1667C31.5767 23.203 32.2008 24.12 33.0457 24.8022C33.8906 25.4843 34.9185 25.9011 35.9999 26V29C32.1039 27.7101 27.8959 27.7101 23.9999 29V26C25.0813 25.9011 26.1093 25.4843 26.9542 24.8022C27.7991 24.12 28.4231 23.203 28.7477 22.1667C29.0723 21.1305 29.0828 20.0213 28.778 18.9791C28.4732 17.9368 27.8667 17.0081 27.0349 16.31C27.4782 15.7472 27.7808 15.0866 27.9173 14.3833C28.0539 13.68 28.0206 12.9542 27.8201 12.2664C27.6196 11.5785 27.2578 10.9485 26.7648 10.4287C26.2717 9.90888 25.6617 9.51431 24.9854 9.2778C24.3091 9.04128 23.5861 8.96967 22.8765 9.06891C22.167 9.16815 21.4914 9.43537 20.9059 9.84836C20.3205 10.2613 19.8421 10.8081 19.5106 11.4433C19.1791 12.0784 19.004 12.7836 18.9999 13.5C18.9971 14.5108 19.3373 15.4927 19.9649 16.285C19.1246 16.9811 18.5103 17.9115 18.2003 18.9578C17.8903 20.0041 17.8985 21.1189 18.2238 22.1605C18.5492 23.2021 19.1771 24.1233 20.0276 24.807C20.8781 25.4907 21.9127 25.906 22.9999 26V29.35C21.2724 30.0322 19.6524 30.9601 18.1899 32.105C18.1073 32.1691 18.0469 32.2574 18.0172 32.3577C17.9874 32.4579 17.9898 32.5649 18.024 32.6637C18.0582 32.7624 18.1225 32.848 18.2079 32.9083C18.2933 32.9687 18.3954 33.0007 18.4999 33H41.4999C41.6045 33.0007 41.7066 32.9687 41.792 32.9083C41.8773 32.848 41.9416 32.7624 41.9758 32.6637C42.0101 32.5649 42.0125 32.4579 41.9827 32.3577C41.9529 32.2574 41.8925 32.1691 41.8099 32.105C40.3475 30.9601 38.7274 30.0322 36.9999 29.35ZM31.9999 20.5C32.0018 19.7619 32.1853 19.0357 32.534 18.3852C32.8828 17.7347 33.3862 17.18 33.9999 16.77C34.0597 16.7269 34.1093 16.671 34.145 16.6065C34.1807 16.542 34.2017 16.4704 34.2065 16.3968C34.2113 16.3232 34.1997 16.2495 34.1726 16.1809C34.1456 16.1123 34.1037 16.0505 34.0499 16C33.5534 15.5133 33.2131 14.8899 33.0724 14.209C32.9317 13.5282 32.9969 12.8209 33.2597 12.1773C33.5225 11.5337 33.9711 10.9829 34.5482 10.5952C35.1252 10.2075 35.8047 10.0005 36.4999 10.0005C37.1951 10.0005 37.8746 10.2075 38.4517 10.5952C39.0288 10.9829 39.4773 11.5337 39.7402 12.1773C40.003 12.8209 40.0682 13.5282 39.9275 14.209C39.7867 14.8899 39.4464 15.5133 38.9499 16C38.8962 16.0505 38.8543 16.1123 38.8272 16.1809C38.8001 16.2495 38.7886 16.3232 38.7933 16.3968C38.7981 16.4704 38.8191 16.542 38.8548 16.6065C38.8906 16.671 38.9401 16.7269 38.9999 16.77C39.6468 17.2022 40.1705 17.7947 40.52 18.4896C40.8696 19.1846 41.033 19.9583 40.9943 20.7353C40.9557 21.5123 40.7162 22.266 40.2994 22.9228C39.8826 23.5796 39.3026 24.1172 38.6161 24.483C37.9295 24.8488 37.1599 25.0305 36.3822 25.0101C35.6046 24.9898 34.8454 24.7682 34.179 24.3669C33.5125 23.9657 32.9614 23.3986 32.5795 22.7208C32.1976 22.0431 31.9979 21.2779 31.9999 20.5ZM18.9999 20.5C19.0018 19.7619 19.1853 19.0357 19.534 18.3852C19.8828 17.7347 20.3862 17.18 20.9999 16.77C21.0597 16.7269 21.1093 16.671 21.145 16.6065C21.1807 16.542 21.2017 16.4704 21.2065 16.3968C21.2113 16.3232 21.1997 16.2495 21.1726 16.1809C21.1456 16.1123 21.1037 16.0505 21.0499 16C20.5534 15.5133 20.2131 14.8899 20.0724 14.209C19.9316 13.5282 19.9969 12.8209 20.2597 12.1773C20.5225 11.5337 20.9711 10.9829 21.5482 10.5952C22.1252 10.2075 22.8047 10.0005 23.4999 10.0005C24.1951 10.0005 24.8746 10.2075 25.4517 10.5952C26.0288 10.9829 26.4773 11.5337 26.7402 12.1773C27.003 12.8209 27.0682 13.5282 26.9275 14.209C26.7867 14.8899 26.4464 15.5133 25.9499 16C25.8962 16.0505 25.8543 16.1123 25.8272 16.1809C25.8001 16.2495 25.7886 16.3232 25.7933 16.3968C25.7981 16.4704 25.8191 16.542 25.8548 16.6065C25.8906 16.671 25.9401 16.7269 25.9999 16.77C26.6468 17.2022 27.1705 17.7947 27.52 18.4896C27.8696 19.1846 28.033 19.9583 27.9943 20.7353C27.9557 21.5123 27.7163 22.266 27.2994 22.9228C26.8826 23.5796 26.3026 24.1172 25.6161 24.483C24.9295 24.8488 24.1599 25.0305 23.3822 25.0101C22.6046 24.9898 21.8454 24.7682 21.179 24.3669C20.5125 23.9657 19.9614 23.3986 19.5795 22.7208C19.1976 22.0431 18.9979 21.2779 18.9999 20.5ZM20.0549 32C23.0089 30.0575 26.467 29.0224 30.0024 29.0224C33.5379 29.0224 36.9959 30.0575 39.9499 32H20.0549Z" fill="#84BE51"/>
<path d="M23.1451 16.355C23.1916 16.4019 23.2469 16.4391 23.3078 16.4644C23.3687 16.4898 23.4341 16.5029 23.5001 16.5029C23.5661 16.5029 23.6315 16.4898 23.6924 16.4644C23.7533 16.4391 23.8086 16.4019 23.8551 16.355L25.3551 14.855C25.4492 14.7608 25.5021 14.6332 25.5021 14.5C25.5021 14.3669 25.4492 14.2392 25.3551 14.145C25.2609 14.0508 25.1332 13.998 25.0001 13.998C24.8669 13.998 24.7392 14.0508 24.6451 14.145L23.5001 15.295L22.3551 14.145C22.2609 14.0508 22.1332 13.998 22.0001 13.998C21.8669 13.998 21.7392 14.0508 21.6451 14.145C21.5509 14.2392 21.498 14.3669 21.498 14.5C21.498 14.6332 21.5509 14.7608 21.6451 14.855L23.1451 16.355Z" fill="#84BE51"/>
<path d="M23.1451 19.855C23.1916 19.9019 23.2469 19.9391 23.3078 19.9644C23.3687 19.9898 23.4341 20.0029 23.5001 20.0029C23.5661 20.0029 23.6315 19.9898 23.6924 19.9644C23.7533 19.9391 23.8086 19.9019 23.8551 19.855L25.3551 18.355C25.4017 18.3084 25.4387 18.253 25.4639 18.1921C25.4892 18.1312 25.5021 18.0659 25.5021 18C25.5021 17.9341 25.4892 17.8688 25.4639 17.8079C25.4387 17.747 25.4017 17.6916 25.3551 17.645C25.3085 17.5984 25.2531 17.5614 25.1922 17.5362C25.1313 17.5109 25.066 17.498 25.0001 17.498C24.9342 17.498 24.8689 17.5109 24.808 17.5362C24.7471 17.5614 24.6917 17.5984 24.6451 17.645L23.5001 18.795L22.3551 17.645C22.3085 17.5984 22.2531 17.5614 22.1922 17.5362C22.1313 17.5109 22.066 17.498 22.0001 17.498C21.9342 17.498 21.8689 17.5109 21.808 17.5362C21.7471 17.5614 21.6917 17.5984 21.6451 17.645C21.5985 17.6916 21.5615 17.747 21.5363 17.8079C21.511 17.8688 21.498 17.9341 21.498 18C21.498 18.0659 21.511 18.1312 21.5363 18.1921C21.5615 18.253 21.5985 18.3084 21.6451 18.355L23.1451 19.855Z" fill="#84BE51"/>
<path d="M23.8551 23.355L25.3551 21.855C25.4492 21.7608 25.5021 21.6332 25.5021 21.5C25.5021 21.3669 25.4492 21.2392 25.3551 21.145C25.2609 21.0508 25.1332 20.998 25.0001 20.998C24.8669 20.998 24.7392 21.0508 24.6451 21.145L23.5001 22.295L22.3551 21.145C22.3085 21.0984 22.2531 21.0614 22.1922 21.0362C22.1313 21.0109 22.066 20.998 22.0001 20.998C21.9342 20.998 21.8689 21.0109 21.808 21.0362C21.7471 21.0614 21.6917 21.0984 21.6451 21.145C21.5985 21.1916 21.5615 21.247 21.5363 21.3079C21.511 21.3688 21.498 21.4341 21.498 21.5C21.498 21.5659 21.511 21.6312 21.5363 21.6921C21.5615 21.753 21.5985 21.8084 21.6451 21.855L23.1451 23.355C23.1916 23.4019 23.2469 23.4391 23.3078 23.4644C23.3687 23.4898 23.4341 23.5029 23.5001 23.5029C23.5661 23.5029 23.6315 23.4898 23.6924 23.4644C23.7533 23.4391 23.8086 23.4019 23.8551 23.355Z" fill="#84BE51"/>
<path d="M36.1451 16.355C36.1916 16.4019 36.2469 16.4391 36.3078 16.4644C36.3687 16.4898 36.4341 16.5029 36.5001 16.5029C36.5661 16.5029 36.6315 16.4898 36.6924 16.4644C36.7533 16.4391 36.8086 16.4019 36.8551 16.355L38.3551 14.855C38.4492 14.7608 38.5021 14.6332 38.5021 14.5C38.5021 14.3669 38.4492 14.2392 38.3551 14.145C38.2609 14.0508 38.1332 13.998 38.0001 13.998C37.8669 13.998 37.7392 14.0508 37.6451 14.145L36.5001 15.295L35.3551 14.145C35.2609 14.0508 35.1332 13.998 35.0001 13.998C34.8669 13.998 34.7392 14.0508 34.6451 14.145C34.5509 14.2392 34.498 14.3669 34.498 14.5C34.498 14.6332 34.5509 14.7608 34.6451 14.855L36.1451 16.355Z" fill="#84BE51"/>
<path d="M36.1451 19.855C36.1916 19.9019 36.2469 19.9391 36.3078 19.9644C36.3687 19.9898 36.4341 20.0029 36.5001 20.0029C36.5661 20.0029 36.6315 19.9898 36.6924 19.9644C36.7533 19.9391 36.8086 19.9019 36.8551 19.855L38.3551 18.355C38.4492 18.2608 38.5021 18.1332 38.5021 18C38.5021 17.8669 38.4492 17.7392 38.3551 17.645C38.2609 17.5508 38.1332 17.498 38.0001 17.498C37.8669 17.498 37.7392 17.5508 37.6451 17.645L36.5001 18.795L35.3551 17.645C35.2609 17.5508 35.1332 17.498 35.0001 17.498C34.8669 17.498 34.7392 17.5508 34.6451 17.645C34.5509 17.7392 34.498 17.8669 34.498 18C34.498 18.1332 34.5509 18.2608 34.6451 18.355L36.1451 19.855Z" fill="#84BE51"/>
<path d="M36.8551 23.355L38.3551 21.855C38.4492 21.7608 38.5021 21.6332 38.5021 21.5C38.5021 21.3669 38.4492 21.2392 38.3551 21.145C38.2609 21.0508 38.1332 20.998 38.0001 20.998C37.8669 20.998 37.7392 21.0508 37.6451 21.145L36.5001 22.295L35.3551 21.145C35.2609 21.0508 35.1332 20.998 35.0001 20.998C34.8669 20.998 34.7392 21.0508 34.6451 21.145C34.5509 21.2392 34.498 21.3669 34.498 21.5C34.498 21.6332 34.5509 21.7608 34.6451 21.855L36.1451 23.355C36.1916 23.4019 36.2469 23.4391 36.3078 23.4644C36.3687 23.4898 36.4341 23.5029 36.5001 23.5029C36.5661 23.5029 36.6315 23.4898 36.6924 23.4644C36.7533 23.4391 36.8086 23.4019 36.8551 23.355Z" fill="#84BE51"/>
</g>
<defs>
<clipPath id="clip0_37855_9681">
<rect width="24" height="24" fill="white" transform="translate(18 9)"/>
</clipPath>
</defs>
</svg>
