<svg width="202" height="40" viewBox="0 0 202 40" fill="none" xmlns="http://www.w3.org/2000/svg">
<rect x="0.5" y="0.5" width="201" height="39" rx="19.5" stroke="#1E6140"/>
<g clip-path="url(#clip0_25_1048)">
<path d="M70.6447 30.1181H70.5447C70.5447 30.2317 70.5898 30.3406 70.6701 30.4209C70.7504 30.5011 70.8593 30.5463 70.9728 30.5463C71.0863 30.5463 71.1952 30.5011 71.2755 30.4209C71.3558 30.3406 71.4009 30.2317 71.4009 30.1181L71.4009 30.118C71.4004 29.7115 71.2388 29.3219 70.9514 29.0344C70.6639 28.747 70.2743 28.5854 69.8678 28.5849H69.8677C69.7541 28.5849 69.6452 28.63 69.5649 28.7103C69.4847 28.7906 69.4396 28.8995 69.4396 29.013C69.4396 29.1265 69.4847 29.2354 69.5649 29.3157C69.6452 29.396 69.7541 29.4411 69.8677 29.4411V29.3411M70.6447 30.1181L70.5447 30.1182C70.5445 29.9387 70.473 29.7666 70.3461 29.6397C70.2192 29.5128 70.0471 29.4413 69.8676 29.4411L69.8677 29.3411M70.6447 30.1181C70.6444 29.9121 70.5625 29.7146 70.4168 29.569C70.2712 29.4233 70.0737 29.3414 69.8677 29.3411M70.6447 30.1181C70.6447 30.2052 70.6792 30.2886 70.7408 30.3501C70.8023 30.4117 70.8858 30.4463 70.9728 30.4463C71.0598 30.4463 71.1433 30.4117 71.2048 30.3501C71.2664 30.2886 71.3009 30.2052 71.3009 30.1181C71.3005 29.7381 71.1493 29.3738 70.8806 29.1052C70.612 28.8365 70.2477 28.6853 69.8677 28.6849C69.7807 28.6849 69.6972 28.7194 69.6357 28.781C69.5741 28.8425 69.5396 28.926 69.5396 29.013C69.5396 29.1 69.5741 29.1835 69.6357 29.245C69.6972 29.3066 69.7807 29.3411 69.8677 29.3411" fill="#84BE51" stroke="#84BE51" stroke-width="0.2"/>
<path d="M67.9576 27.7978V27.8978C68.0712 27.8978 68.1801 27.8527 68.2604 27.7724C68.3407 27.6921 68.3858 27.5832 68.3858 27.4697C68.3858 27.3561 68.3407 27.2472 68.2604 27.167C68.1801 27.0867 68.0712 27.0416 67.9576 27.0416L67.9575 27.0416L67.166 28.5896L67.266 28.5897C67.266 28.5897 67.266 28.5897 67.266 28.5897C67.2662 28.4063 67.3391 28.2304 67.4688 28.1007C67.5985 27.971 67.7743 27.898 67.9578 27.8978L67.9576 27.7978ZM67.9576 27.7978C68.0447 27.7978 68.1281 27.7632 68.1897 27.7017C68.2512 27.6402 68.2858 27.5567 68.2858 27.4697C68.2858 27.3827 68.2512 27.2992 68.1897 27.2377C68.1281 27.1761 68.0447 27.1416 67.9576 27.1416V27.7978Z" fill="#84BE51" stroke="#84BE51" stroke-width="0.2"/>
<path d="M64.1339 21.0266V21.0264C64.1339 20.9129 64.0888 20.804 64.0085 20.7237C63.9282 20.6434 63.8193 20.5983 63.7058 20.5983L63.7057 20.5983C63.3249 20.5986 62.9485 20.6798 62.6014 20.8366C62.3309 20.9587 62.0831 21.1246 61.8676 21.3271V21.0192C62.3115 20.5109 62.5484 19.8537 62.5302 19.1782C62.5117 18.4897 62.2296 17.8346 61.7422 17.348C61.6619 17.2678 61.5531 17.2227 61.4396 17.2227C61.326 17.2227 61.2172 17.2678 61.1369 17.348L61.1367 17.3481C60.6509 17.8355 60.3699 18.4903 60.3513 19.1782C60.3331 19.8532 60.5689 20.5101 61.0113 21.019V21.327C60.7959 21.1245 60.5481 20.9586 60.2777 20.8364C59.9306 20.6796 59.5542 20.5985 59.1734 20.5983H59.1733C59.0598 20.5983 58.9509 20.6434 58.8706 20.7237C58.7903 20.804 58.7452 20.9129 58.7452 21.0264L58.7452 21.0266C58.7463 21.6816 58.9857 22.3137 59.4188 22.8051C59.8324 23.2743 60.3956 23.5845 61.0113 23.684V24.3493C61.0113 24.4629 61.0564 24.5718 61.1367 24.652C61.217 24.7323 61.3259 24.7774 61.4395 24.7774C61.553 24.7774 61.6619 24.7323 61.7422 24.652C61.8225 24.5718 61.8676 24.4629 61.8676 24.3493V23.684C62.4833 23.5845 63.0466 23.2744 63.4603 22.8051C63.8934 22.3138 64.1328 21.6816 64.1339 21.0266ZM61.2075 17.4187C60.7397 17.888 60.4691 18.5185 60.4513 19.1809C60.4334 19.8433 60.6695 20.4874 61.1113 20.9812L61.2075 17.4187ZM61.2045 19.2535C61.2044 18.9372 61.2858 18.6271 61.4395 18.3527C61.5937 18.6272 61.6753 18.9375 61.6753 19.254C61.6753 19.5703 61.5938 19.8804 61.4399 20.1547C61.286 19.8802 61.2045 19.57 61.2045 19.2535ZM62.4065 21.9936C62.6301 21.7699 62.9068 21.6082 63.2095 21.5228C63.1242 21.8255 62.9625 22.1023 62.7389 22.3259C62.5154 22.5496 62.2386 22.7114 61.9359 22.7968C62.0213 22.4941 62.1829 22.2173 62.4065 21.9936ZM60.4725 21.9941C60.6961 22.2176 60.8577 22.4942 60.9431 22.7968C60.6406 22.7114 60.364 22.5497 60.1405 22.3262C59.9169 22.1027 59.7553 21.8261 59.6699 21.5236C59.9724 21.6089 60.249 21.7706 60.4725 21.9941Z" fill="#84BE51" stroke="#84BE51" stroke-width="0.2"/>
<path d="M56.2921 20.9999L56.2921 21C56.2921 22.0181 56.5939 23.0134 57.1596 23.86C57.7252 24.7065 58.5291 25.3664 59.4698 25.756C60.4104 26.1456 61.4454 26.2476 62.444 26.049C63.4426 25.8504 64.3598 25.3601 65.0797 24.6402C65.7997 23.9202 66.2899 23.003 66.4886 22.0044C66.6872 21.0058 66.5852 19.9708 66.1956 19.0302C65.8059 18.0896 65.1461 17.2856 64.2996 16.72C63.453 16.1544 62.4577 15.8525 61.4396 15.8525L61.4395 15.8525C60.0748 15.8541 58.7664 16.3969 57.8015 17.3619C56.8365 18.3269 56.2937 19.6352 56.2921 20.9999ZM61.4397 16.7088C62.2884 16.7088 63.118 16.9605 63.8237 17.432C64.5294 17.9035 65.0794 18.5737 65.4042 19.3578C65.729 20.1419 65.814 21.0048 65.6484 21.8372C65.4828 22.6696 65.0741 23.4342 64.474 24.0344C63.8738 24.6345 63.1092 25.0432 62.2768 25.2088C61.4443 25.3744 60.5815 25.2894 59.7974 24.9646C59.0133 24.6398 58.3431 24.0898 57.8715 23.3841C57.4 22.6784 57.1484 21.8488 57.1483 21.0001C57.1497 19.8624 57.6022 18.7716 58.4067 17.9671C59.2112 17.1626 60.3019 16.7101 61.4397 16.7088Z" fill="#84BE51" stroke="#84BE51" stroke-width="0.2"/>
<mask id="path-6-outside-1_25_1048" maskUnits="userSpaceOnUse" x="51.8545" y="8.85443" width="24" height="24" fill="black">
<rect fill="white" x="51.8545" y="8.85443" width="24" height="24"/>
<path d="M73.874 29.9812C73.8387 29.5399 73.666 29.1208 73.3801 28.7828C73.0942 28.4447 72.7096 28.2049 72.2802 28.0969C72.2802 28.0804 72.2802 28.0639 72.2802 28.0476C72.2795 27.5183 72.0794 27.0087 71.7198 26.6203C71.3602 26.2319 70.8675 25.9933 70.3398 25.9519C70.3229 25.8782 70.3023 25.8067 70.2779 25.7362C70.4828 24.1914 70.5921 22.6354 70.6053 21.0771V20.9229C70.6053 16.9813 69.6783 12.5175 69.5887 12.0954V10.1826C69.5887 10.0955 69.5541 10.0121 69.4926 9.95054C69.431 9.889 69.3476 9.85443 69.2606 9.85443H54.1992C54.1561 9.85441 54.1135 9.86288 54.0736 9.87936C54.0338 9.89584 53.9976 9.92001 53.9672 9.95048C53.9367 9.98096 53.9125 10.0171 53.896 10.057C53.8796 10.0968 53.8711 10.1395 53.8711 10.1826V12.0951C53.7813 12.5181 52.8545 16.9815 52.8545 20.9229V21.0771C52.8545 25.0185 53.7813 29.4819 53.8711 29.9046V31.8171C53.8711 31.8602 53.8796 31.9028 53.896 31.9427C53.9125 31.9825 53.9367 32.0187 53.9672 32.0491C53.9976 32.0796 54.0338 32.1038 54.0736 32.1203C54.1135 32.1367 54.1561 32.1452 54.1992 32.1452H74.8175C74.8606 32.1452 74.9033 32.1367 74.9431 32.1203C74.9829 32.1038 75.0191 32.0796 75.0496 32.0491C75.08 32.0187 75.1042 31.9825 75.1207 31.9427C75.1372 31.9028 75.1456 31.8602 75.1456 31.8171C75.1475 31.4176 75.0265 31.0272 74.799 30.6988C74.5715 30.3704 74.2486 30.1199 73.874 29.9812ZM54.5274 10.5107H68.9324V11.802H54.5274V10.5107ZM53.5107 20.9229C53.5107 17.4199 54.2579 13.4857 54.467 12.4582H68.9934C69.2015 13.4857 69.9496 17.4199 69.9496 20.9229V21.0771C69.9412 22.3365 69.8651 23.5945 69.7218 24.8458C69.4337 24.5633 69.0757 24.3625 68.6844 24.2641C68.2931 24.1657 67.8826 24.1732 67.4952 24.2858C67.1077 24.3984 66.7572 24.6121 66.4796 24.9049C66.202 25.1977 66.0073 25.5591 65.9156 25.9521C65.3882 25.9941 64.896 26.2331 64.5369 26.6215C64.1778 27.0099 63.978 27.5193 63.9774 28.0483C63.9774 28.0646 63.9774 28.0811 63.9774 28.0976C63.6223 28.1873 63.2965 28.3675 63.0318 28.6205C62.767 28.8735 62.5722 29.1908 62.4665 29.5414H54.4662C54.2579 28.5139 53.51 24.5797 53.51 21.0767L53.5107 20.9229ZM54.5274 30.198H61.9653C61.7472 30.346 61.5615 30.5367 61.4195 30.7587C61.2774 30.9807 61.182 31.2293 61.139 31.4893H54.5274V30.198ZM65.4091 31.4893C65.4746 31.3249 65.5879 31.1839 65.7343 31.0844C65.8807 30.9849 66.0536 30.9316 66.2306 30.9313C66.3176 30.9313 66.401 30.8967 66.4626 30.8352C66.5241 30.7737 66.5587 30.6902 66.5587 30.6032C66.5587 30.5162 66.5241 30.4327 66.4626 30.3712C66.401 30.3096 66.3176 30.2751 66.2306 30.2751C65.8787 30.2756 65.5376 30.3963 65.2637 30.6171C64.9897 30.8379 64.7994 31.1456 64.7242 31.4893H61.8086C61.868 31.2576 61.9905 31.0468 62.1624 30.8804C62.3343 30.7139 62.5489 30.5983 62.7824 30.5464C62.8577 30.5293 62.9245 30.4862 62.9712 30.4247C63.0179 30.3632 63.0414 30.2873 63.0376 30.2102L63.0354 30.174C63.0354 30.162 63.0335 30.1498 63.0335 30.1376C63.0352 29.7752 63.1724 29.4264 63.4182 29.16C63.6639 28.8935 64.0004 28.7286 64.3616 28.6976C64.4073 28.6939 64.4518 28.6807 64.4921 28.6588C64.5324 28.6368 64.5677 28.6067 64.5956 28.5703C64.6236 28.5338 64.6436 28.492 64.6543 28.4473C64.665 28.4027 64.6663 28.3563 64.658 28.3112C64.6415 28.2246 64.633 28.1368 64.6327 28.0487C64.6331 27.6652 64.7856 27.2975 65.0568 27.0264C65.3279 26.7552 65.6956 26.6027 66.0791 26.6023C66.1012 26.6023 66.1229 26.604 66.1447 26.6055L66.173 26.6074C66.258 26.6127 66.3417 26.5847 66.4065 26.5294C66.4712 26.4742 66.512 26.3959 66.5201 26.3111C66.5587 25.9117 66.7447 25.541 67.0418 25.2712C67.3389 25.0014 67.7258 24.852 68.1271 24.852C68.5284 24.852 68.9153 25.0014 69.2124 25.2712C69.5095 25.541 69.6955 25.9117 69.7342 26.3111C69.7422 26.3961 69.783 26.4747 69.848 26.53C69.9131 26.5854 69.9972 26.6131 70.0824 26.6074L70.1067 26.6057C70.1304 26.604 70.154 26.6021 70.178 26.6021C70.3904 26.6012 70.6004 26.6474 70.793 26.7372C70.9855 26.827 71.1558 26.9583 71.2916 27.1216C71.4274 27.285 71.5254 27.4764 71.5786 27.6821C71.6317 27.8878 71.6387 28.1027 71.5991 28.3114C71.5907 28.3565 71.592 28.4029 71.6027 28.4475C71.6134 28.4921 71.6334 28.534 71.6613 28.5704C71.6892 28.6069 71.7245 28.637 71.7648 28.659C71.8051 28.6809 71.8496 28.6941 71.8953 28.6978C72.2565 28.7288 72.593 28.8937 72.8388 29.1601C73.0845 29.4266 73.2218 29.7753 73.2236 30.1378C73.2236 30.1498 73.2236 30.1614 73.2219 30.1732L73.2194 30.2107C73.2157 30.2878 73.2391 30.3638 73.2858 30.4252C73.3324 30.4867 73.3992 30.5298 73.4744 30.5469C73.708 30.5989 73.9226 30.7145 74.0945 30.8809C74.2664 31.0473 74.3889 31.2581 74.4483 31.4899L65.4091 31.4893Z"/>
</mask>
<path d="M73.874 29.9812C73.8387 29.5399 73.666 29.1208 73.3801 28.7828C73.0942 28.4447 72.7096 28.2049 72.2802 28.0969C72.2802 28.0804 72.2802 28.0639 72.2802 28.0476C72.2795 27.5183 72.0794 27.0087 71.7198 26.6203C71.3602 26.2319 70.8675 25.9933 70.3398 25.9519C70.3229 25.8782 70.3023 25.8067 70.2779 25.7362C70.4828 24.1914 70.5921 22.6354 70.6053 21.0771V20.9229C70.6053 16.9813 69.6783 12.5175 69.5887 12.0954V10.1826C69.5887 10.0955 69.5541 10.0121 69.4926 9.95054C69.431 9.889 69.3476 9.85443 69.2606 9.85443H54.1992C54.1561 9.85441 54.1135 9.86288 54.0736 9.87936C54.0338 9.89584 53.9976 9.92001 53.9672 9.95048C53.9367 9.98096 53.9125 10.0171 53.896 10.057C53.8796 10.0968 53.8711 10.1395 53.8711 10.1826V12.0951C53.7813 12.5181 52.8545 16.9815 52.8545 20.9229V21.0771C52.8545 25.0185 53.7813 29.4819 53.8711 29.9046V31.8171C53.8711 31.8602 53.8796 31.9028 53.896 31.9427C53.9125 31.9825 53.9367 32.0187 53.9672 32.0491C53.9976 32.0796 54.0338 32.1038 54.0736 32.1203C54.1135 32.1367 54.1561 32.1452 54.1992 32.1452H74.8175C74.8606 32.1452 74.9033 32.1367 74.9431 32.1203C74.9829 32.1038 75.0191 32.0796 75.0496 32.0491C75.08 32.0187 75.1042 31.9825 75.1207 31.9427C75.1372 31.9028 75.1456 31.8602 75.1456 31.8171C75.1475 31.4176 75.0265 31.0272 74.799 30.6988C74.5715 30.3704 74.2486 30.1199 73.874 29.9812ZM54.5274 10.5107H68.9324V11.802H54.5274V10.5107ZM53.5107 20.9229C53.5107 17.4199 54.2579 13.4857 54.467 12.4582H68.9934C69.2015 13.4857 69.9496 17.4199 69.9496 20.9229V21.0771C69.9412 22.3365 69.8651 23.5945 69.7218 24.8458C69.4337 24.5633 69.0757 24.3625 68.6844 24.2641C68.2931 24.1657 67.8826 24.1732 67.4952 24.2858C67.1077 24.3984 66.7572 24.6121 66.4796 24.9049C66.202 25.1977 66.0073 25.5591 65.9156 25.9521C65.3882 25.9941 64.896 26.2331 64.5369 26.6215C64.1778 27.0099 63.978 27.5193 63.9774 28.0483C63.9774 28.0646 63.9774 28.0811 63.9774 28.0976C63.6223 28.1873 63.2965 28.3675 63.0318 28.6205C62.767 28.8735 62.5722 29.1908 62.4665 29.5414H54.4662C54.2579 28.5139 53.51 24.5797 53.51 21.0767L53.5107 20.9229ZM54.5274 30.198H61.9653C61.7472 30.346 61.5615 30.5367 61.4195 30.7587C61.2774 30.9807 61.182 31.2293 61.139 31.4893H54.5274V30.198ZM65.4091 31.4893C65.4746 31.3249 65.5879 31.1839 65.7343 31.0844C65.8807 30.9849 66.0536 30.9316 66.2306 30.9313C66.3176 30.9313 66.401 30.8967 66.4626 30.8352C66.5241 30.7737 66.5587 30.6902 66.5587 30.6032C66.5587 30.5162 66.5241 30.4327 66.4626 30.3712C66.401 30.3096 66.3176 30.2751 66.2306 30.2751C65.8787 30.2756 65.5376 30.3963 65.2637 30.6171C64.9897 30.8379 64.7994 31.1456 64.7242 31.4893H61.8086C61.868 31.2576 61.9905 31.0468 62.1624 30.8804C62.3343 30.7139 62.5489 30.5983 62.7824 30.5464C62.8577 30.5293 62.9245 30.4862 62.9712 30.4247C63.0179 30.3632 63.0414 30.2873 63.0376 30.2102L63.0354 30.174C63.0354 30.162 63.0335 30.1498 63.0335 30.1376C63.0352 29.7752 63.1724 29.4264 63.4182 29.16C63.6639 28.8935 64.0004 28.7286 64.3616 28.6976C64.4073 28.6939 64.4518 28.6807 64.4921 28.6588C64.5324 28.6368 64.5677 28.6067 64.5956 28.5703C64.6236 28.5338 64.6436 28.492 64.6543 28.4473C64.665 28.4027 64.6663 28.3563 64.658 28.3112C64.6415 28.2246 64.633 28.1368 64.6327 28.0487C64.6331 27.6652 64.7856 27.2975 65.0568 27.0264C65.3279 26.7552 65.6956 26.6027 66.0791 26.6023C66.1012 26.6023 66.1229 26.604 66.1447 26.6055L66.173 26.6074C66.258 26.6127 66.3417 26.5847 66.4065 26.5294C66.4712 26.4742 66.512 26.3959 66.5201 26.3111C66.5587 25.9117 66.7447 25.541 67.0418 25.2712C67.3389 25.0014 67.7258 24.852 68.1271 24.852C68.5284 24.852 68.9153 25.0014 69.2124 25.2712C69.5095 25.541 69.6955 25.9117 69.7342 26.3111C69.7422 26.3961 69.783 26.4747 69.848 26.53C69.9131 26.5854 69.9972 26.6131 70.0824 26.6074L70.1067 26.6057C70.1304 26.604 70.154 26.6021 70.178 26.6021C70.3904 26.6012 70.6004 26.6474 70.793 26.7372C70.9855 26.827 71.1558 26.9583 71.2916 27.1216C71.4274 27.285 71.5254 27.4764 71.5786 27.6821C71.6317 27.8878 71.6387 28.1027 71.5991 28.3114C71.5907 28.3565 71.592 28.4029 71.6027 28.4475C71.6134 28.4921 71.6334 28.534 71.6613 28.5704C71.6892 28.6069 71.7245 28.637 71.7648 28.659C71.8051 28.6809 71.8496 28.6941 71.8953 28.6978C72.2565 28.7288 72.593 28.8937 72.8388 29.1601C73.0845 29.4266 73.2218 29.7753 73.2236 30.1378C73.2236 30.1498 73.2236 30.1614 73.2219 30.1732L73.2194 30.2107C73.2157 30.2878 73.2391 30.3638 73.2858 30.4252C73.3324 30.4867 73.3992 30.5298 73.4744 30.5469C73.708 30.5989 73.9226 30.7145 74.0945 30.8809C74.2664 31.0473 74.3889 31.2581 74.4483 31.4899L65.4091 31.4893Z" fill="#84BE51"/>
<path d="M73.874 29.9812C73.8387 29.5399 73.666 29.1208 73.3801 28.7828C73.0942 28.4447 72.7096 28.2049 72.2802 28.0969C72.2802 28.0804 72.2802 28.0639 72.2802 28.0476C72.2795 27.5183 72.0794 27.0087 71.7198 26.6203C71.3602 26.2319 70.8675 25.9933 70.3398 25.9519C70.3229 25.8782 70.3023 25.8067 70.2779 25.7362C70.4828 24.1914 70.5921 22.6354 70.6053 21.0771V20.9229C70.6053 16.9813 69.6783 12.5175 69.5887 12.0954V10.1826C69.5887 10.0955 69.5541 10.0121 69.4926 9.95054C69.431 9.889 69.3476 9.85443 69.2606 9.85443H54.1992C54.1561 9.85441 54.1135 9.86288 54.0736 9.87936C54.0338 9.89584 53.9976 9.92001 53.9672 9.95048C53.9367 9.98096 53.9125 10.0171 53.896 10.057C53.8796 10.0968 53.8711 10.1395 53.8711 10.1826V12.0951C53.7813 12.5181 52.8545 16.9815 52.8545 20.9229V21.0771C52.8545 25.0185 53.7813 29.4819 53.8711 29.9046V31.8171C53.8711 31.8602 53.8796 31.9028 53.896 31.9427C53.9125 31.9825 53.9367 32.0187 53.9672 32.0491C53.9976 32.0796 54.0338 32.1038 54.0736 32.1203C54.1135 32.1367 54.1561 32.1452 54.1992 32.1452H74.8175C74.8606 32.1452 74.9033 32.1367 74.9431 32.1203C74.9829 32.1038 75.0191 32.0796 75.0496 32.0491C75.08 32.0187 75.1042 31.9825 75.1207 31.9427C75.1372 31.9028 75.1456 31.8602 75.1456 31.8171C75.1475 31.4176 75.0265 31.0272 74.799 30.6988C74.5715 30.3704 74.2486 30.1199 73.874 29.9812ZM54.5274 10.5107H68.9324V11.802H54.5274V10.5107ZM53.5107 20.9229C53.5107 17.4199 54.2579 13.4857 54.467 12.4582H68.9934C69.2015 13.4857 69.9496 17.4199 69.9496 20.9229V21.0771C69.9412 22.3365 69.8651 23.5945 69.7218 24.8458C69.4337 24.5633 69.0757 24.3625 68.6844 24.2641C68.2931 24.1657 67.8826 24.1732 67.4952 24.2858C67.1077 24.3984 66.7572 24.6121 66.4796 24.9049C66.202 25.1977 66.0073 25.5591 65.9156 25.9521C65.3882 25.9941 64.896 26.2331 64.5369 26.6215C64.1778 27.0099 63.978 27.5193 63.9774 28.0483C63.9774 28.0646 63.9774 28.0811 63.9774 28.0976C63.6223 28.1873 63.2965 28.3675 63.0318 28.6205C62.767 28.8735 62.5722 29.1908 62.4665 29.5414H54.4662C54.2579 28.5139 53.51 24.5797 53.51 21.0767L53.5107 20.9229ZM54.5274 30.198H61.9653C61.7472 30.346 61.5615 30.5367 61.4195 30.7587C61.2774 30.9807 61.182 31.2293 61.139 31.4893H54.5274V30.198ZM65.4091 31.4893C65.4746 31.3249 65.5879 31.1839 65.7343 31.0844C65.8807 30.9849 66.0536 30.9316 66.2306 30.9313C66.3176 30.9313 66.401 30.8967 66.4626 30.8352C66.5241 30.7737 66.5587 30.6902 66.5587 30.6032C66.5587 30.5162 66.5241 30.4327 66.4626 30.3712C66.401 30.3096 66.3176 30.2751 66.2306 30.2751C65.8787 30.2756 65.5376 30.3963 65.2637 30.6171C64.9897 30.8379 64.7994 31.1456 64.7242 31.4893H61.8086C61.868 31.2576 61.9905 31.0468 62.1624 30.8804C62.3343 30.7139 62.5489 30.5983 62.7824 30.5464C62.8577 30.5293 62.9245 30.4862 62.9712 30.4247C63.0179 30.3632 63.0414 30.2873 63.0376 30.2102L63.0354 30.174C63.0354 30.162 63.0335 30.1498 63.0335 30.1376C63.0352 29.7752 63.1724 29.4264 63.4182 29.16C63.6639 28.8935 64.0004 28.7286 64.3616 28.6976C64.4073 28.6939 64.4518 28.6807 64.4921 28.6588C64.5324 28.6368 64.5677 28.6067 64.5956 28.5703C64.6236 28.5338 64.6436 28.492 64.6543 28.4473C64.665 28.4027 64.6663 28.3563 64.658 28.3112C64.6415 28.2246 64.633 28.1368 64.6327 28.0487C64.6331 27.6652 64.7856 27.2975 65.0568 27.0264C65.3279 26.7552 65.6956 26.6027 66.0791 26.6023C66.1012 26.6023 66.1229 26.604 66.1447 26.6055L66.173 26.6074C66.258 26.6127 66.3417 26.5847 66.4065 26.5294C66.4712 26.4742 66.512 26.3959 66.5201 26.3111C66.5587 25.9117 66.7447 25.541 67.0418 25.2712C67.3389 25.0014 67.7258 24.852 68.1271 24.852C68.5284 24.852 68.9153 25.0014 69.2124 25.2712C69.5095 25.541 69.6955 25.9117 69.7342 26.3111C69.7422 26.3961 69.783 26.4747 69.848 26.53C69.9131 26.5854 69.9972 26.6131 70.0824 26.6074L70.1067 26.6057C70.1304 26.604 70.154 26.6021 70.178 26.6021C70.3904 26.6012 70.6004 26.6474 70.793 26.7372C70.9855 26.827 71.1558 26.9583 71.2916 27.1216C71.4274 27.285 71.5254 27.4764 71.5786 27.6821C71.6317 27.8878 71.6387 28.1027 71.5991 28.3114C71.5907 28.3565 71.592 28.4029 71.6027 28.4475C71.6134 28.4921 71.6334 28.534 71.6613 28.5704C71.6892 28.6069 71.7245 28.637 71.7648 28.659C71.8051 28.6809 71.8496 28.6941 71.8953 28.6978C72.2565 28.7288 72.593 28.8937 72.8388 29.1601C73.0845 29.4266 73.2218 29.7753 73.2236 30.1378C73.2236 30.1498 73.2236 30.1614 73.2219 30.1732L73.2194 30.2107C73.2157 30.2878 73.2391 30.3638 73.2858 30.4252C73.3324 30.4867 73.3992 30.5298 73.4744 30.5469C73.708 30.5989 73.9226 30.7145 74.0945 30.8809C74.2664 31.0473 74.3889 31.2581 74.4483 31.4899L65.4091 31.4893Z" stroke="#84BE51" stroke-width="0.4" mask="url(#path-6-outside-1_25_1048)"/>
<path d="M55.834 14.1438H58.5627C58.6762 14.1438 58.7851 14.0987 58.8654 14.0184C58.9457 13.9381 58.9908 13.8292 58.9908 13.7156C58.9908 13.6021 58.9457 13.4932 58.8654 13.4129C58.7851 13.3326 58.6762 13.2875 58.5627 13.2875H55.834C55.7204 13.2875 55.6115 13.3326 55.5313 13.4129C55.451 13.4932 55.4059 13.6021 55.4059 13.7156C55.4059 13.8292 55.451 13.9381 55.5313 14.0184C55.6115 14.0987 55.7204 14.1438 55.834 14.1438Z" fill="#84BE51" stroke="#84BE51" stroke-width="0.2"/>
<path d="M59.8789 14.1437H60.625C60.7385 14.1437 60.8474 14.0986 60.9277 14.0184C61.008 13.9381 61.0531 13.8292 61.0531 13.7156C61.0531 13.6021 61.008 13.4932 60.9277 13.4129C60.8474 13.3326 60.7385 13.2875 60.625 13.2875H59.8789C59.7654 13.2875 59.6565 13.3326 59.5762 13.4129C59.4959 13.4932 59.4508 13.6021 59.4508 13.7156C59.4508 13.8292 59.4959 13.9381 59.5762 14.0184C59.6565 14.0986 59.7654 14.1437 59.8789 14.1437Z" fill="#84BE51" stroke="#84BE51" stroke-width="0.2"/>
</g>
<path d="M90.0158 24.46H91.4298V28.086H89.7498V26H82.2318V28.086H80.5378L80.5518 24.46H80.9718C81.2891 24.4507 81.5598 24.3153 81.7838 24.054C82.0078 23.7927 82.1805 23.4147 82.3018 22.92C82.4325 22.4253 82.5258 21.898 82.5818 21.338C82.6471 20.7687 82.6938 20.092 82.7218 19.308L82.8338 16.2H90.0158V24.46ZM84.3178 19.476C84.2151 22.164 83.8605 23.8253 83.2538 24.46H88.2238V17.74H84.3878L84.3178 19.476ZM101.459 24.712C100.461 25.664 99.2008 26.14 97.6795 26.14C96.1582 26.14 94.8982 25.664 93.8995 24.712C92.9008 23.7507 92.4015 22.5467 92.4015 21.1C92.4015 19.6533 92.9008 18.454 93.8995 17.502C94.8982 16.5407 96.1582 16.06 97.6795 16.06C99.2008 16.06 100.461 16.536 101.459 17.488C102.458 18.44 102.957 19.644 102.957 21.1C102.957 22.556 102.458 23.76 101.459 24.712ZM95.2155 23.578C95.8688 24.222 96.6902 24.544 97.6795 24.544C98.6688 24.544 99.4902 24.222 100.143 23.578C100.797 22.9247 101.123 22.0987 101.123 21.1C101.123 20.1013 100.797 19.28 100.143 18.636C99.4902 17.9827 98.6688 17.656 97.6795 17.656C96.6902 17.656 95.8688 17.9827 95.2155 18.636C94.5622 19.28 94.2355 20.1013 94.2355 21.1C94.2355 22.0987 94.5622 22.9247 95.2155 23.578ZM104.984 26V16.2H112.614V17.698H106.776V20.106H109.674C110.85 20.106 111.741 20.3533 112.348 20.848C112.964 21.3333 113.272 22.038 113.272 22.962C113.272 23.9327 112.936 24.684 112.264 25.216C111.592 25.7387 110.635 26 109.394 26H104.984ZM106.776 24.6H109.296C110.724 24.6 111.438 24.0727 111.438 23.018C111.438 22.01 110.724 21.506 109.296 21.506H106.776V24.6ZM119.297 16.2C120.585 16.2 121.602 16.5127 122.349 17.138C123.095 17.754 123.469 18.6033 123.469 19.686C123.469 20.7593 123.095 21.6087 122.349 22.234C121.602 22.8593 120.585 23.172 119.297 23.172H117.085V26H115.265V16.2H119.297ZM119.213 21.632C120.006 21.632 120.608 21.464 121.019 21.128C121.429 20.792 121.635 20.3113 121.635 19.686C121.635 19.0607 121.429 18.58 121.019 18.244C120.608 17.908 120.006 17.74 119.213 17.74H117.085V21.632H119.213ZM125.204 26V16.2H126.996V23.158L132.26 16.2H133.954V26H132.162V19.056L126.898 26H125.204ZM143.156 20.904C144.435 21.2493 145.074 22.0427 145.074 23.284C145.074 24.1427 144.757 24.81 144.122 25.286C143.487 25.762 142.568 26 141.364 26H136.716V16.2H141.098C142.199 16.2 143.058 16.4193 143.674 16.858C144.29 17.2967 144.598 17.9173 144.598 18.72C144.598 19.7653 144.117 20.4933 143.156 20.904ZM138.508 17.6V20.386H140.944C142.148 20.386 142.75 19.924 142.75 19C142.75 18.0667 142.148 17.6 140.944 17.6H138.508ZM141.308 24.6C142.596 24.6 143.24 24.1147 143.24 23.144C143.24 22.192 142.596 21.716 141.308 21.716H138.508V24.6H141.308ZM154.623 26L153.643 23.732H148.743L147.777 26H145.901L150.311 16.2H152.103L156.527 26H154.623ZM149.359 22.304H153.041L151.193 18.02L149.359 22.304Z" fill="black"/>
<defs>
<clipPath id="clip0_25_1048">
<rect width="24" height="24" fill="white" transform="translate(52 9)"/>
</clipPath>
</defs>
</svg>
