<svg width="200" height="40" viewBox="0 0 200 40" fill="none" xmlns="http://www.w3.org/2000/svg">
<rect width="200" height="40" rx="20" fill="#E74E13"/>
<path d="M55.3998 15C55.0684 15 54.7998 15.2686 54.7998 15.6C54.7998 15.9314 55.0684 16.2 55.3998 16.2C55.7313 16.2 55.9998 15.9314 55.9998 15.6C55.9998 15.2686 55.7313 15 55.3998 15Z" fill="white"/>
<path d="M58.9999 15C58.6685 15 58.3999 15.2686 58.3999 15.6C58.3999 15.9314 58.6685 16.2 58.9999 16.2C59.3313 16.2 59.5999 15.9314 59.5999 15.6C59.5999 15.2686 59.3313 15 58.9999 15Z" fill="white"/>
<path d="M53.6001 26.6H54.4001V27.4H53.6001V26.6Z" fill="white"/>
<path d="M60 26.6H60.8V27.4H60V26.6Z" fill="white"/>
<path d="M53.6001 31.8C53.6001 31.906 53.6423 32.0078 53.7173 32.0828L54.5173 32.8828C54.5923 32.9578 54.694 33 54.8001 33H59.6001C59.7062 33 59.8079 32.9578 59.8829 32.8828L60.6829 32.0828C60.7579 32.0078 60.8001 31.906 60.8001 31.8V28.6C60.8001 28.3791 60.621 28.2 60.4001 28.2H54.0001C53.7792 28.2 53.6001 28.3791 53.6001 28.6V31.8ZM54.4001 29H60.0001V31.6344L59.4345 32.2H54.9657L54.4001 31.6344V29Z" fill="white"/>
<path d="M47.6 27H47.2C46.9791 27 46.8 27.1791 46.8 27.4V31.4C46.8 31.6209 46.9791 31.8 47.2 31.8H47.6V33H48.4V31.8H49.2V33H50V32.9725C50.774 32.8742 51.4854 32.4961 52 31.9096V33H52.8V25.8H61.6V33H62.4V30.2H64.4V33H65.2V30.2H65.6C65.8209 30.2 66 30.0209 66 29.8V28.2C66 27.9791 65.8209 27.8 65.6 27.8H65.2V24.2C65.1981 22.4336 63.7664 21.002 62 21H60V20.6488C60.6664 19.9949 61.0834 19.1287 61.1789 18.2H61.2C61.9072 18.1975 62.5287 17.7301 62.7272 17.0512C63.4512 16.5564 63.7684 15.6479 63.5098 14.81C63.251 13.9723 62.4768 13.4006 61.6 13.4H61.2V11.5916C61.2 10.5115 60.8721 9.76719 60.1965 9.3168C59.8865 9.10977 59.5223 8.99961 59.1496 9H58.8504C58.4778 8.99961 58.1135 9.10977 57.8035 9.3168C57.4383 9.56113 56.9617 9.56113 56.5965 9.3168C56.2865 9.10977 55.9223 8.99961 55.5496 9H55.2504C54.8777 8.99961 54.5135 9.10977 54.2035 9.3168C53.5279 9.76719 53.2 10.5111 53.2 11.5916V13.4H52.8C52.3658 13.4016 51.9442 13.5457 51.6 13.8104V11.3305C51.5983 10.7117 51.8442 10.118 52.2828 9.68164L51.7172 9.11719C51.1279 9.70313 50.7977 10.5006 50.8 11.3316V14.6C50.7979 15.1066 50.4777 15.5574 50 15.7264V11.3316C49.9983 10.7129 50.2442 10.1191 50.6828 9.68281L50.1172 9.11719C49.5279 9.70313 49.1977 10.5006 49.2 11.3316V15.8H48.4V11.3316C48.3983 10.7129 48.6442 10.1191 49.0828 9.68281L48.5172 9.11719C47.9279 9.70313 47.5977 10.5006 47.6 11.3316V15.7264C47.1223 15.5574 46.8022 15.1066 46.8 14.6V11.3316C46.7983 10.7129 47.0442 10.1191 47.4828 9.68281L46.9172 9.11719C46.3279 9.70313 45.9977 10.5006 46 11.3316V14.6C46.0012 15.55 46.6695 16.3686 47.6 16.56V27ZM48.4 18.2H49.2V27H48.4V18.2ZM50.8 28.6H52V29.4H50.8V28.6ZM52 25.4V27.8H50.7264C50.6055 27.4611 50.3389 27.1945 50 27.0736V24.2C50.0022 23.0301 50.8467 22.032 52 21.8359V25.4ZM48 31H47.6V27.8H49.6C49.8209 27.8 50 27.9791 50 28.2V30.6C50 30.8209 49.8209 31 49.6 31H48ZM50 32.1637V31.7264C50.4777 31.5574 50.7979 31.1066 50.8 30.6V30.2H51.9668C51.7943 31.2057 51.0059 31.9928 50 32.1637ZM52.8 25V21.8H53.6V25H52.8ZM54.5199 21.8C54.6717 22.3051 54.9629 22.757 55.36 23.1039L56.4944 25H54.4V21.8H54.5199ZM57.2 23C56.0959 22.9986 55.2014 22.1041 55.2 21V19.4C55.2 18.2955 56.0955 17.4 57.2 17.4C58.3045 17.4 59.2 18.2955 59.2 19.4V21C59.1986 22.1041 58.3041 22.9986 57.2 23ZM57.7129 23.7508L57.2 24.6188L56.6801 23.7492C56.8514 23.7824 57.0254 23.7994 57.2 23.8C57.3721 23.7992 57.5438 23.7828 57.7129 23.7508ZM65.2 29.4H62.4V28.6H65.2V29.4ZM64.4 24.2V27.8H62.4V21.8359C63.5533 22.032 64.3979 23.0301 64.4 24.2ZM61.6 21.8V25H60.8V21.8H61.6ZM60 21.8V25H57.9024L59.0092 23.1332C59.4229 22.7826 59.7262 22.3195 59.882 21.8H60ZM59.9973 19.3477C59.9715 17.8211 58.7266 16.5973 57.2 16.5973C55.6735 16.5973 54.4287 17.8211 54.4027 19.3477C54.1397 18.8742 54.0012 18.3416 54 17.8V14.2H60.4V17.8C60.3988 18.3416 60.2604 18.8742 59.9973 19.3477ZM61.2 17.4V15.8C61.6418 15.8 62 16.1582 62 16.6C62 17.0418 61.6418 17.4 61.2 17.4ZM61.6 14.2C62.0197 14.2002 62.4088 14.4197 62.626 14.7789C62.8432 15.1381 62.857 15.5846 62.6625 15.9564C62.4074 15.376 61.834 15.001 61.2 15V14.2H61.6ZM54.6473 9.98281C54.8258 9.86348 55.0358 9.79981 55.2504 9.8H55.5496C55.7645 9.79981 55.9744 9.86348 56.1527 9.98281C56.7867 10.4066 57.6135 10.4066 58.2473 9.98281C58.4258 9.86348 58.6358 9.79981 58.8504 9.8H59.1496C59.3645 9.79981 59.5744 9.86348 59.7528 9.98281C60.0305 10.1676 60.4 10.5359 60.4 11.5916V11.8H54V11.5916C54 10.5359 54.3695 10.1676 54.6473 9.98281ZM54 12.6H60.4V13.4H54V12.6ZM52.8 14.2H53.2V15C52.5686 15.0012 51.9971 15.3736 51.7408 15.9508C51.5426 15.5805 51.5545 15.1332 51.7719 14.7738C51.9893 14.4145 52.3801 14.1963 52.8 14.2ZM52.4 16.6C52.4 16.1582 52.7582 15.8 53.2 15.8V17.4C52.7582 17.4 52.4 17.0418 52.4 16.6ZM50.926 16.0855C51.0692 16.475 51.3295 16.8104 51.6713 17.0455C51.8676 17.7273 52.4904 18.1977 53.2 18.2H53.2213C53.3166 19.1287 53.7336 19.9949 54.4 20.6488V21H52.4C51.4803 21.0006 50.6055 21.3981 50 22.0904V16.56C50.3453 16.4869 50.6651 16.3232 50.926 16.0855V16.0855ZM49.2 17.4H48.4V16.6H49.2V17.4Z" fill="white"/>
<path d="M56.6845 18.3199L56.1157 18.8801C56.3802 19.208 56.7788 19.3988 57.2001 19.3988C57.6214 19.3988 58.02 19.208 58.2845 18.8801L57.7157 18.3199C57.6022 18.4945 57.4083 18.6 57.2001 18.6C56.9919 18.6 56.7979 18.4945 56.6845 18.3199Z" fill="white"/>
<path d="M73.126 18L77.536 8.2H79.328L83.752 18H81.848L78.054 9.166H78.782L75.002 18H73.126ZM75.156 15.732L75.646 14.304H80.938L81.428 15.732H75.156ZM85.2688 18V8.2H91.9188L91.9048 9.74H86.6268L87.0468 9.306L87.0608 18H85.2688ZM93.4443 18V8.2H97.4763C98.3443 8.2 99.0863 8.34 99.7023 8.62C100.328 8.9 100.808 9.30133 101.144 9.824C101.48 10.3467 101.648 10.9673 101.648 11.686C101.648 12.4047 101.48 13.0253 101.144 13.548C100.808 14.0707 100.328 14.472 99.7023 14.752C99.0863 15.032 98.3443 15.172 97.4763 15.172H94.4523L95.2643 14.318V18H93.4443ZM95.2643 14.514L94.4523 13.632H97.3923C98.1949 13.632 98.7969 13.464 99.1983 13.128C99.6089 12.7827 99.8143 12.302 99.8143 11.686C99.8143 11.0607 99.6089 10.58 99.1983 10.244C98.7969 9.908 98.1949 9.74 97.3923 9.74H94.4523L95.2643 8.844V14.514ZM108.057 18.14C107.291 18.14 106.587 18.014 105.943 17.762C105.299 17.51 104.739 17.16 104.263 16.712C103.787 16.2547 103.418 15.7227 103.157 15.116C102.895 14.5 102.765 13.828 102.765 13.1C102.765 12.372 102.895 11.7047 103.157 11.098C103.418 10.482 103.787 9.95 104.263 9.502C104.739 9.04467 105.299 8.69 105.943 8.438C106.587 8.186 107.287 8.06 108.043 8.06C108.808 8.06 109.508 8.186 110.143 8.438C110.787 8.69 111.347 9.04467 111.823 9.502C112.299 9.95 112.667 10.482 112.929 11.098C113.19 11.7047 113.321 12.372 113.321 13.1C113.321 13.828 113.19 14.5 112.929 15.116C112.667 15.732 112.299 16.264 111.823 16.712C111.347 17.16 110.787 17.51 110.143 17.762C109.508 18.014 108.813 18.14 108.057 18.14ZM108.043 16.544C108.537 16.544 108.995 16.46 109.415 16.292C109.835 16.124 110.199 15.886 110.507 15.578C110.815 15.2607 111.053 14.8967 111.221 14.486C111.398 14.066 111.487 13.604 111.487 13.1C111.487 12.596 111.398 12.1387 111.221 11.728C111.053 11.308 110.815 10.944 110.507 10.636C110.199 10.3187 109.835 10.076 109.415 9.908C108.995 9.74 108.537 9.656 108.043 9.656C107.548 9.656 107.091 9.74 106.671 9.908C106.26 10.076 105.896 10.3187 105.579 10.636C105.271 10.944 105.028 11.308 104.851 11.728C104.683 12.1387 104.599 12.596 104.599 13.1C104.599 13.5947 104.683 14.052 104.851 14.472C105.028 14.892 105.271 15.2607 105.579 15.578C105.887 15.886 106.251 16.124 106.671 16.292C107.091 16.46 107.548 16.544 108.043 16.544ZM122.221 8.2H124.041V18H122.221V8.2ZM117.153 18H115.333V8.2H117.153V18ZM122.361 13.8H116.999V12.246H122.361V13.8ZM131.34 18.14C130.575 18.14 129.87 18.014 129.226 17.762C128.582 17.51 128.022 17.16 127.546 16.712C127.07 16.2547 126.701 15.7227 126.44 15.116C126.179 14.5 126.048 13.828 126.048 13.1C126.048 12.372 126.179 11.7047 126.44 11.098C126.701 10.482 127.07 9.95 127.546 9.502C128.022 9.04467 128.582 8.69 129.226 8.438C129.87 8.186 130.57 8.06 131.326 8.06C132.091 8.06 132.791 8.186 133.426 8.438C134.07 8.69 134.63 9.04467 135.106 9.502C135.582 9.95 135.951 10.482 136.212 11.098C136.473 11.7047 136.604 12.372 136.604 13.1C136.604 13.828 136.473 14.5 136.212 15.116C135.951 15.732 135.582 16.264 135.106 16.712C134.63 17.16 134.07 17.51 133.426 17.762C132.791 18.014 132.096 18.14 131.34 18.14ZM131.326 16.544C131.821 16.544 132.278 16.46 132.698 16.292C133.118 16.124 133.482 15.886 133.79 15.578C134.098 15.2607 134.336 14.8967 134.504 14.486C134.681 14.066 134.77 13.604 134.77 13.1C134.77 12.596 134.681 12.1387 134.504 11.728C134.336 11.308 134.098 10.944 133.79 10.636C133.482 10.3187 133.118 10.076 132.698 9.908C132.278 9.74 131.821 9.656 131.326 9.656C130.831 9.656 130.374 9.74 129.954 9.908C129.543 10.076 129.179 10.3187 128.862 10.636C128.554 10.944 128.311 11.308 128.134 11.728C127.966 12.1387 127.882 12.596 127.882 13.1C127.882 13.5947 127.966 14.052 128.134 14.472C128.311 14.892 128.554 15.2607 128.862 15.578C129.17 15.886 129.534 16.124 129.954 16.292C130.374 16.46 130.831 16.544 131.326 16.544ZM138.63 18V8.2H140.114L144.412 15.354H143.614L147.842 8.2H149.326L149.354 18H147.618L147.604 10.902H147.968L144.384 16.88H143.572L139.932 10.902H140.352V18H138.63ZM152.237 16.46C152.75 16.6373 153.203 16.684 153.595 16.6C153.987 16.516 154.337 16.2313 154.645 15.746L155.121 15.004L155.303 14.808L158.719 8.2H160.511L156.255 16.11C155.909 16.7727 155.499 17.2767 155.023 17.622C154.547 17.9673 154.033 18.1587 153.483 18.196C152.941 18.2427 152.377 18.14 151.789 17.888L152.237 16.46ZM155.261 16.376L150.893 8.2H152.839L156.255 14.976L155.261 16.376ZM74.386 33V23.2H78.768C79.8693 23.2 80.728 23.4193 81.344 23.858C81.96 24.2873 82.268 24.908 82.268 25.72C82.268 26.5227 81.974 27.1433 81.386 27.582C80.798 28.0113 80.0233 28.226 79.062 28.226L79.314 27.722C80.406 27.722 81.2507 27.9413 81.848 28.38C82.4453 28.8187 82.744 29.4533 82.744 30.284C82.744 31.1333 82.4313 31.8007 81.806 32.286C81.1807 32.762 80.2567 33 79.034 33H74.386ZM76.178 31.6H78.978C79.6127 31.6 80.0933 31.4833 80.42 31.25C80.7467 31.0073 80.91 30.6387 80.91 30.144C80.91 29.6493 80.7467 29.29 80.42 29.066C80.0933 28.8327 79.6127 28.716 78.978 28.716H76.178V31.6ZM76.178 27.386H78.614C79.202 27.386 79.65 27.2693 79.958 27.036C80.266 26.7933 80.42 26.448 80.42 26C80.42 25.5333 80.266 25.1833 79.958 24.95C79.65 24.7167 79.202 24.6 78.614 24.6H76.178V27.386ZM88.7005 33V23.2H97.3665V33H95.5745V24.292L95.9945 24.74H90.0725L90.4925 24.292V33H88.7005ZM104.68 33.14C103.914 33.14 103.21 33.014 102.566 32.762C101.922 32.51 101.362 32.16 100.886 31.712C100.41 31.2547 100.041 30.7227 99.7798 30.116C99.5185 29.5 99.3878 28.828 99.3878 28.1C99.3878 27.372 99.5185 26.7047 99.7798 26.098C100.041 25.482 100.41 24.95 100.886 24.502C101.362 24.0447 101.922 23.69 102.566 23.438C103.21 23.186 103.91 23.06 104.666 23.06C105.431 23.06 106.131 23.186 106.766 23.438C107.41 23.69 107.97 24.0447 108.446 24.502C108.922 24.95 109.29 25.482 109.552 26.098C109.813 26.7047 109.944 27.372 109.944 28.1C109.944 28.828 109.813 29.5 109.552 30.116C109.29 30.732 108.922 31.264 108.446 31.712C107.97 32.16 107.41 32.51 106.766 32.762C106.131 33.014 105.436 33.14 104.68 33.14ZM104.666 31.544C105.16 31.544 105.618 31.46 106.038 31.292C106.458 31.124 106.822 30.886 107.13 30.578C107.438 30.2607 107.676 29.8967 107.844 29.486C108.021 29.066 108.11 28.604 108.11 28.1C108.11 27.596 108.021 27.1387 107.844 26.728C107.676 26.308 107.438 25.944 107.13 25.636C106.822 25.3187 106.458 25.076 106.038 24.908C105.618 24.74 105.16 24.656 104.666 24.656C104.171 24.656 103.714 24.74 103.294 24.908C102.883 25.076 102.519 25.3187 102.202 25.636C101.894 25.944 101.651 26.308 101.474 26.728C101.306 27.1387 101.222 27.596 101.222 28.1C101.222 28.5947 101.306 29.052 101.474 29.472C101.651 29.892 101.894 30.2607 102.202 30.578C102.51 30.886 102.874 31.124 103.294 31.292C103.714 31.46 104.171 31.544 104.666 31.544ZM111.97 33V23.2H113.454L117.752 30.354H116.954L121.182 23.2H122.666L122.694 33H120.958L120.944 25.902H121.308L117.724 31.88H116.912L113.272 25.902H113.692V33H111.97ZM125.45 33V23.2H127.242V33H125.45ZM135.847 29.192C135.334 29.4067 134.835 29.5653 134.349 29.668C133.864 29.7707 133.393 29.822 132.935 29.822C131.685 29.822 130.719 29.5233 130.037 28.926C129.365 28.3193 129.029 27.4513 129.029 26.322V23.2H130.835V26.126C130.835 26.8167 131.036 27.344 131.437 27.708C131.839 28.072 132.413 28.254 133.159 28.254C133.607 28.254 134.055 28.2027 134.503 28.1C134.961 27.9973 135.399 27.8387 135.819 27.624L135.847 29.192ZM135.567 33V23.2H137.373V33H135.567Z" fill="white"/>
</svg>
