<svg width="200" height="40" viewBox="0 0 200 40" fill="none" xmlns="http://www.w3.org/2000/svg">
<rect x="0.5" y="0.5" width="199" height="39" rx="19.5" stroke="#1E6140"/>
<g clip-path="url(#clip0_37856_9682)">
<path d="M55.3998 15C55.0684 15 54.7998 15.2686 54.7998 15.6C54.7998 15.9314 55.0684 16.2 55.3998 16.2C55.7313 16.2 55.9998 15.9314 55.9998 15.6C55.9998 15.2686 55.7313 15 55.3998 15Z" fill="#84BE51"/>
<path d="M58.9999 15C58.6685 15 58.3999 15.2686 58.3999 15.6C58.3999 15.9314 58.6685 16.2 58.9999 16.2C59.3313 16.2 59.5999 15.9314 59.5999 15.6C59.5999 15.2686 59.3313 15 58.9999 15Z" fill="#84BE51"/>
<path d="M53.6001 26.6H54.4001V27.4H53.6001V26.6Z" fill="#84BE51"/>
<path d="M60 26.6H60.8V27.4H60V26.6Z" fill="#84BE51"/>
<path d="M53.6001 31.8C53.6001 31.906 53.6423 32.0078 53.7173 32.0828L54.5173 32.8828C54.5923 32.9578 54.694 33 54.8001 33H59.6001C59.7062 33 59.8079 32.9578 59.8829 32.8828L60.6829 32.0828C60.7579 32.0078 60.8001 31.906 60.8001 31.8V28.6C60.8001 28.3791 60.621 28.2 60.4001 28.2H54.0001C53.7792 28.2 53.6001 28.3791 53.6001 28.6V31.8ZM54.4001 29H60.0001V31.6344L59.4345 32.2H54.9657L54.4001 31.6344V29Z" fill="#84BE51"/>
<path d="M47.6 27H47.2C46.9791 27 46.8 27.1791 46.8 27.4V31.4C46.8 31.6209 46.9791 31.8 47.2 31.8H47.6V33H48.4V31.8H49.2V33H50V32.9725C50.774 32.8742 51.4854 32.4961 52 31.9096V33H52.8V25.8H61.6V33H62.4V30.2H64.4V33H65.2V30.2H65.6C65.8209 30.2 66 30.0209 66 29.8V28.2C66 27.9791 65.8209 27.8 65.6 27.8H65.2V24.2C65.1981 22.4336 63.7664 21.002 62 21H60V20.6488C60.6664 19.9949 61.0834 19.1287 61.1789 18.2H61.2C61.9072 18.1975 62.5287 17.7301 62.7272 17.0512C63.4512 16.5564 63.7684 15.6479 63.5098 14.81C63.251 13.9723 62.4768 13.4006 61.6 13.4H61.2V11.5916C61.2 10.5115 60.8721 9.76719 60.1965 9.3168C59.8865 9.10977 59.5223 8.99961 59.1496 9H58.8504C58.4778 8.99961 58.1135 9.10977 57.8035 9.3168C57.4383 9.56113 56.9617 9.56113 56.5965 9.3168C56.2865 9.10977 55.9223 8.99961 55.5496 9H55.2504C54.8777 8.99961 54.5135 9.10977 54.2035 9.3168C53.5279 9.76719 53.2 10.5111 53.2 11.5916V13.4H52.8C52.3658 13.4016 51.9442 13.5457 51.6 13.8104V11.3305C51.5983 10.7117 51.8442 10.118 52.2828 9.68164L51.7172 9.11719C51.1279 9.70313 50.7977 10.5006 50.8 11.3316V14.6C50.7979 15.1066 50.4777 15.5574 50 15.7264V11.3316C49.9983 10.7129 50.2442 10.1191 50.6828 9.68281L50.1172 9.11719C49.5279 9.70313 49.1977 10.5006 49.2 11.3316V15.8H48.4V11.3316C48.3983 10.7129 48.6442 10.1191 49.0828 9.68281L48.5172 9.11719C47.9279 9.70313 47.5977 10.5006 47.6 11.3316V15.7264C47.1223 15.5574 46.8022 15.1066 46.8 14.6V11.3316C46.7983 10.7129 47.0442 10.1191 47.4828 9.68281L46.9172 9.11719C46.3279 9.70313 45.9977 10.5006 46 11.3316V14.6C46.0012 15.55 46.6695 16.3686 47.6 16.56V27ZM48.4 18.2H49.2V27H48.4V18.2ZM50.8 28.6H52V29.4H50.8V28.6ZM52 25.4V27.8H50.7264C50.6055 27.4611 50.3389 27.1945 50 27.0736V24.2C50.0022 23.0301 50.8467 22.032 52 21.8359V25.4ZM48 31H47.6V27.8H49.6C49.8209 27.8 50 27.9791 50 28.2V30.6C50 30.8209 49.8209 31 49.6 31H48ZM50 32.1637V31.7264C50.4777 31.5574 50.7979 31.1066 50.8 30.6V30.2H51.9668C51.7944 31.2057 51.0059 31.9928 50 32.1637ZM52.8 25V21.8H53.6V25H52.8ZM54.5199 21.8C54.6717 22.3051 54.9629 22.757 55.36 23.1039L56.4944 25H54.4V21.8H54.5199ZM57.2 23C56.0959 22.9986 55.2014 22.1041 55.2 21V19.4C55.2 18.2955 56.0955 17.4 57.2 17.4C58.3045 17.4 59.2 18.2955 59.2 19.4V21C59.1986 22.1041 58.3041 22.9986 57.2 23ZM57.7129 23.7508L57.2 24.6188L56.6801 23.7492C56.8514 23.7824 57.0254 23.7994 57.2 23.8C57.3721 23.7992 57.5438 23.7828 57.7129 23.7508ZM65.2 29.4H62.4V28.6H65.2V29.4ZM64.4 24.2V27.8H62.4V21.8359C63.5533 22.032 64.3979 23.0301 64.4 24.2ZM61.6 21.8V25H60.8V21.8H61.6ZM60 21.8V25H57.9024L59.0092 23.1332C59.4229 22.7826 59.7262 22.3195 59.882 21.8H60ZM59.9973 19.3477C59.9715 17.8211 58.7266 16.5973 57.2 16.5973C55.6735 16.5973 54.4287 17.8211 54.4027 19.3477C54.1397 18.8742 54.0012 18.3416 54 17.8V14.2H60.4V17.8C60.3988 18.3416 60.2604 18.8742 59.9973 19.3477ZM61.2 17.4V15.8C61.6418 15.8 62 16.1582 62 16.6C62 17.0418 61.6418 17.4 61.2 17.4ZM61.6 14.2C62.0197 14.2002 62.4088 14.4197 62.626 14.7789C62.8432 15.1381 62.857 15.5846 62.6625 15.9564C62.4074 15.376 61.834 15.001 61.2 15V14.2H61.6ZM54.6473 9.98281C54.8258 9.86348 55.0358 9.79981 55.2504 9.8H55.5496C55.7645 9.79981 55.9744 9.86348 56.1528 9.98281C56.7867 10.4066 57.6135 10.4066 58.2473 9.98281C58.4258 9.86348 58.6358 9.79981 58.8504 9.8H59.1496C59.3645 9.79981 59.5744 9.86348 59.7528 9.98281C60.0305 10.1676 60.4 10.5359 60.4 11.5916V11.8H54V11.5916C54 10.5359 54.3695 10.1676 54.6473 9.98281ZM54 12.6H60.4V13.4H54V12.6ZM52.8 14.2H53.2V15C52.5686 15.0012 51.9971 15.3736 51.7408 15.9508C51.5426 15.5805 51.5545 15.1332 51.7719 14.7738C51.9893 14.4145 52.3801 14.1963 52.8 14.2ZM52.4 16.6C52.4 16.1582 52.7582 15.8 53.2 15.8V17.4C52.7582 17.4 52.4 17.0418 52.4 16.6ZM50.926 16.0855C51.0692 16.475 51.3295 16.8104 51.6713 17.0455C51.8676 17.7273 52.4904 18.1977 53.2 18.2H53.2213C53.3166 19.1287 53.7336 19.9949 54.4 20.6488V21H52.4C51.4803 21.0006 50.6055 21.3981 50 22.0904V16.56C50.3453 16.4869 50.6651 16.3232 50.926 16.0855ZM49.2 17.4H48.4V16.6H49.2V17.4Z" fill="#84BE51"/>
<path d="M56.6845 18.3199L56.1157 18.8801C56.3802 19.208 56.7788 19.3988 57.2001 19.3988C57.6214 19.3988 58.02 19.208 58.2845 18.8801L57.7157 18.3199C57.6022 18.4945 57.4083 18.6 57.2001 18.6C56.9919 18.6 56.7979 18.4945 56.6845 18.3199Z" fill="#84BE51"/>
</g>
<path d="M80.868 15.732H75.968L75.002 18H73.126L77.536 8.2H79.328L83.752 18H81.848L80.868 15.732ZM80.266 14.304L78.418 10.02L76.584 14.304H80.266ZM91.9048 9.74H87.0468L87.0608 18H85.2688V8.2H91.9188L91.9048 9.74ZM97.4763 8.2C98.3256 8.2 99.0629 8.34 99.6883 8.62C100.323 8.9 100.808 9.30133 101.144 9.824C101.48 10.3467 101.648 10.9673 101.648 11.686C101.648 12.3953 101.48 13.016 101.144 13.548C100.808 14.0707 100.323 14.472 99.6883 14.752C99.0629 15.032 98.3256 15.172 97.4763 15.172H95.2643V18H93.4443V8.2H97.4763ZM97.3923 13.632C98.1856 13.632 98.7876 13.464 99.1983 13.128C99.6089 12.792 99.8143 12.3113 99.8143 11.686C99.8143 11.0607 99.6089 10.58 99.1983 10.244C98.7876 9.908 98.1856 9.74 97.3923 9.74H95.2643V13.632H97.3923ZM108.043 18.14C107.044 18.14 106.143 17.9253 105.341 17.496C104.538 17.0573 103.908 16.4553 103.451 15.69C102.993 14.9153 102.765 14.052 102.765 13.1C102.765 12.148 102.993 11.2893 103.451 10.524C103.908 9.74933 104.538 9.14733 105.341 8.718C106.143 8.27933 107.044 8.06 108.043 8.06C109.041 8.06 109.942 8.27933 110.745 8.718C111.547 9.14733 112.177 9.74467 112.635 10.51C113.092 11.2753 113.321 12.1387 113.321 13.1C113.321 14.0613 113.092 14.9247 112.635 15.69C112.177 16.4553 111.547 17.0573 110.745 17.496C109.942 17.9253 109.041 18.14 108.043 18.14ZM108.043 16.544C108.696 16.544 109.284 16.3993 109.807 16.11C110.329 15.8113 110.74 15.4007 111.039 14.878C111.337 14.346 111.487 13.7533 111.487 13.1C111.487 12.4467 111.337 11.8587 111.039 11.336C110.74 10.804 110.329 10.3933 109.807 10.104C109.284 9.80533 108.696 9.656 108.043 9.656C107.389 9.656 106.801 9.80533 106.279 10.104C105.756 10.3933 105.345 10.804 105.047 11.336C104.748 11.8587 104.599 12.4467 104.599 13.1C104.599 13.7533 104.748 14.346 105.047 14.878C105.345 15.4007 105.756 15.8113 106.279 16.11C106.801 16.3993 107.389 16.544 108.043 16.544ZM124.041 8.2V18H122.221V13.8H117.153V18H115.333V8.2H117.153V12.246H122.221V8.2H124.041ZM131.326 18.14C130.327 18.14 129.427 17.9253 128.624 17.496C127.821 17.0573 127.191 16.4553 126.734 15.69C126.277 14.9153 126.048 14.052 126.048 13.1C126.048 12.148 126.277 11.2893 126.734 10.524C127.191 9.74933 127.821 9.14733 128.624 8.718C129.427 8.27933 130.327 8.06 131.326 8.06C132.325 8.06 133.225 8.27933 134.028 8.718C134.831 9.14733 135.461 9.74467 135.918 10.51C136.375 11.2753 136.604 12.1387 136.604 13.1C136.604 14.0613 136.375 14.9247 135.918 15.69C135.461 16.4553 134.831 17.0573 134.028 17.496C133.225 17.9253 132.325 18.14 131.326 18.14ZM131.326 16.544C131.979 16.544 132.567 16.3993 133.09 16.11C133.613 15.8113 134.023 15.4007 134.322 14.878C134.621 14.346 134.77 13.7533 134.77 13.1C134.77 12.4467 134.621 11.8587 134.322 11.336C134.023 10.804 133.613 10.3933 133.09 10.104C132.567 9.80533 131.979 9.656 131.326 9.656C130.673 9.656 130.085 9.80533 129.562 10.104C129.039 10.3933 128.629 10.804 128.33 11.336C128.031 11.8587 127.882 12.4467 127.882 13.1C127.882 13.7533 128.031 14.346 128.33 14.878C128.629 15.4007 129.039 15.8113 129.562 16.11C130.085 16.3993 130.673 16.544 131.326 16.544ZM147.618 18L147.604 11.504L144.384 16.88H143.572L140.352 11.588V18H138.63V8.2H140.128L144.006 14.682L147.842 8.2H149.326L149.354 18H147.618ZM160.511 8.2L156.255 16.11C155.881 16.81 155.433 17.3373 154.911 17.692C154.397 18.0373 153.837 18.21 153.231 18.21C152.745 18.21 152.265 18.1073 151.789 17.902L152.237 16.474C152.619 16.5953 152.937 16.656 153.189 16.656C153.777 16.656 154.262 16.3527 154.645 15.746L154.799 15.508L150.893 8.2H152.839L155.737 13.954L158.719 8.2H160.511ZM80.826 27.904C81.4513 28.072 81.9273 28.3613 82.254 28.772C82.5807 29.1733 82.744 29.6773 82.744 30.284C82.744 31.1427 82.4267 31.81 81.792 32.286C81.1573 32.762 80.238 33 79.034 33H74.386V23.2H78.768C79.8693 23.2 80.728 23.4193 81.344 23.858C81.96 24.2967 82.268 24.9173 82.268 25.72C82.268 26.2333 82.142 26.6767 81.89 27.05C81.6473 27.4233 81.2927 27.708 80.826 27.904ZM76.178 27.386H78.614C79.202 27.386 79.65 27.2693 79.958 27.036C80.266 26.8027 80.42 26.4573 80.42 26C80.42 25.5427 80.266 25.1973 79.958 24.964C79.65 24.7213 79.202 24.6 78.614 24.6H76.178V27.386ZM78.978 31.6C80.266 31.6 80.91 31.1147 80.91 30.144C80.91 29.192 80.266 28.716 78.978 28.716H76.178V31.6H78.978ZM97.3665 23.2V33H95.5745V24.74H90.4925V33H88.7005V23.2H97.3665ZM104.666 33.14C103.667 33.14 102.766 32.9253 101.964 32.496C101.161 32.0573 100.531 31.4553 100.074 30.69C99.6165 29.9153 99.3878 29.052 99.3878 28.1C99.3878 27.148 99.6165 26.2893 100.074 25.524C100.531 24.7493 101.161 24.1473 101.964 23.718C102.766 23.2793 103.667 23.06 104.666 23.06C105.664 23.06 106.565 23.2793 107.368 23.718C108.17 24.1473 108.8 24.7447 109.258 25.51C109.715 26.2753 109.944 27.1387 109.944 28.1C109.944 29.0613 109.715 29.9247 109.258 30.69C108.8 31.4553 108.17 32.0573 107.368 32.496C106.565 32.9253 105.664 33.14 104.666 33.14ZM104.666 31.544C105.319 31.544 105.907 31.3993 106.43 31.11C106.952 30.8113 107.363 30.4007 107.662 29.878C107.96 29.346 108.11 28.7533 108.11 28.1C108.11 27.4467 107.96 26.8587 107.662 26.336C107.363 25.804 106.952 25.3933 106.43 25.104C105.907 24.8053 105.319 24.656 104.666 24.656C104.012 24.656 103.424 24.8053 102.902 25.104C102.379 25.3933 101.968 25.804 101.67 26.336C101.371 26.8587 101.222 27.4467 101.222 28.1C101.222 28.7533 101.371 29.346 101.67 29.878C101.968 30.4007 102.379 30.8113 102.902 31.11C103.424 31.3993 104.012 31.544 104.666 31.544ZM120.958 33L120.944 26.504L117.724 31.88H116.912L113.692 26.588V33H111.97V23.2H113.468L117.346 29.682L121.182 23.2H122.666L122.694 33H120.958ZM125.45 23.2H127.242V33H125.45V23.2ZM137.373 23.2V33H135.567V29.304C134.643 29.6493 133.766 29.822 132.935 29.822C131.685 29.822 130.719 29.5233 130.037 28.926C129.365 28.3193 129.029 27.4513 129.029 26.322V23.2H130.835V26.126C130.835 26.8167 131.036 27.344 131.437 27.708C131.839 28.072 132.413 28.254 133.159 28.254C134.009 28.254 134.811 28.0813 135.567 27.736V23.2H137.373Z" fill="black"/>
<defs>
<clipPath id="clip0_37856_9682">
<rect width="24" height="24" fill="white" transform="translate(44 9)"/>
</clipPath>
</defs>
</svg>
