<svg width="20" height="20" viewBox="0 0 20 20" fill="none" xmlns="http://www.w3.org/2000/svg">
<path d="M13.8908 12.5395C13.5131 12.5395 13.207 12.2334 13.207 11.8557V11.5597C13.207 11.1821 13.5131 10.876 13.8908 10.876C14.2684 10.876 14.5746 11.1821 14.5746 11.5597V11.8557C14.5746 12.2334 14.2684 12.5395 13.8908 12.5395Z" fill="#84C551"/>
<path d="M10.7995 13.6505H5.1447C4.76705 13.6505 4.46094 13.3444 4.46094 12.9667C4.46094 12.5891 4.76705 12.283 5.1447 12.283H10.7995C11.1771 12.283 11.4832 12.5891 11.4832 12.9667C11.4832 13.3444 11.1771 13.6505 10.7995 13.6505Z" fill="#84C551"/>
<path d="M10.7995 16.8492H5.1447C4.76705 16.8492 4.46094 16.5431 4.46094 16.1655C4.46094 15.7878 4.76705 15.4817 5.1447 15.4817H10.7995C11.1771 15.4817 11.4832 15.7878 11.4832 16.1655C11.4832 16.5431 11.1771 16.8492 10.7995 16.8492Z" fill="#84C551"/>
<path d="M4.45975 9.81076C4.45975 10.1884 4.76586 10.4945 5.14351 10.4945H10.7983C11.0685 10.4945 11.3014 10.3374 11.4124 10.1099C12.0209 10.3569 12.6857 10.4933 13.3819 10.4933C16.2769 10.4933 18.6321 8.13965 18.6321 5.24662C18.6321 2.35363 16.2769 0 13.382 0C11.3797 0 9.63586 1.12607 8.75065 2.77761H2.64924C1.94232 2.77761 1.36719 3.35273 1.36719 4.05966V18.7179C1.36719 19.4249 1.94232 20 2.64924 20H13.2926C13.9995 20 14.5747 19.4249 14.5747 18.7179V13.8917C14.5747 13.514 14.2685 13.2079 13.8909 13.2079C13.5132 13.2079 13.2071 13.514 13.2071 13.8917V18.6325H2.73471V4.14513H8.24855C8.12304 4.72978 8.09872 5.33534 8.17603 5.92829H5.14351C4.76586 5.92829 4.45975 6.2344 4.45975 6.61205C4.45975 6.9897 4.76586 7.29581 5.14351 7.29581H8.54889C8.84787 7.99734 9.29539 8.62098 9.85188 9.12704H5.14351C4.76586 9.127 4.45975 9.43311 4.45975 9.81076ZM9.49928 5.24662C9.49928 3.10769 11.241 1.36752 13.382 1.36752C15.5229 1.36752 17.2646 3.10769 17.2646 5.24662C17.2646 7.38555 15.5229 9.12576 13.382 9.12576C11.2411 9.12576 9.49928 7.38559 9.49928 5.24662Z" fill="#84C551"/>
<path d="M14.8602 6.67409C14.7568 6.67409 14.652 6.65059 14.5534 6.60097L13.0757 5.85751C12.8449 5.74135 12.6992 5.50507 12.6992 5.2467V2.42375C12.6992 2.0461 13.0053 1.73999 13.383 1.73999C13.7606 1.73999 14.0667 2.0461 14.0667 2.42375V4.82524L15.168 5.37935C15.7948 5.69473 15.5642 6.67396 14.8602 6.67409C15.1103 6.67405 14.7568 6.67409 14.8602 6.67409Z" fill="#84C551"/>
</svg>
