<svg width="40.000000" height="40.000000" viewBox="0 0 40 40" fill="none" xmlns="http://www.w3.org/2000/svg" xmlns:xlink="http://www.w3.org/1999/xlink">
	<desc>
			Created with Pixso.
	</desc>
	<defs/>
	<circle id="Ellipse 8" cx="20.000000" cy="20.000000" r="20.000000" fill="#8C3213" fill-opacity="1.000000"/>
	<circle id="Ellipse 8" cx="20.000000" cy="20.000000" r="19.500000" stroke="#8C3213" stroke-opacity="1.000000" stroke-width="1.000000"/>
	<path id="Vector" d="M23.39 13C22.09 13 20.87 13.53 20 14.48C19.12 13.53 17.9 13 16.6 13C14.06 13 12 15.06 12 17.6C12 19.11 12.56 20.68 13.67 22.26C13.74 22.37 13.89 22.4 14 22.32C14.1 22.25 14.13 22.1 14.05 21.99C13 20.49 12.46 19.01 12.46 17.6C12.46 15.32 14.32 13.46 16.6 13.46C17.85 13.46 19.02 14.02 19.81 14.99C19.86 15.04 19.92 15.07 20 15.07C20.07 15.07 20.13 15.04 20.18 14.99C20.97 14.02 22.14 13.46 23.39 13.46C25.67 13.46 27.53 15.32 27.53 17.6C27.53 20.36 25.46 22.87 23.72 24.49C22.09 26.01 20.44 27.06 20 27.33C19.39 26.96 17.41 26 15.41 23.53C15.33 23.43 15.18 23.41 15.08 23.5C14.98 23.58 14.96 23.72 15.05 23.82C17.34 26.66 19.84 27.79 19.88 27.81C19.91 27.83 19.95 27.84 20 27.84C20.04 27.84 20.08 27.83 20.11 27.81C20.13 27.8 22.1 26.65 24.04 24.84C25.18 23.77 26.09 22.69 26.75 21.61C27.58 20.25 28 18.9 28 17.61C28 15.06 25.93 13 23.39 13Z" fill="#FFFFFF" fill-opacity="1.000000" fill-rule="nonzero"/>
	<path id="Vector" d="M20.2 14.27C20.13 14.34 20.06 14.41 20 14.48C19.93 14.41 19.86 14.34 19.79 14.27C18.93 13.45 17.8 13 16.6 13C14.06 13 12 15.06 12 17.6C12 19.11 12.56 20.68 13.67 22.26C13.74 22.37 13.89 22.4 14 22.32C14.1 22.25 14.13 22.1 14.05 21.99C13 20.49 12.46 19.01 12.46 17.6C12.46 15.32 14.32 13.46 16.6 13.46C17.85 13.46 19.02 14.02 19.81 14.99C19.86 15.04 19.92 15.07 20 15.07C20.07 15.07 20.13 15.04 20.18 14.99C20.97 14.02 22.14 13.46 23.39 13.46C25.67 13.46 27.53 15.32 27.53 17.6C27.53 20.36 25.46 22.87 23.72 24.49C22.09 26.01 20.44 27.06 20 27.33C19.39 26.96 17.41 26 15.41 23.53C15.33 23.43 15.18 23.41 15.08 23.5C14.98 23.58 14.96 23.72 15.05 23.82C17.34 26.66 19.84 27.79 19.88 27.81C19.91 27.83 19.95 27.84 20 27.84C20.04 27.84 20.08 27.83 20.11 27.81C20.13 27.8 22.1 26.65 24.04 24.84C25.18 23.77 26.09 22.69 26.75 21.61C27.58 20.25 28 18.9 28 17.61C28 15.06 25.93 13 23.39 13C22.19 13 21.06 13.45 20.2 14.27ZM19.99 26.98C20.38 26.74 20.8 26.46 21.24 26.14C22.07 25.54 22.83 24.92 23.52 24.27C24.57 23.29 25.4 22.31 26.02 21.32C26.82 20.03 27.23 18.79 27.23 17.6C27.23 17.32 27.2 17.04 27.14 16.77C27.09 16.55 27.02 16.33 26.92 16.11C26.83 15.9 26.73 15.7 26.6 15.51C26.46 15.29 26.29 15.08 26.1 14.89C25.91 14.7 25.7 14.53 25.48 14.39C25.29 14.26 25.09 14.16 24.88 14.07C24.66 13.97 24.44 13.9 24.22 13.85C23.95 13.79 23.67 13.76 23.39 13.76C23.07 13.76 22.77 13.8 22.47 13.87C22.22 13.93 21.98 14.02 21.74 14.13C21.5 14.24 21.29 14.38 21.08 14.53C20.83 14.72 20.61 14.93 20.41 15.18C20.38 15.21 20.36 15.24 20.33 15.26C20.29 15.28 20.26 15.31 20.22 15.32C20.19 15.34 20.15 15.35 20.11 15.36C20.07 15.37 20.04 15.37 20 15.37C19.95 15.37 19.92 15.37 19.88 15.36C19.84 15.35 19.8 15.34 19.77 15.32C19.73 15.31 19.7 15.28 19.67 15.26C19.63 15.24 19.61 15.21 19.58 15.18C19.38 14.93 19.16 14.71 18.91 14.53C18.7 14.38 18.49 14.24 18.25 14.13C18.01 14.02 17.77 13.93 17.52 13.87C17.22 13.8 16.92 13.76 16.6 13.76C16.32 13.76 16.04 13.79 15.77 13.85C15.55 13.9 15.33 13.97 15.11 14.07C14.9 14.16 14.7 14.26 14.51 14.39C14.29 14.53 14.08 14.7 13.89 14.89C13.7 15.08 13.53 15.29 13.39 15.51C13.26 15.7 13.16 15.9 13.07 16.11C12.97 16.33 12.9 16.55 12.85 16.77C12.79 17.04 12.76 17.32 12.76 17.6C12.76 18.96 13.28 20.36 14.3 21.82C14.34 21.88 14.37 21.95 14.38 22.01C14.4 22.08 14.4 22.15 14.39 22.22C14.38 22.29 14.35 22.36 14.31 22.42C14.28 22.47 14.23 22.52 14.17 22.57C14.11 22.61 14.04 22.64 13.98 22.65C13.91 22.67 13.84 22.67 13.77 22.66C13.7 22.64 13.63 22.62 13.57 22.58C13.52 22.54 13.47 22.5 13.42 22.44C12.27 20.79 11.7 19.18 11.7 17.6C11.7 17.25 11.73 16.9 11.81 16.55C11.87 16.26 11.96 15.98 12.08 15.69C12.2 15.42 12.34 15.16 12.5 14.92C12.68 14.64 12.89 14.38 13.13 14.13C13.38 13.89 13.64 13.68 13.92 13.5C14.16 13.34 14.42 13.2 14.7 13.08C14.98 12.96 15.26 12.87 15.55 12.81C15.9 12.73 16.25 12.7 16.6 12.7C16.98 12.7 17.34 12.74 17.7 12.82C18 12.88 18.29 12.98 18.58 13.11C18.87 13.24 19.14 13.39 19.4 13.57C19.61 13.71 19.81 13.87 20 14.05C20.18 13.87 20.38 13.71 20.59 13.57C20.85 13.39 21.12 13.24 21.41 13.11C21.7 12.98 21.99 12.88 22.29 12.82C22.65 12.74 23.01 12.7 23.39 12.7C23.74 12.7 24.09 12.73 24.44 12.81C24.73 12.87 25.01 12.96 25.29 13.08C25.57 13.2 25.83 13.34 26.07 13.5C26.35 13.68 26.61 13.89 26.86 14.13C27.1 14.38 27.31 14.64 27.49 14.92C27.65 15.16 27.79 15.42 27.91 15.7C28.03 15.98 28.12 16.26 28.18 16.55C28.26 16.9 28.29 17.25 28.29 17.61C28.29 18.97 27.86 20.35 27 21.77C26.33 22.87 25.41 23.97 24.24 25.06C23.42 25.82 22.52 26.55 21.53 27.24C21.22 27.46 20.91 27.66 20.62 27.85C20.47 27.94 20.35 28.02 20.26 28.07C20.22 28.09 20.18 28.11 20.13 28.12C20.09 28.13 20.04 28.14 20 28.14C19.95 28.14 19.9 28.13 19.86 28.12C19.81 28.11 19.78 28.09 19.74 28.07C19.74 28.07 19.73 28.07 19.73 28.07C19.2 27.82 18.64 27.47 18.02 27.04C17.75 26.84 17.48 26.64 17.22 26.42C16.34 25.71 15.54 24.91 14.81 24.01C14.77 23.96 14.73 23.9 14.71 23.83C14.69 23.76 14.69 23.7 14.7 23.62C14.7 23.55 14.72 23.48 14.76 23.42C14.79 23.36 14.83 23.31 14.89 23.26C14.95 23.22 15.01 23.18 15.08 23.16C15.14 23.14 15.21 23.14 15.28 23.15C15.36 23.15 15.42 23.17 15.48 23.21C15.54 23.24 15.6 23.28 15.64 23.34C16.39 24.27 17.22 25.08 18.12 25.77C18.45 26.01 18.78 26.25 19.13 26.47C19.33 26.6 19.58 26.75 19.89 26.92C19.93 26.94 19.96 26.96 19.99 26.98Z" fill="#FFFFFF" fill-opacity="1.000000" fill-rule="evenodd"/>
</svg>
