<svg width="40.000000" height="40.000000" viewBox="0 0 40 40" fill="none" xmlns="http://www.w3.org/2000/svg" xmlns:xlink="http://www.w3.org/1999/xlink">
	<desc>
			Created with Pixso.
	</desc>
	<defs/>
	<rect id="Component 1" width="40.000000" height="40.000000" fill="#FFFFFF" fill-opacity="0"/>
	<path id="Vector" d="M23.39 14C22.09 14 20.87 14.53 20 15.48C19.12 14.53 17.9 14 16.6 14C14.06 14 12 16.06 12 18.6C12 20.11 12.56 21.68 13.67 23.26C13.74 23.37 13.89 23.4 14 23.32C14.1 23.25 14.13 23.1 14.05 22.99C13 21.49 12.46 20.01 12.46 18.6C12.46 16.32 14.32 14.46 16.6 14.46C17.85 14.46 19.02 15.02 19.81 15.99C19.86 16.04 19.92 16.07 20 16.07C20.07 16.07 20.18 15.99 20.18 15.99C20.18 15.99 22.14 14.46 23.39 14.46C25.67 14.46 27.53 16.32 27.53 18.6C27.53 21.36 25.46 23.87 23.72 25.49C22.09 27.01 20.44 28.06 20 28.33C19.39 27.96 17.41 27 15.41 24.53C15.33 24.43 15.18 24.41 15.08 24.5C14.98 24.58 14.96 24.72 15.05 24.82C17.34 27.66 19.84 28.79 19.88 28.81C19.91 28.83 19.95 28.84 20 28.84C20.04 28.84 20.08 28.83 20.11 28.81C20.13 28.8 22.1 27.65 24.04 25.84C25.18 24.77 26.09 23.69 26.75 22.61C27.58 21.25 27.99 19.9 28 18.61C28 16.06 25.93 14 23.39 14Z" fill="#8C3213" fill-opacity="1.000000" fill-rule="nonzero"/>
	<path id="Vector" d="M20.21 15.27C20.13 15.34 20.06 15.41 20 15.48C19.93 15.41 19.86 15.34 19.78 15.27C18.93 14.45 17.8 14 16.6 14C14.06 14 12 16.06 12 18.6C12 20.11 12.56 21.68 13.67 23.26C13.74 23.37 13.89 23.4 14 23.32C14.1 23.25 14.13 23.1 14.05 22.99C13 21.49 12.46 20.01 12.46 18.6C12.46 16.32 14.32 14.46 16.6 14.46C17.85 14.46 19.02 15.02 19.81 15.99C19.86 16.04 19.92 16.07 20 16.07C20.07 16.07 20.18 15.99 20.18 15.99C20.18 15.99 22.14 14.46 23.39 14.46C25.67 14.46 27.53 16.32 27.53 18.6C27.53 21.36 25.46 23.87 23.72 25.49C22.09 27.01 20.44 28.06 20 28.33C19.39 27.96 17.41 27 15.41 24.53C15.33 24.43 15.18 24.41 15.08 24.5C14.98 24.58 14.96 24.72 15.05 24.82C17.34 27.66 19.84 28.79 19.88 28.81C19.91 28.83 19.95 28.84 20 28.84C20.04 28.84 20.08 28.83 20.11 28.81C20.13 28.8 22.1 27.65 24.04 25.84C25.18 24.77 26.09 23.69 26.75 22.61C27.58 21.25 27.99 19.9 28 18.61C28 16.06 25.93 14 23.39 14C22.19 14 21.06 14.45 20.21 15.27ZM20.58 15.34C20.77 15.2 20.97 15.08 21.16 14.97C21.48 14.78 21.77 14.63 22.05 14.51C21.91 14.55 21.78 14.6 21.65 14.66C21.4 14.77 21.16 14.9 20.94 15.05C20.81 15.14 20.69 15.23 20.58 15.34Z" fill="#8C3213" fill-opacity="1.000000" fill-rule="evenodd"/>
	<path id="Vector 10" d="M0 20C0 8.95 8.95 0 20 0C31.04 0 40 8.95 40 20C40 31.04 31.04 40 20 40C8.95 40 0 31.04 0 20Z" fill="#C4C4C4" fill-opacity="0" fill-rule="evenodd"/>
	<path id="Vector 10" d="M20 0C8.95 0 0 8.95 0 20C0 31.04 8.95 40 20 40C31.04 40 40 31.04 40 20C40 8.95 31.04 0 20 0ZM12.7 2.39C14.94 1.46 17.37 1 20 1C22.62 1 25.05 1.46 27.29 2.39C29.53 3.31 31.58 4.71 33.43 6.56C35.29 8.41 36.68 10.46 37.6 12.7C38.53 14.94 39 17.37 39 20C39 22.62 38.53 25.05 37.6 27.29C36.68 29.53 35.29 31.58 33.43 33.43C31.58 35.28 29.53 36.68 27.29 37.6C25.05 38.53 22.62 39 20 39C17.37 39 14.94 38.53 12.7 37.6C10.46 36.68 8.41 35.28 6.56 33.43C4.7 31.58 3.31 29.53 2.39 27.29C1.46 25.05 1 22.62 1 20C1 17.37 1.46 14.94 2.39 12.7C3.31 10.46 4.7 8.41 6.56 6.56C8.41 4.71 10.46 3.31 12.7 2.39Z" fill="#8C3213" fill-opacity="1.000000" fill-rule="evenodd"/>
</svg>
