<svg width="158.000000" height="71.000000" viewBox="0 0 158 71" fill="none" xmlns="http://www.w3.org/2000/svg" xmlns:xlink="http://www.w3.org/1999/xlink">
	<desc>
			Created with Pixso.
	</desc>
	<defs>
		<clipPath id="clip25_1215">
			<rect id="Logo" width="158.000000" height="71.000000" fill="white" fill-opacity="0"/>
		</clipPath>
	</defs>
	<rect id="Logo" width="158.000000" height="71.000000" fill="#FFFFFF" fill-opacity="0"/>
	<g clip-path="url(#clip25_1215)">
		<path id="Vector" d="M0 45.17L0 3.25C-0.02 2.82 0.06 2.4 0.22 2C0.38 1.6 0.62 1.24 0.93 0.93C1.22 0.63 1.57 0.39 1.95 0.23C2.34 0.07 2.75 -0.01 3.17 0L21.86 0C31.54 0 38.58 1.94 42.98 5.83C47.38 9.73 49.58 15.84 49.59 24.17C49.59 32.48 47.39 38.58 42.98 42.47C38.58 46.35 31.54 48.29 21.86 48.29L3.17 48.29C2.75 48.3 2.34 48.22 1.96 48.07C1.57 47.92 1.22 47.69 0.93 47.4C0.62 47.11 0.38 46.77 0.22 46.38C0.06 46 -0.02 45.59 0 45.17ZM12.61 38.74L21.5 38.74C27.5 38.74 31.58 37.64 33.74 35.43C35.9 33.23 36.98 29.47 36.98 24.15C36.98 18.82 35.9 15.06 33.74 12.87C31.58 10.68 27.5 9.57 21.5 9.55L12.61 9.55L12.61 38.74Z" fill="#1F1B1C" fill-opacity="1.000000" fill-rule="nonzero"/>
		<path id="Vector" d="M67.61 36.61L67.61 36.65L73.28 36.65C73.89 36.65 74.49 36.65 75.08 36.61L67.61 36.61Z" fill="#84C551" fill-opacity="1.000000" fill-rule="nonzero"/>
		<path id="Vector" d="M109.2 6.36L109.2 3.19C109.19 2.77 109.26 2.35 109.41 1.95C109.57 1.56 109.8 1.2 110.1 0.9C110.4 0.6 110.75 0.37 111.14 0.21C111.54 0.05 111.95 -0.02 112.38 -6.11e-5L154.81 -6.11e-5C155.24 -0.02 155.65 0.05 156.05 0.21C156.44 0.36 156.79 0.6 157.09 0.9C157.39 1.2 157.62 1.56 157.78 1.95C157.93 2.34 158 2.77 157.99 3.19L157.99 6.36C158 6.78 157.93 7.19 157.77 7.59C157.62 7.98 157.39 8.33 157.09 8.63C156.79 8.92 156.43 9.15 156.04 9.3C155.65 9.46 155.23 9.53 154.81 9.52L139.9 9.52L139.9 45.17C139.91 45.58 139.83 45.99 139.67 46.37C139.51 46.75 139.28 47.09 138.98 47.37C138.69 47.66 138.34 47.89 137.96 48.04C137.58 48.2 137.17 48.27 136.76 48.26L130.45 48.26C130.04 48.27 129.63 48.2 129.25 48.04C128.87 47.89 128.52 47.66 128.22 47.37C127.93 47.09 127.69 46.75 127.53 46.37C127.38 45.99 127.3 45.58 127.31 45.17L127.31 9.54L112.39 9.54C111.97 9.55 111.55 9.48 111.16 9.33C110.77 9.17 110.42 8.94 110.12 8.65C109.82 8.35 109.58 7.99 109.42 7.6C109.26 7.21 109.19 6.78 109.2 6.36Z" fill="#1F1B1C" fill-opacity="1.000000" fill-rule="nonzero"/>
		<path id="Vector" d="M0.93 67.72L0.93 58.67C0.93 58.57 0.95 58.48 0.98 58.39C1.02 58.31 1.07 58.23 1.14 58.16C1.2 58.09 1.28 58.04 1.36 58.01C1.44 57.98 1.53 57.96 1.62 57.96L3.04 57.96C3.12 57.96 3.21 57.98 3.29 58.01C3.38 58.04 3.45 58.1 3.51 58.16C3.58 58.23 3.63 58.31 3.66 58.39C3.7 58.48 3.72 58.57 3.72 58.67L3.72 66.33L10.02 66.33C10.11 66.33 10.2 66.35 10.29 66.38C10.37 66.42 10.44 66.47 10.51 66.54C10.63 66.67 10.7 66.84 10.7 67.02L10.7 67.73C10.7 67.91 10.63 68.08 10.51 68.21C10.44 68.27 10.37 68.32 10.28 68.36C10.2 68.39 10.11 68.41 10.02 68.41L1.63 68.41C1.45 68.41 1.28 68.34 1.15 68.22C1.08 68.16 1.02 68.08 0.99 67.99C0.95 67.91 0.93 67.82 0.93 67.72Z" fill="#84C551" fill-opacity="1.000000" fill-rule="nonzero"/>
		<path id="Vector" d="M12.35 67.48C11.63 66.62 11.24 65.53 11.24 64.41C11.24 63.29 11.63 62.2 12.35 61.35C13.24 60.66 14.34 60.28 15.46 60.28C16.58 60.28 17.67 60.66 18.56 61.35C18.95 61.74 19.25 62.21 19.44 62.72C19.63 63.24 19.71 63.79 19.68 64.34L19.68 64.75C19.68 64.87 19.63 64.99 19.55 65.08C19.51 65.12 19.46 65.15 19.4 65.17C19.35 65.2 19.29 65.21 19.23 65.2L13.78 65.2C13.79 65.69 13.97 66.15 14.3 66.5C14.7 66.81 15.2 66.96 15.7 66.91C15.93 66.94 16.17 66.92 16.4 66.84C16.63 66.76 16.83 66.64 17.01 66.47C17.11 66.34 17.24 66.23 17.39 66.15C17.55 66.08 17.71 66.03 17.88 66.03L18.96 66.03C19.02 66.03 19.08 66.04 19.14 66.06C19.19 66.08 19.24 66.11 19.28 66.16C19.33 66.2 19.36 66.25 19.38 66.31C19.4 66.36 19.41 66.42 19.41 66.48C19.41 67.89 18.09 68.6 15.46 68.6C14.32 68.65 13.2 68.24 12.35 67.48ZM13.76 63.64L17.12 63.64C17.07 62.5 16.52 61.93 15.44 61.93C14.37 61.93 13.84 62.5 13.78 63.64L13.76 63.64Z" fill="#84C551" fill-opacity="1.000000" fill-rule="nonzero"/>
		<path id="Vector" d="M24.76 66.81L25.75 66.72L26.02 66.72C26.08 66.72 26.14 66.73 26.19 66.75C26.25 66.77 26.3 66.81 26.34 66.85C26.38 66.89 26.41 66.94 26.44 66.99C26.46 67.05 26.47 67.11 26.47 67.17L26.47 67.95C26.47 68 26.45 68.05 26.43 68.1C26.41 68.15 26.38 68.19 26.34 68.23C26.25 68.32 26.14 68.37 26.02 68.39C25.38 68.5 24.74 68.55 24.09 68.53C22.03 68.53 20.99 67.44 20.99 65.26L20.99 58.41C20.98 58.29 21.03 58.17 21.11 58.08C21.15 58.04 21.2 58.01 21.26 57.99C21.31 57.97 21.37 57.96 21.43 57.96L23.05 57.96C23.1 57.96 23.16 57.97 23.22 57.99C23.27 58.01 23.32 58.04 23.36 58.08C23.44 58.17 23.49 58.29 23.49 58.41L23.49 60.84L25.5 60.84C25.62 60.84 25.73 60.88 25.81 60.96C25.86 61 25.89 61.05 25.91 61.11C25.93 61.16 25.94 61.22 25.94 61.28L25.94 62.14C25.94 62.2 25.93 62.26 25.91 62.32C25.89 62.38 25.86 62.43 25.81 62.47C25.77 62.51 25.72 62.54 25.67 62.56C25.61 62.58 25.56 62.59 25.5 62.59L23.49 62.59L23.49 65.25C23.46 65.66 23.58 66.07 23.83 66.4C23.94 66.53 24.09 66.64 24.25 66.71C24.41 66.78 24.58 66.82 24.76 66.81Z" fill="#84C551" fill-opacity="1.000000" fill-rule="nonzero"/>
		<path id="Vector" d="M29.25 57.96C29.86 57.96 30.18 58.19 30.18 58.67C30.17 58.82 30.14 58.97 30.07 59.11L29.21 61.3C29.12 61.54 28.96 61.74 28.76 61.9C28.57 62.06 28.32 62.14 28.06 62.14L27.78 62.14C27.48 62.14 27.29 62.07 27.2 61.95C27.13 61.83 27.08 61.69 27.08 61.55C27.08 61.42 27.08 61.29 27.08 61.16L27.51 58.81C27.56 58.57 27.71 58.36 27.91 58.22C28.11 58.07 28.36 57.98 28.61 57.98L29.25 57.96Z" fill="#84C551" fill-opacity="1.000000" fill-rule="nonzero"/>
		<path id="Vector" d="M31.21 62.62C31.21 61.05 32.47 60.26 34.98 60.27C37.61 60.27 38.94 60.97 38.94 62.38C38.94 62.44 38.93 62.5 38.91 62.55C38.88 62.61 38.85 62.66 38.81 62.7C38.77 62.74 38.72 62.77 38.67 62.8C38.61 62.82 38.56 62.83 38.5 62.83L37.42 62.83C37.25 62.83 37.08 62.79 36.93 62.71C36.78 62.64 36.64 62.53 36.54 62.39C36.35 62.22 36.13 62.09 35.89 62.01C35.65 61.94 35.39 61.92 35.14 61.95C34.21 61.95 33.74 62.19 33.74 62.66C33.74 62.88 33.93 63.05 34.3 63.2C34.75 63.37 35.22 63.5 35.7 63.58C36.24 63.69 36.78 63.83 37.31 64C37.83 64.15 38.31 64.43 38.71 64.81C38.89 64.99 39.04 65.21 39.13 65.46C39.23 65.7 39.27 65.96 39.27 66.22C39.27 67.79 37.94 68.57 35.29 68.57C32.63 68.57 31.31 67.86 31.31 66.45C31.31 66.39 31.32 66.33 31.35 66.28C31.37 66.22 31.4 66.17 31.44 66.13C31.48 66.09 31.53 66.05 31.59 66.03C31.64 66.01 31.7 66 31.76 66L32.84 66C33.01 66 33.18 66.04 33.33 66.12C33.48 66.2 33.62 66.31 33.72 66.45C33.91 66.62 34.13 66.74 34.37 66.82C34.61 66.89 34.87 66.92 35.12 66.88C36.22 66.88 36.77 66.65 36.77 66.18C36.77 65.96 36.58 65.78 36.21 65.63C35.76 65.47 35.29 65.33 34.81 65.24C34.26 65.13 33.73 64.99 33.2 64.82C32.69 64.67 32.22 64.39 31.84 64.01C31.64 63.84 31.49 63.63 31.38 63.39C31.27 63.15 31.21 62.89 31.21 62.62Z" fill="#84C551" fill-opacity="1.000000" fill-rule="nonzero"/>
		<path id="Vector" d="M46.25 66.78C45.91 66.42 45.64 65.98 45.46 65.51C45.29 65.03 45.22 64.53 45.24 64.02C45.22 63.5 45.31 62.99 45.5 62.51C45.7 62.03 46.01 61.6 46.39 61.26C47.34 60.54 48.51 60.19 49.69 60.27C50.42 60.27 51.15 60.35 51.87 60.51C52.46 60.61 53.03 60.8 53.56 61.09L53.56 67.82C53.6 68.28 53.52 68.74 53.33 69.15C53.15 69.57 52.86 69.94 52.5 70.22C51.61 70.79 50.57 71.06 49.52 71C48.51 71.04 47.5 70.88 46.56 70.51C46.25 70.38 45.98 70.16 45.79 69.88C45.61 69.59 45.51 69.26 45.52 68.91C45.52 68.85 45.53 68.79 45.55 68.74C45.58 68.68 45.61 68.63 45.65 68.59C45.69 68.55 45.74 68.52 45.8 68.49C45.85 68.47 45.91 68.46 45.97 68.46L47.05 68.46C47.21 68.46 47.37 68.49 47.51 68.56C47.66 68.62 47.78 68.72 47.89 68.84C48.07 69.03 48.29 69.17 48.53 69.25C48.77 69.34 49.03 69.37 49.29 69.34C49.78 69.4 50.27 69.28 50.69 69.01C50.83 68.85 50.93 68.66 51 68.45C51.06 68.25 51.08 68.03 51.06 67.82L51.06 67.48C50.36 67.67 49.63 67.77 48.9 67.78C48.42 67.8 47.93 67.72 47.48 67.55C47.02 67.38 46.61 67.12 46.25 66.78ZM49.54 62.03C48.4 62.03 47.82 62.69 47.82 64.02C47.82 65.35 48.38 66.02 49.5 66.02C50.02 66.01 50.55 65.93 51.06 65.8L51.06 62.19C50.56 62.07 50.05 62.01 49.54 62.03Z" fill="#84C551" fill-opacity="1.000000" fill-rule="nonzero"/>
		<path id="Vector" d="M60.82 62.26L59.71 62.22C59.33 62.25 58.97 62.36 58.65 62.55C58.33 62.73 58.05 62.99 57.84 63.3L57.84 67.95C57.84 68.01 57.83 68.07 57.81 68.12C57.79 68.17 57.76 68.22 57.72 68.27C57.67 68.31 57.62 68.34 57.57 68.36C57.52 68.38 57.46 68.39 57.4 68.39L55.78 68.39C55.72 68.39 55.67 68.38 55.61 68.36C55.56 68.34 55.51 68.31 55.47 68.27C55.43 68.22 55.39 68.17 55.37 68.12C55.35 68.07 55.34 68.01 55.34 67.95L55.34 60.9C55.34 60.84 55.35 60.78 55.37 60.72C55.39 60.66 55.42 60.61 55.47 60.57C55.51 60.53 55.56 60.5 55.61 60.47C55.67 60.45 55.72 60.44 55.78 60.44L57.4 60.44C57.46 60.44 57.52 60.45 57.57 60.47C57.63 60.5 57.67 60.53 57.72 60.57C57.76 60.61 57.79 60.66 57.81 60.72C57.83 60.78 57.84 60.84 57.84 60.9L57.84 61.35C58.27 61.03 58.74 60.76 59.24 60.56C59.82 60.37 60.42 60.28 61.03 60.3C61.15 60.3 61.26 60.34 61.35 60.42C61.39 60.46 61.43 60.51 61.45 60.57C61.47 60.62 61.48 60.68 61.48 60.74L61.48 61.85C61.48 61.91 61.47 61.97 61.45 62.02C61.43 62.07 61.39 62.12 61.35 62.16C61.31 62.21 61.26 62.24 61.2 62.26C61.15 62.28 61.09 62.29 61.03 62.29L60.82 62.26Z" fill="#84C551" fill-opacity="1.000000" fill-rule="nonzero"/>
		<path id="Vector" d="M63.21 67.49C62.48 66.63 62.08 65.53 62.08 64.4C62.08 63.27 62.48 62.18 63.21 61.32C64.15 60.64 65.29 60.27 66.45 60.27C67.61 60.27 68.75 60.64 69.69 61.32C70.42 62.18 70.82 63.27 70.82 64.4C70.82 65.53 70.42 66.63 69.69 67.49C68.74 68.17 67.61 68.53 66.45 68.53C65.29 68.53 64.16 68.17 63.21 67.49ZM65.04 62.51C64.74 63.1 64.59 63.74 64.59 64.4C64.59 65.05 64.74 65.7 65.04 66.28C65.41 66.66 65.91 66.87 66.44 66.87C66.96 66.87 67.47 66.66 67.84 66.28C68.14 65.7 68.29 65.05 68.29 64.4C68.29 63.74 68.14 63.1 67.84 62.51C67.46 62.14 66.96 61.94 66.44 61.94C65.92 61.94 65.41 62.14 65.04 62.51Z" fill="#84C551" fill-opacity="1.000000" fill-rule="nonzero"/>
		<path id="Vector" d="M71.4 61.06C71.36 60.96 71.34 60.85 71.33 60.74C71.33 60.53 71.46 60.42 71.69 60.42L73.04 60.42C73.25 60.41 73.47 60.47 73.65 60.59C73.82 60.7 73.95 60.86 74.01 61.06L75.2 64.98L76.37 61.06C76.41 60.87 76.51 60.7 76.66 60.58C76.81 60.47 77 60.41 77.19 60.42L78.47 60.42C78.66 60.4 78.85 60.46 79 60.58C79.15 60.7 79.26 60.87 79.3 61.06L80.47 64.98L81.65 61.06C81.72 60.86 81.85 60.69 82.02 60.59C82.2 60.47 82.42 60.41 82.63 60.42L83.97 60.42C84.21 60.42 84.33 60.53 84.33 60.74C84.33 60.85 84.31 60.96 84.27 61.06L82.08 67.75C82.02 67.94 81.89 68.11 81.72 68.22C81.55 68.33 81.36 68.38 81.16 68.39L80.14 68.39C79.94 68.38 79.74 68.32 79.58 68.21C79.41 68.1 79.28 67.94 79.23 67.75L77.82 63.41L76.42 67.75C76.36 67.94 76.24 68.1 76.07 68.21C75.9 68.32 75.71 68.39 75.51 68.39L74.5 68.39C74.31 68.39 74.11 68.33 73.95 68.22C73.78 68.11 73.65 67.94 73.59 67.75L71.4 61.06Z" fill="#84C551" fill-opacity="1.000000" fill-rule="nonzero"/>
		<path id="Vector" d="M94.32 66.81L95.31 66.72L95.58 66.72C95.64 66.72 95.7 66.73 95.75 66.75C95.81 66.77 95.86 66.81 95.9 66.85C95.94 66.89 95.98 66.94 96 66.99C96.02 67.05 96.03 67.11 96.03 67.17L96.03 67.95C96.03 68 96.02 68.05 95.99 68.1C95.97 68.15 95.94 68.19 95.9 68.23C95.81 68.32 95.7 68.37 95.58 68.39C94.94 68.5 94.3 68.55 93.65 68.53C91.59 68.53 90.55 67.44 90.55 65.26L90.55 58.41C90.55 58.29 90.59 58.17 90.67 58.08C90.72 58.04 90.77 58.01 90.82 57.99C90.87 57.97 90.93 57.96 90.99 57.96L92.61 57.96C92.67 57.96 92.72 57.97 92.78 57.99C92.83 58.01 92.88 58.04 92.92 58.08C93.01 58.17 93.05 58.29 93.05 58.41L93.05 60.84L95.07 60.84C95.18 60.84 95.29 60.88 95.38 60.96C95.42 61 95.45 61.05 95.48 61.11C95.5 61.16 95.51 61.22 95.51 61.28L95.51 62.14C95.51 62.2 95.5 62.26 95.48 62.32C95.45 62.38 95.42 62.43 95.38 62.47C95.34 62.51 95.29 62.54 95.23 62.56C95.18 62.58 95.12 62.59 95.07 62.59L93.05 62.59L93.05 65.25C93.02 65.66 93.14 66.07 93.39 66.4C93.51 66.53 93.65 66.64 93.81 66.71C93.97 66.78 94.14 66.82 94.32 66.81Z" fill="#84C551" fill-opacity="1.000000" fill-rule="nonzero"/>
		<path id="Vector" d="M97.82 67.49C97.09 66.63 96.69 65.53 96.69 64.4C96.69 63.27 97.09 62.18 97.82 61.32C98.77 60.64 99.9 60.27 101.06 60.27C102.23 60.27 103.36 60.64 104.3 61.32C105.03 62.18 105.43 63.27 105.43 64.4C105.43 65.53 105.03 66.63 104.3 67.49C103.36 68.17 102.22 68.53 101.06 68.53C99.9 68.53 98.77 68.17 97.82 67.49ZM99.65 62.51C99.36 63.1 99.2 63.74 99.2 64.4C99.2 65.05 99.36 65.7 99.65 66.28C99.82 66.49 100.03 66.65 100.28 66.76C100.52 66.86 100.79 66.91 101.05 66.88C101.32 66.9 101.58 66.86 101.83 66.76C102.07 66.65 102.29 66.49 102.45 66.28C102.75 65.7 102.91 65.05 102.91 64.4C102.91 63.74 102.75 63.09 102.45 62.51C102.28 62.31 102.07 62.15 101.82 62.05C101.58 61.95 101.32 61.9 101.05 61.93C100.79 61.9 100.52 61.94 100.28 62.04C100.04 62.15 99.82 62.31 99.65 62.51Z" fill="#84C551" fill-opacity="1.000000" fill-rule="nonzero"/>
		<path id="Vector" d="M107.32 66.78C106.97 66.42 106.7 65.98 106.53 65.51C106.35 65.03 106.28 64.53 106.31 64.02C106.28 63.5 106.37 62.99 106.57 62.51C106.77 62.03 107.07 61.6 107.46 61.26C108.4 60.54 109.57 60.19 110.76 60.27C111.49 60.27 112.21 60.35 112.93 60.51C113.52 60.61 114.1 60.81 114.63 61.09L114.63 67.82C114.67 68.28 114.59 68.74 114.4 69.16C114.21 69.57 113.93 69.94 113.57 70.22C112.68 70.79 111.64 71.06 110.59 71C109.58 71.04 108.57 70.88 107.63 70.51C107.32 70.38 107.05 70.16 106.86 69.88C106.67 69.59 106.58 69.26 106.59 68.91C106.59 68.85 106.6 68.8 106.62 68.74C106.65 68.68 106.68 68.63 106.72 68.59C106.76 68.55 106.81 68.52 106.87 68.49C106.92 68.47 106.98 68.46 107.04 68.46L108.14 68.46C108.29 68.46 108.45 68.49 108.6 68.55C108.74 68.62 108.87 68.72 108.97 68.84C109.15 69.03 109.37 69.17 109.61 69.25C109.86 69.34 110.12 69.37 110.37 69.34C110.86 69.4 111.36 69.28 111.77 69.01C111.91 68.85 112.02 68.66 112.09 68.45C112.15 68.25 112.17 68.03 112.15 67.82L112.15 67.48C111.44 67.67 110.72 67.77 109.99 67.78C109.5 67.8 109.01 67.73 108.55 67.56C108.09 67.39 107.67 67.12 107.32 66.78ZM110.6 62.03C109.46 62.03 108.89 62.69 108.89 64.02C108.89 65.35 109.45 66.02 110.56 66.02C111.09 66.01 111.62 65.93 112.13 65.8L112.13 62.19C111.63 62.07 111.12 62.02 110.6 62.03Z" fill="#84C551" fill-opacity="1.000000" fill-rule="nonzero"/>
		<path id="Vector" d="M117.07 67.48C116.35 66.62 115.95 65.53 115.95 64.41C115.95 63.29 116.35 62.2 117.07 61.35C117.96 60.66 119.05 60.28 120.17 60.28C121.3 60.28 122.39 60.66 123.28 61.35C123.66 61.74 123.96 62.21 124.15 62.72C124.35 63.24 124.43 63.79 124.39 64.34L124.39 64.75C124.39 64.87 124.35 64.99 124.27 65.08C124.22 65.12 124.17 65.15 124.12 65.17C124.06 65.2 124 65.21 123.94 65.2L118.5 65.2C118.5 65.69 118.69 66.15 119.01 66.5C119.41 66.81 119.91 66.96 120.41 66.91C120.65 66.94 120.89 66.92 121.12 66.84C121.34 66.76 121.55 66.64 121.72 66.47C121.83 66.34 121.96 66.23 122.11 66.15C122.26 66.08 122.43 66.03 122.6 66.03L123.68 66.03C123.74 66.03 123.8 66.04 123.85 66.06C123.91 66.08 123.96 66.12 124 66.16C124.04 66.2 124.07 66.25 124.1 66.31C124.12 66.36 124.13 66.42 124.13 66.48C124.13 67.89 122.81 68.6 120.17 68.6C119.03 68.65 117.92 68.24 117.07 67.48ZM118.47 63.64L121.83 63.64C121.79 62.5 121.22 61.93 120.16 61.93C119.09 61.93 118.56 62.5 118.49 63.64L118.47 63.64Z" fill="#84C551" fill-opacity="1.000000" fill-rule="nonzero"/>
		<path id="Vector" d="M129.5 66.81L130.49 66.72L130.76 66.72C130.88 66.72 131 66.76 131.08 66.85C131.12 66.89 131.16 66.94 131.18 66.99C131.2 67.05 131.21 67.11 131.21 67.17L131.21 67.95C131.21 68 131.2 68.05 131.17 68.1C131.15 68.15 131.12 68.19 131.08 68.23C131 68.32 130.88 68.37 130.76 68.39C130.12 68.5 129.48 68.55 128.83 68.53C126.76 68.53 125.73 67.44 125.73 65.26L125.73 58.41C125.73 58.29 125.77 58.17 125.86 58.08C125.9 58.04 125.95 58.01 126 57.99C126.06 57.97 126.11 57.96 126.17 57.96L127.79 57.96C127.85 57.96 127.91 57.97 127.96 57.99C128.01 58.01 128.06 58.04 128.11 58.08C128.19 58.17 128.23 58.29 128.23 58.41L128.23 60.84L130.24 60.84C130.36 60.84 130.47 60.88 130.56 60.96C130.6 61 130.63 61.05 130.65 61.11C130.67 61.16 130.69 61.22 130.68 61.28L130.68 62.14C130.69 62.2 130.67 62.26 130.65 62.32C130.63 62.38 130.6 62.43 130.56 62.47C130.52 62.51 130.47 62.54 130.41 62.56C130.36 62.58 130.3 62.59 130.24 62.59L128.23 62.59L128.23 65.25C128.2 65.66 128.33 66.07 128.57 66.4C128.69 66.53 128.83 66.64 128.99 66.71C129.15 66.78 129.32 66.82 129.5 66.81Z" fill="#84C551" fill-opacity="1.000000" fill-rule="nonzero"/>
		<path id="Vector" d="M132.39 67.95L132.39 58.41C132.39 58.29 132.44 58.17 132.52 58.08C132.56 58.04 132.61 58.01 132.66 57.99C132.72 57.97 132.78 57.96 132.83 57.96L134.45 57.96C134.51 57.96 134.57 57.97 134.62 57.99C134.68 58.01 134.73 58.04 134.77 58.08C134.85 58.17 134.9 58.29 134.89 58.41L134.89 61.33C135.62 60.66 136.56 60.28 137.54 60.27C137.96 60.25 138.38 60.32 138.77 60.47C139.16 60.62 139.52 60.84 139.83 61.14C140.14 61.49 140.39 61.91 140.54 62.36C140.69 62.82 140.75 63.3 140.71 63.77L140.71 67.95C140.71 68.01 140.7 68.06 140.68 68.12C140.66 68.17 140.63 68.22 140.58 68.26C140.54 68.3 140.49 68.33 140.44 68.36C140.38 68.38 140.32 68.39 140.26 68.39L138.65 68.39C138.59 68.39 138.53 68.38 138.48 68.35C138.42 68.33 138.38 68.3 138.33 68.26C138.29 68.22 138.26 68.17 138.24 68.12C138.22 68.06 138.21 68.01 138.21 67.95L138.21 63.77C138.21 62.61 137.75 62.03 136.81 62.03C136.43 62.07 136.07 62.18 135.74 62.36C135.41 62.54 135.11 62.78 134.87 63.07L134.87 67.95C134.87 68.01 134.86 68.06 134.84 68.12C134.82 68.17 134.79 68.22 134.75 68.26C134.71 68.3 134.66 68.33 134.6 68.35C134.55 68.38 134.49 68.39 134.43 68.39L132.81 68.39C132.75 68.39 132.7 68.38 132.64 68.35C132.59 68.33 132.54 68.3 132.5 68.26C132.46 68.22 132.43 68.17 132.41 68.11C132.39 68.06 132.39 68 132.39 67.95Z" fill="#84C551" fill-opacity="1.000000" fill-rule="nonzero"/>
		<path id="Vector" d="M143.17 67.48C142.45 66.62 142.06 65.53 142.06 64.41C142.06 63.29 142.45 62.2 143.17 61.35C144.02 60.59 145.14 60.2 146.27 60.27C147.4 60.2 148.51 60.58 149.37 61.32C149.76 61.71 150.06 62.18 150.25 62.69C150.44 63.21 150.52 63.76 150.48 64.31L150.48 64.73C150.49 64.85 150.44 64.96 150.36 65.05C150.32 65.09 150.27 65.12 150.21 65.15C150.15 65.17 150.1 65.18 150.04 65.18L144.57 65.18C144.57 65.66 144.75 66.12 145.08 66.47C145.48 66.78 145.97 66.93 146.48 66.88C146.71 66.91 146.96 66.89 147.18 66.81C147.41 66.73 147.62 66.61 147.79 66.45C147.9 66.31 148.03 66.2 148.18 66.12C148.33 66.04 148.5 66 148.67 66L149.74 66C149.8 66 149.86 66.01 149.92 66.03C149.97 66.05 150.02 66.09 150.06 66.13C150.11 66.17 150.14 66.22 150.16 66.28C150.18 66.33 150.19 66.39 150.19 66.45C150.19 67.86 148.87 68.57 146.24 68.57C145.11 68.62 144.01 68.23 143.17 67.48ZM144.57 63.64L147.93 63.64C147.88 62.5 147.32 61.93 146.25 61.93C145.18 61.93 144.63 62.5 144.57 63.64Z" fill="#84C551" fill-opacity="1.000000" fill-rule="nonzero"/>
		<path id="Vector" d="M157.29 62.26L156.17 62.22C155.8 62.25 155.44 62.36 155.12 62.55C154.8 62.73 154.52 62.99 154.31 63.3L154.31 67.95C154.31 68.01 154.3 68.07 154.28 68.12C154.26 68.17 154.23 68.22 154.18 68.27C154.14 68.31 154.09 68.34 154.04 68.36C153.98 68.38 153.93 68.39 153.87 68.39L152.28 68.39C152.22 68.39 152.16 68.38 152.11 68.36C152.05 68.34 152 68.31 151.96 68.27C151.92 68.22 151.89 68.17 151.87 68.12C151.85 68.07 151.83 68.01 151.84 67.95L151.84 60.9C151.83 60.84 151.84 60.78 151.87 60.72C151.89 60.66 151.92 60.61 151.96 60.57C152 60.53 152.05 60.5 152.11 60.47C152.16 60.45 152.22 60.44 152.28 60.44L153.9 60.44C153.95 60.44 154.01 60.45 154.07 60.47C154.12 60.49 154.17 60.53 154.21 60.57C154.25 60.61 154.29 60.66 154.31 60.72C154.33 60.78 154.34 60.84 154.34 60.9L154.34 61.35C154.77 61.03 155.24 60.76 155.74 60.56C156.32 60.37 156.92 60.28 157.53 60.3C157.64 60.3 157.76 60.34 157.85 60.42C157.89 60.46 157.92 60.51 157.94 60.57C157.96 60.62 157.98 60.68 157.97 60.74L157.97 61.85C157.98 61.91 157.97 61.97 157.95 62.02C157.92 62.07 157.89 62.12 157.85 62.17C157.81 62.21 157.75 62.24 157.7 62.26C157.64 62.28 157.59 62.29 157.53 62.29L157.29 62.26Z" fill="#84C551" fill-opacity="1.000000" fill-rule="nonzero"/>
		<path id="Vector" d="M54.74 36.61L54.74 36.66L52.51 45.17C52.44 45.5 52.4 45.84 52.39 46.18C52.42 46.67 52.62 47.13 52.94 47.5C53.17 47.77 53.46 47.98 53.79 48.11C54.11 48.25 54.47 48.3 54.81 48.26L61.41 48.26C62.31 48.25 63.18 47.94 63.88 47.37C64.64 46.82 65.17 46.01 65.38 45.1L67.61 36.63L67.61 36.6L54.74 36.61Z" fill="#21603F" fill-opacity="1.000000" fill-rule="nonzero"/>
		<path id="Vector" d="M101.61 0.03C101.44 0.02 101.28 0.02 101.12 0.03L88.78 0.03L81.32 0.03C74.31 0.28 69.05 2.02 65.52 5.24C65.35 5.38 65.19 5.53 65.04 5.69C63.01 7.74 61.58 10.31 60.9 13.12L54.75 36.61L75.07 36.61C82.05 36.35 87.3 34.63 90.82 31.44C90.99 31.3 91.15 31.14 91.31 30.98C93.37 28.93 94.83 26.35 95.52 23.52L101.67 0.03L101.61 0.03ZM83.35 20.36C82.93 21.97 82.09 23.43 80.91 24.6C80.75 24.75 80.59 24.91 80.41 25.05L80.12 25.29C78.74 26.34 77.1 26.96 75.38 27.08L70.09 27.08L73.03 16.28C73.43 14.68 74.25 13.22 75.41 12.05C75.58 11.89 75.74 11.74 75.92 11.59L76.26 11.31C77.63 10.26 79.27 9.64 80.99 9.52L86.29 9.52L83.35 20.36Z" fill="#84C551" fill-opacity="1.000000" fill-rule="nonzero"/>
		<path id="Vector" d="M98.64 23.64C97.62 28 95.03 31.82 91.37 34.36L91.37 36.58L91.37 45.05C91.35 45.47 91.42 45.89 91.58 46.28C91.73 46.67 91.96 47.02 92.25 47.32C92.55 47.62 92.9 47.85 93.29 48C93.68 48.16 94.09 48.23 94.51 48.21L100.81 48.21C101.23 48.22 101.64 48.15 102.02 47.99C102.41 47.84 102.76 47.61 103.06 47.32C103.36 47.04 103.6 46.7 103.76 46.32C103.92 45.94 104 45.53 103.99 45.12L103.99 3.24L98.64 23.64Z" fill="#1F1B1C" fill-opacity="1.000000" fill-rule="nonzero"/>
	</g>
</svg>
