<svg width="16" height="20" viewBox="0 0 16 20" fill="none" xmlns="http://www.w3.org/2000/svg">
<path d="M13.8578 2.62037H12.0484V1.81092C12.0484 1.54903 11.7627 1.43001 11.5008 1.43001H10.0962C9.76292 0.477697 8.92963 0.00154151 7.97732 0.00154151C7.03549 -0.0338659 6.17883 0.543636 5.85844 1.43001H4.47759C4.2157 1.43001 3.95382 1.54903 3.95382 1.81092V2.62037H2.14439C1.07214 2.63181 0.194931 3.47767 0.144531 4.54878V18.1906C0.144531 19.2381 1.09684 20 2.14439 20H13.8578C14.9053 20 15.8576 19.2381 15.8576 18.1906V4.54883C15.8072 3.47767 14.93 2.63181 13.8578 2.62037ZM4.90608 2.38232H6.21552C6.44409 2.35443 6.62769 2.18054 6.66789 1.95378C6.80888 1.33978 7.34755 0.899032 7.97732 0.882445C8.60126 0.901356 9.13183 1.34347 9.26293 1.95378C9.30563 2.18837 9.50135 2.3645 9.73908 2.38232H11.0961V4.28694H4.90608V2.38232ZM14.9053 18.1906C14.9053 18.7144 14.3816 19.0477 13.8578 19.0477H2.14439C1.62062 19.0477 1.09684 18.7144 1.09684 18.1906V4.54883C1.14542 4.00363 1.5971 3.58271 2.14439 3.57273H3.95377V4.78693C3.97893 5.05369 4.20996 5.25324 4.47755 5.23929H11.5008C11.7733 5.25419 12.0116 5.05738 12.0484 4.78693V3.57268H13.8577C14.405 3.58271 14.8567 4.00359 14.9053 4.54878V18.1906H14.9053Z" fill="#84C551"/>
<path d="M6.16935 10.6436C5.99076 10.4553 5.69428 10.4447 5.50271 10.6198L3.979 12.072L3.3362 11.4054C3.15761 11.2171 2.86114 11.2066 2.66956 11.3816C2.48515 11.5748 2.48515 11.8788 2.66956 12.072L3.64566 13.0719C3.73015 13.1665 3.85218 13.2189 3.97896 13.2148C4.10455 13.213 4.22435 13.1617 4.31225 13.0719L6.16926 11.3102C6.35336 11.1413 6.36566 10.8551 6.19673 10.6711C6.18808 10.6615 6.17892 10.6523 6.16935 10.6436Z" fill="#84C551"/>
<path d="M12.9988 11.6672H7.52303C7.26005 11.6672 7.04688 11.8804 7.04688 12.1434C7.04688 12.4064 7.26005 12.6195 7.52303 12.6195H12.9988C13.2618 12.6195 13.4749 12.4064 13.4749 12.1434C13.4749 11.8804 13.2618 11.6672 12.9988 11.6672Z" fill="#84C551"/>
<path d="M6.16935 6.83424C5.99076 6.64599 5.69428 6.63537 5.50271 6.81045L3.979 8.26271L3.3362 7.59607C3.15761 7.40782 2.86114 7.39721 2.66956 7.57228C2.48515 7.7655 2.48515 8.0695 2.66956 8.26271L3.64566 9.26265C3.73015 9.35725 3.85218 9.40956 3.97896 9.40551C4.10455 9.40373 4.22435 9.35237 4.31225 9.26265L6.16926 7.50088C6.35336 7.332 6.36566 7.04582 6.19673 6.86176C6.18808 6.85215 6.17892 6.84299 6.16935 6.83424Z" fill="#84C551"/>
<path d="M12.9988 7.85815H7.52303C7.26005 7.85815 7.04688 8.07132 7.04688 8.3343C7.04688 8.59728 7.26005 8.81045 7.52303 8.81045H12.9988C13.2618 8.81045 13.4749 8.59728 13.4749 8.3343C13.4749 8.07132 13.2618 7.85815 12.9988 7.85815Z" fill="#84C551"/>
<path d="M6.16935 14.4529C5.99076 14.2646 5.69428 14.2541 5.50271 14.4291L3.979 15.8813L3.3362 15.2147C3.15761 15.0265 2.86114 15.0159 2.66956 15.1909C2.48515 15.3841 2.48515 15.6881 2.66956 15.8813L3.64566 16.8813C3.73015 16.9759 3.85218 17.0282 3.97896 17.0241C4.10455 17.0224 4.22435 16.971 4.31225 16.8813L6.16926 15.1195C6.35336 14.9506 6.36566 14.6645 6.19673 14.4804C6.18808 14.4708 6.17892 14.4617 6.16935 14.4529Z" fill="#84C551"/>
<path d="M12.9988 15.4766H7.52303C7.26005 15.4766 7.04688 15.6897 7.04688 15.9527C7.04688 16.2157 7.26005 16.4289 7.52303 16.4289H12.9988C13.2618 16.4289 13.4749 16.2157 13.4749 15.9527C13.4749 15.6897 13.2618 15.4766 12.9988 15.4766Z" fill="#84C551"/>
</svg>
