<svg width="20" height="20" viewBox="0 0 20 20" fill="none" xmlns="http://www.w3.org/2000/svg">
<path d="M12.0508 20H2.08984C1.6052 20 1.21094 19.6057 1.21094 19.1211V4.46094C1.21094 3.97633 1.6052 3.58203 2.08984 3.58203H3.77383C3.93563 3.58203 4.0668 3.71316 4.0668 3.875C4.0668 4.03684 3.93563 4.16797 3.77383 4.16797H2.08984C1.92828 4.16797 1.79688 4.29938 1.79688 4.46094V19.1211C1.79688 19.2827 1.92828 19.4141 2.08984 19.4141H12.0508C12.2123 19.4141 12.3438 19.2827 12.3438 19.1211V12.3047H5.60547C5.12082 12.3047 4.72656 11.9104 4.72656 11.4258V0.878906C4.72656 0.394297 5.12082 0 5.60547 0H14.3945C14.8792 0 15.2734 0.394297 15.2734 0.878906V3.80859C15.2734 3.97043 15.1423 4.10156 14.9805 4.10156C14.8187 4.10156 14.6875 3.97043 14.6875 3.80859V0.878906C14.6875 0.717344 14.5561 0.585938 14.3945 0.585938H5.60547C5.44391 0.585938 5.3125 0.717344 5.3125 0.878906V11.4258C5.3125 11.5873 5.44391 11.7188 5.60547 11.7188H14.3945C14.5561 11.7188 14.6875 11.5873 14.6875 11.4258V4.98047C14.6875 4.81863 14.8187 4.6875 14.9805 4.6875H16.7383C16.9001 4.6875 17.0312 4.81863 17.0312 4.98047C17.0312 5.1423 16.9001 5.27344 16.7383 5.27344H15.2734V6.44531H16.7383C16.9001 6.44531 17.0312 6.57645 17.0312 6.73828C17.0312 6.90012 16.9001 7.03125 16.7383 7.03125H15.2734V8.20312H16.7383C16.9001 8.20312 17.0312 8.33426 17.0312 8.49609C17.0312 8.65793 16.9001 8.78906 16.7383 8.78906H15.2734V9.96094H16.7383C16.9001 9.96094 17.0312 10.0921 17.0312 10.2539C17.0312 10.4157 16.9001 10.5469 16.7383 10.5469H15.2734V11.4258C15.2734 11.5284 15.2557 11.6271 15.2232 11.7188H16.7383C16.9001 11.7188 17.0312 11.8499 17.0312 12.0117C17.0312 12.1736 16.9001 12.3047 16.7383 12.3047H12.9297V13.4766H16.7383C16.9001 13.4766 17.0312 13.6077 17.0312 13.7695C17.0312 13.9314 16.9001 14.0625 16.7383 14.0625H12.9297V15.8984H17.9102C18.0717 15.8984 18.2031 15.767 18.2031 15.6055V2.70312C18.2031 2.54156 18.0717 2.41016 17.9102 2.41016H16.1523C15.9905 2.41016 15.8594 2.27902 15.8594 2.11719C15.8594 1.95535 15.9905 1.82422 16.1523 1.82422H17.9102C18.3948 1.82422 18.7891 2.21852 18.7891 2.70312V15.6055C18.7891 16.0901 18.3948 16.4844 17.9102 16.4844H12.9297V18.2422H16.1523C16.3139 18.2422 16.4453 18.1108 16.4453 17.9492V17.3633C16.4453 17.2014 16.5765 17.0703 16.7383 17.0703C16.9001 17.0703 17.0312 17.2014 17.0312 17.3633V17.9492C17.0312 18.4338 16.637 18.8281 16.1523 18.8281H12.9297V19.1211C12.9297 19.6057 12.5354 20 12.0508 20ZM13.8086 11.1328H6.19141C6.02961 11.1328 5.89844 11.0017 5.89844 10.8398V9.82211C5.89844 8.31668 6.89375 7.97223 7.62051 7.7207C8.22031 7.51312 8.5609 7.37328 8.62094 6.92215C7.97437 6.48043 7.54918 5.73754 7.54918 4.89711V3.68906C7.54918 2.3377 8.64863 1.23828 10 1.23828C11.3514 1.23828 12.4508 2.33773 12.4508 3.68906V4.89711C12.4508 5.73754 12.0257 6.48043 11.3791 6.92215C11.4391 7.37332 11.7797 7.51312 12.3795 7.7207C13.1063 7.97223 14.1016 8.31668 14.1016 9.82211V10.8398C14.1016 11.0017 13.9704 11.1328 13.8086 11.1328ZM6.48438 10.5469H13.5156V9.82211C13.5156 8.73394 12.9003 8.52098 12.1879 8.27441C11.6617 8.09234 11.0273 7.87273 10.8389 7.2C10.577 7.2957 10.2945 7.34789 10 7.34789C9.70547 7.34789 9.42297 7.2957 9.16113 7.2C8.97266 7.87273 8.33832 8.09234 7.81215 8.27441C7.09969 8.52102 6.48438 8.73394 6.48438 9.82211V10.5469ZM10 1.82422C8.97172 1.82422 8.13512 2.66078 8.13512 3.68906V4.89711C8.13512 5.92539 8.97172 6.76195 10 6.76195C11.0283 6.76195 11.8649 5.92539 11.8649 4.89711V3.68906C11.8649 2.66078 11.0283 1.82422 10 1.82422Z" fill="white"/>
</svg>
