<svg width="41.000000" height="41.000000" viewBox="0 0 41 41" fill="none" xmlns="http://www.w3.org/2000/svg" xmlns:xlink="http://www.w3.org/1999/xlink">
	<desc>
			Created with Pixso.
	</desc>
	<defs/>
	<circle id="Ellipse 8" cx="20.500000" cy="20.500000" r="20.000000" fill="#7E2D11" fill-opacity="1.000000"/>
	<circle id="Ellipse 8" cx="20.500000" cy="20.500000" r="20.000000" stroke="#7E2D11" stroke-opacity="1.000000" stroke-width="1.000000" style=""/>
	<rect id="call (32) 1" width="16.000000" height="16.000000" transform="translate(11.500000 12.500000)" fill="#FFFFFF" fill-opacity="0"/>
	<path id="Vector" d="M19.05 18.15C19.02 18.15 18.98 18.14 18.95 18.12C18.91 18.1 18.88 18.07 18.87 18.04L16.67 14.17L17.05 13.95L19.24 17.82C19.27 17.87 19.28 17.93 19.26 17.98C19.25 18.04 19.21 18.08 19.16 18.11C19.13 18.13 19.09 18.14 19.05 18.15Z" fill="#FFFFFF" fill-opacity="1.000000" fill-rule="nonzero"/>
	<path id="Vector" d="M24.08 27.24L21.89 23.37C21.87 23.34 21.86 23.32 21.86 23.29C21.85 23.26 21.85 23.23 21.86 23.2C21.87 23.17 21.88 23.14 21.9 23.12C21.91 23.09 21.94 23.07 21.96 23.06C21.99 23.04 22.02 23.03 22.05 23.03C22.08 23.03 22.11 23.03 22.14 23.04C22.17 23.05 22.19 23.06 22.21 23.08C22.24 23.1 22.26 23.13 22.27 23.15L24.46 27.02L24.08 27.24Z" fill="#FFFFFF" fill-opacity="1.000000" fill-rule="nonzero"/>
	<path id="Vector" d="M21.94 27.89C21.62 27.9 21.3 27.86 20.98 27.79C17.86 26.92 13.75 19.67 14.61 16.55C15.01 15.44 15.76 14.5 16.75 13.87C16.94 13.76 17.14 13.66 17.33 13.57C17.51 13.48 17.72 13.47 17.9 13.53C18.09 13.59 18.25 13.72 18.34 13.89L19.99 16.8C20.04 16.9 20.08 17 20.09 17.11C20.1 17.22 20.09 17.33 20.05 17.44C20.02 17.54 19.96 17.64 19.89 17.72C19.81 17.8 19.72 17.87 19.62 17.91C19.46 17.98 19.3 18.05 19.15 18.13C18.49 18.46 18.11 18.76 18.03 19.03C17.83 19.65 18.06 20.7 18.64 21.71C19.21 22.71 19.97 23.45 20.62 23.59C20.81 23.63 21.2 23.59 21.96 23.09C22.11 23 22.25 22.9 22.39 22.8C22.48 22.73 22.59 22.69 22.69 22.67C22.8 22.65 22.91 22.65 23.02 22.67C23.13 22.69 23.23 22.74 23.31 22.81C23.4 22.87 23.48 22.95 23.53 23.05L25.18 25.96C25.28 26.13 25.31 26.33 25.26 26.52C25.22 26.72 25.1 26.89 24.94 27C24.76 27.11 24.58 27.23 24.38 27.34C23.62 27.72 22.79 27.91 21.94 27.89ZM17.66 13.93C17.61 13.93 17.56 13.94 17.52 13.96C17.34 14.04 17.15 14.14 16.97 14.25C16.08 14.82 15.4 15.67 15.03 16.66C14.66 17.99 15.31 20.4 16.67 22.8C18.03 25.2 19.77 27 21.1 27.37C22.14 27.57 23.22 27.42 24.17 26.95C24.35 26.85 24.53 26.74 24.7 26.63C24.77 26.58 24.82 26.5 24.84 26.42C24.86 26.33 24.84 26.24 24.8 26.17L23.15 23.26C23.13 23.22 23.1 23.18 23.06 23.15C23.02 23.12 22.97 23.1 22.93 23.09C22.88 23.08 22.82 23.08 22.77 23.09C22.72 23.1 22.68 23.12 22.64 23.15C22.49 23.25 22.34 23.35 22.19 23.44C21.45 23.92 20.92 24.09 20.51 24C19.74 23.83 18.89 23.05 18.25 21.91C17.75 21.04 17.31 19.77 17.61 18.88C17.73 18.49 18.16 18.12 18.95 17.71C19.1 17.63 19.27 17.56 19.43 17.48C19.48 17.46 19.52 17.43 19.55 17.4C19.59 17.36 19.61 17.32 19.63 17.27C19.65 17.22 19.65 17.17 19.65 17.12C19.64 17.07 19.63 17.02 19.6 16.98L17.95 14.07C17.92 14.03 17.88 13.99 17.82 13.96C17.77 13.94 17.72 13.93 17.66 13.93L17.66 13.93Z" fill="#FFFFFF" fill-opacity="1.000000" fill-rule="nonzero"/>
</svg>
