<svg width="40.000000" height="40.000000" viewBox="0 0 40 40" fill="none" xmlns="http://www.w3.org/2000/svg" xmlns:xlink="http://www.w3.org/1999/xlink">
	<desc>
			Created with Pixso.
	</desc>
	<defs>
		<clipPath id="clip25_1182">
			<rect id="call (32) 1" width="16.000000" height="16.000000" transform="translate(12.000000 12.000000)" fill="white" fill-opacity="0"/>
		</clipPath>
	</defs>
	<rect id="call (32) 1" width="16.000000" height="16.000000" transform="translate(12.000000 12.000000)" fill="#FFFFFF" fill-opacity="0"/>
	<g clip-path="url(#clip25_1182)">
		<path id="Vector" d="M24.19 26.54L22 22.67C21.98 22.65 21.97 22.62 21.97 22.59C21.96 22.56 21.96 22.53 21.97 22.5C21.98 22.47 21.99 22.44 22.01 22.42C22.02 22.4 22.05 22.37 22.07 22.36C22.1 22.35 22.13 22.34 22.16 22.33C22.19 22.33 22.22 22.33 22.25 22.34C22.27 22.35 22.3 22.37 22.32 22.39C22.35 22.4 22.36 22.43 22.38 22.46L24.57 26.33L24.19 26.54Z" fill="#8C3213" fill-opacity="1.000000" fill-rule="nonzero"/>
		<path id="Vector" d="M19.16 17.45C19.12 17.45 19.09 17.44 19.05 17.42C19.02 17.4 18.99 17.37 18.97 17.34L16.78 13.47L17.16 13.25L19.35 17.12C19.38 17.17 19.39 17.23 19.37 17.29C19.36 17.34 19.32 17.39 19.27 17.41C19.24 17.43 19.2 17.45 19.16 17.45Z" fill="#8C3213" fill-opacity="1.000000" fill-rule="nonzero"/>
		<path id="Vector" d="M22.05 27.19C21.73 27.2 21.41 27.16 21.09 27.09C17.96 26.22 13.86 18.98 14.72 15.85C15.11 14.75 15.87 13.8 16.86 13.18C17.05 13.06 17.25 12.96 17.44 12.87C17.62 12.79 17.83 12.77 18.01 12.84C18.2 12.9 18.36 13.03 18.45 13.2L20.1 16.11C20.15 16.2 20.19 16.31 20.2 16.42C20.21 16.53 20.2 16.64 20.16 16.74C20.13 16.84 20.07 16.94 20 17.02C19.92 17.1 19.83 17.17 19.73 17.21C19.57 17.28 19.41 17.36 19.26 17.44C18.6 17.77 18.22 18.07 18.14 18.33C17.94 18.95 18.17 20 18.74 21.01C19.31 22.02 20.08 22.76 20.73 22.89C20.91 22.94 21.31 22.89 22.07 22.39C22.21 22.3 22.36 22.2 22.5 22.1C22.59 22.03 22.69 21.99 22.8 21.97C22.91 21.95 23.02 21.95 23.13 21.97C23.23 22 23.34 22.04 23.42 22.11C23.51 22.17 23.59 22.26 23.64 22.35L25.29 25.26C25.39 25.43 25.42 25.63 25.37 25.83C25.33 26.02 25.21 26.19 25.05 26.3C24.87 26.42 24.68 26.53 24.49 26.64C23.73 27.02 22.89 27.21 22.05 27.19ZM17.77 13.23C17.72 13.23 17.67 13.24 17.63 13.26C17.45 13.34 17.26 13.44 17.08 13.55C16.19 14.12 15.5 14.97 15.14 15.97C14.77 17.3 15.42 19.71 16.78 22.11C18.14 24.51 19.88 26.3 21.21 26.67C22.25 26.87 23.33 26.72 24.28 26.25C24.46 26.15 24.64 26.04 24.81 25.93C24.88 25.88 24.93 25.8 24.95 25.72C24.97 25.63 24.95 25.55 24.91 25.47L23.26 22.56C23.24 22.52 23.21 22.48 23.17 22.45C23.13 22.42 23.08 22.4 23.04 22.39C22.99 22.38 22.93 22.38 22.88 22.39C22.83 22.4 22.79 22.42 22.74 22.45C22.6 22.56 22.45 22.66 22.3 22.74C21.56 23.22 21.02 23.4 20.62 23.31C19.85 23.13 19 22.35 18.36 21.21C17.85 20.34 17.42 19.07 17.71 18.18C17.84 17.79 18.27 17.43 19.06 17.02C19.21 16.93 19.38 16.86 19.54 16.79C19.59 16.77 19.63 16.74 19.66 16.7C19.7 16.66 19.72 16.62 19.74 16.57C19.76 16.53 19.76 16.48 19.76 16.43C19.75 16.38 19.74 16.33 19.71 16.28L18.06 13.37C18.03 13.33 17.98 13.29 17.93 13.27C17.88 13.24 17.82 13.23 17.77 13.23L17.77 13.23Z" fill="#8C3213" fill-opacity="1.000000" fill-rule="nonzero"/>
	</g>
	<circle id="Ellipse 8" cx="20.000000" cy="20.000000" r="20.000000" fill="#C4C4C4" fill-opacity="0"/>
	<circle id="Ellipse 8" cx="20.000000" cy="20.000000" r="19.500000" stroke="#8C3213" stroke-opacity="1.000000" stroke-width="1.000000"/>
</svg>
