<svg width="202" height="40" viewBox="0 0 202 40" fill="none" xmlns="http://www.w3.org/2000/svg">
<rect width="202" height="40" rx="20" fill="#E74E13"/>
<g clip-path="url(#clip0_37853_9678)">
<path d="M18.3683 26.1304L20.625 27.2585V29.7813C20.625 30.0401 20.8349 30.25 21.0938 30.25H26.0625C26.3213 30.25 26.5312 30.0401 26.5312 29.7813V23.6617C26.5312 22.2256 25.4539 21.0346 24.0285 20.8917C24.023 20.8902 22.0457 20.5815 21.1284 19.6641L20.0757 18.6119C19.7215 18.2576 19.2507 18.0625 18.75 18.0625V14.3125C18.75 13.2786 17.9089 12.4375 16.875 12.4375C15.8411 12.4375 15 13.2786 15 14.3125V20.68C15 21.8124 15.3147 22.9202 15.9101 23.8835C16.5054 24.8469 17.3555 25.6238 18.3683 26.1304V26.1304ZM15.9375 14.3125C15.9375 13.7956 16.3581 13.375 16.875 13.375C17.3919 13.375 17.8125 13.7956 17.8125 14.3125V18.3138C17.2408 18.6444 16.875 19.2607 16.875 19.9375C16.875 20.4381 17.0701 20.9089 17.4243 21.2631L19.8248 23.6641C20.0078 23.8471 20.3046 23.8472 20.4877 23.6641C20.6707 23.4811 20.6708 23.1843 20.4877 23.0012L18.0873 20.6002C17.9101 20.4231 17.8125 20.1877 17.8125 19.9375C17.8125 19.5408 18.0636 19.1854 18.4374 19.0534C18.4376 19.0533 18.4377 19.0533 18.4379 19.0532H18.4379C18.7612 18.9386 19.1446 19.0066 19.4129 19.2748L20.4656 20.3271C21.5524 21.4139 23.927 21.8229 23.9317 21.8242C24.8792 21.9192 25.5938 22.7092 25.5938 23.6617V29.3125H21.5625V26.9688C21.5625 26.7912 21.4621 26.6289 21.3034 26.5495L18.7876 25.2918C17.0296 24.4127 15.9375 22.6455 15.9375 20.68V14.3125Z" fill="white"/>
<path d="M26.5312 18.5312C26.5312 18.7901 26.7412 19 27 19C27.2588 19 27.4688 18.7901 27.4688 18.5312V17.125H29.2631C31.8923 17.125 34.0312 14.986 34.0312 12.3569V10.0937C34.0312 9.90419 33.917 9.73323 33.7419 9.66067C33.5667 9.58811 33.3651 9.62823 33.231 9.7623C32.715 10.2783 32.029 10.5625 31.2994 10.5625C29.7316 10.5625 28.3383 11.3231 27.4688 12.4946V8.21875C27.4688 7.95986 27.2588 7.75 27 7.75C26.7412 7.75 26.5312 7.95986 26.5312 8.21875V10.6197C25.6617 9.44819 24.2684 8.6875 22.7006 8.6875C21.971 8.6875 21.285 8.40334 20.769 7.8873C20.6349 7.75323 20.4333 7.71306 20.2581 7.78567C20.083 7.85828 19.9688 8.02919 19.9688 8.21875V10.4819C19.9688 13.111 22.1077 15.25 24.7369 15.25H26.5312V18.5312ZM31.2994 11.5C31.938 11.5 32.5519 11.3379 33.0938 11.0332V12.3569C33.0938 14.4691 31.3754 16.1875 29.2631 16.1875H28.4062L31.0312 14.2187C31.2383 14.0635 31.2803 13.7696 31.125 13.5625C30.9697 13.3554 30.6759 13.3134 30.4688 13.4687L27.4688 15.7187V15.3306C27.4688 13.2184 29.1871 11.5 31.2994 11.5ZM20.9062 10.4819V9.15817C21.4482 9.46291 22.062 9.625 22.7006 9.625C24.8129 9.625 26.5312 11.3434 26.5312 13.4556V13.8437L23.5312 11.5937C23.3242 11.4385 23.0303 11.4804 22.875 11.6875C22.7197 11.8946 22.7617 12.1885 22.9688 12.3437L25.5938 14.3125H24.7369C22.6246 14.3125 20.9062 12.5941 20.9062 10.4819Z" fill="white"/>
<path d="M36.5156 25.4687C36.7745 25.4687 36.9844 25.2589 36.9844 25C36.9844 24.7411 36.7745 24.5312 36.5156 24.5312C36.2567 24.5312 36.0469 24.7411 36.0469 25C36.0469 25.2589 36.2567 25.4687 36.5156 25.4687Z" fill="white"/>
<path d="M37.125 12.4375C36.0911 12.4375 35.25 13.2786 35.25 14.3125V18.0625C34.7493 18.0625 34.2785 18.2576 33.9244 18.6117L32.8715 19.6642C31.9745 20.5613 29.9796 20.89 29.9748 20.8914C28.5461 21.0347 27.4688 22.2256 27.4688 23.6618V29.7813C27.4688 30.0401 27.6787 30.25 27.9375 30.25H32.9062C33.1651 30.25 33.375 30.0401 33.375 29.7813V27.2585L34.9092 26.4915C35.1407 26.3757 35.2346 26.0942 35.1189 25.8626C35.0032 25.6311 34.7217 25.5372 34.49 25.6529L32.6966 26.5494C32.5379 26.6289 32.4375 26.7912 32.4375 26.9688V29.3125H28.4062V23.6617C28.4062 22.7092 29.1208 21.9192 30.0717 21.8238C30.0764 21.8225 32.3885 21.473 33.5343 20.3271L34.5872 19.2747C34.8555 19.0064 35.2394 18.9388 35.5621 19.0532H35.5621C35.5623 19.0532 35.5624 19.0533 35.5626 19.0533C35.9364 19.1855 36.1875 19.5408 36.1875 19.9375C36.1875 20.1877 36.0899 20.4231 35.9128 20.6003L33.5123 23.0013C33.3292 23.1843 33.3293 23.4811 33.5123 23.6642C33.6953 23.8472 33.9922 23.8472 34.1752 23.6641L36.5757 21.2632C36.9299 20.9089 37.125 20.4381 37.125 19.9375C37.125 19.2607 36.7592 18.6444 36.1875 18.3138V14.3125C36.1875 13.7956 36.6081 13.375 37.125 13.375C37.6419 13.375 38.0625 13.7956 38.0625 14.3125V20.68C38.0625 21.5376 37.8461 22.3891 37.4366 23.1423C37.3129 23.3697 37.397 23.6543 37.6245 23.778C37.8519 23.9016 38.1366 23.8175 38.2602 23.59C38.7442 22.6999 39 21.6936 39 20.68V14.3125C39 13.2786 38.1589 12.4375 37.125 12.4375V12.4375Z" fill="white"/>
</g>
<path d="M48.406 17.034L48.994 15.704C49.414 15.9933 49.8713 16.2173 50.366 16.376C50.87 16.5253 51.3693 16.6047 51.864 16.614C52.3587 16.6233 52.8067 16.5673 53.208 16.446C53.6187 16.3247 53.9453 16.1427 54.188 15.9C54.4307 15.6573 54.552 15.354 54.552 14.99C54.552 14.5513 54.37 14.2247 54.006 14.01C53.6513 13.786 53.166 13.674 52.55 13.674H50.268V12.246H52.41C52.9607 12.246 53.3853 12.134 53.684 11.91C53.992 11.686 54.146 11.3827 54.146 11C54.146 10.6827 54.0433 10.4213 53.838 10.216C53.642 10.0107 53.3713 9.85667 53.026 9.754C52.69 9.65133 52.3073 9.60467 51.878 9.614C51.458 9.614 51.0193 9.67933 50.562 9.81C50.1047 9.93133 49.6707 10.1133 49.26 10.356L48.686 8.886C49.302 8.55933 49.946 8.33067 50.618 8.2C51.2993 8.06933 51.9573 8.032 52.592 8.088C53.2267 8.144 53.796 8.28867 54.3 8.522C54.8133 8.75533 55.224 9.06333 55.532 9.446C55.84 9.81933 55.994 10.2627 55.994 10.776C55.994 11.2427 55.868 11.658 55.616 12.022C55.3733 12.3767 55.0373 12.652 54.608 12.848C54.1787 13.044 53.6793 13.142 53.11 13.142L53.18 12.694C53.824 12.694 54.384 12.806 54.86 13.03C55.3453 13.2447 55.7187 13.5433 55.98 13.926C56.2507 14.3087 56.386 14.752 56.386 15.256C56.386 15.732 56.2647 16.1567 56.022 16.53C55.7793 16.894 55.448 17.202 55.028 17.454C54.608 17.6967 54.1273 17.8787 53.586 18C53.0447 18.112 52.4753 18.154 51.878 18.126C51.2807 18.098 50.6833 17.9953 50.086 17.818C49.498 17.6407 48.938 17.3793 48.406 17.034ZM57.2178 18L61.6278 8.2H63.4198L67.8438 18H65.9398L62.1458 9.166H62.8738L59.0938 18H57.2178ZM59.2478 15.732L59.7378 14.304H65.0298L65.5198 15.732H59.2478ZM73.7179 18.14C72.9712 18.14 72.2759 18.0187 71.6319 17.776C70.9972 17.524 70.4419 17.174 69.9659 16.726C69.4992 16.2687 69.1352 15.732 68.8739 15.116C68.6126 14.5 68.4819 13.828 68.4819 13.1C68.4819 12.372 68.6126 11.7 68.8739 11.084C69.1352 10.468 69.5039 9.936 69.9799 9.488C70.4559 9.03067 71.0112 8.68067 71.6459 8.438C72.2806 8.186 72.9759 8.06 73.7319 8.06C74.5346 8.06 75.2672 8.2 75.9299 8.48C76.5926 8.75067 77.1526 9.15667 77.6099 9.698L76.4339 10.804C76.0792 10.4213 75.6826 10.1367 75.2439 9.95C74.8052 9.754 74.3292 9.656 73.8159 9.656C73.3026 9.656 72.8312 9.74 72.4019 9.908C71.9819 10.076 71.6132 10.314 71.2959 10.622C70.9879 10.93 70.7452 11.294 70.5679 11.714C70.3999 12.134 70.3159 12.596 70.3159 13.1C70.3159 13.604 70.3999 14.066 70.5679 14.486C70.7452 14.906 70.9879 15.27 71.2959 15.578C71.6132 15.886 71.9819 16.124 72.4019 16.292C72.8312 16.46 73.3026 16.544 73.8159 16.544C74.3292 16.544 74.8052 16.4507 75.2439 16.264C75.6826 16.068 76.0792 15.774 76.4339 15.382L77.6099 16.502C77.1526 17.034 76.5926 17.44 75.9299 17.72C75.2672 18 74.5299 18.14 73.7179 18.14ZM83.6447 18.14C82.8793 18.14 82.1747 18.014 81.5307 17.762C80.8867 17.51 80.3267 17.16 79.8507 16.712C79.3747 16.2547 79.006 15.7227 78.7447 15.116C78.4833 14.5 78.3527 13.828 78.3527 13.1C78.3527 12.372 78.4833 11.7047 78.7447 11.098C79.006 10.482 79.3747 9.95 79.8507 9.502C80.3267 9.04467 80.8867 8.69 81.5307 8.438C82.1747 8.186 82.8747 8.06 83.6307 8.06C84.396 8.06 85.096 8.186 85.7307 8.438C86.3747 8.69 86.9347 9.04467 87.4107 9.502C87.8867 9.95 88.2553 10.482 88.5167 11.098C88.778 11.7047 88.9087 12.372 88.9087 13.1C88.9087 13.828 88.778 14.5 88.5167 15.116C88.2553 15.732 87.8867 16.264 87.4107 16.712C86.9347 17.16 86.3747 17.51 85.7307 17.762C85.096 18.014 84.4007 18.14 83.6447 18.14ZM83.6307 16.544C84.1253 16.544 84.5827 16.46 85.0027 16.292C85.4227 16.124 85.7867 15.886 86.0947 15.578C86.4027 15.2607 86.6407 14.8967 86.8087 14.486C86.986 14.066 87.0747 13.604 87.0747 13.1C87.0747 12.596 86.986 12.1387 86.8087 11.728C86.6407 11.308 86.4027 10.944 86.0947 10.636C85.7867 10.3187 85.4227 10.076 85.0027 9.908C84.5827 9.74 84.1253 9.656 83.6307 9.656C83.136 9.656 82.6787 9.74 82.2587 9.908C81.848 10.076 81.484 10.3187 81.1667 10.636C80.8587 10.944 80.616 11.308 80.4387 11.728C80.2707 12.1387 80.1867 12.596 80.1867 13.1C80.1867 13.5947 80.2707 14.052 80.4387 14.472C80.616 14.892 80.8587 15.2607 81.1667 15.578C81.4747 15.886 81.8387 16.124 82.2587 16.292C82.6787 16.46 83.136 16.544 83.6307 16.544ZM90.9348 18V8.2H98.5648V9.698H92.7268V12.106H95.6248C96.8008 12.106 97.6922 12.3533 98.2988 12.848C98.9148 13.3333 99.2228 14.0427 99.2228 14.976C99.2228 15.9373 98.8822 16.684 98.2008 17.216C97.5288 17.7387 96.5768 18 95.3448 18H90.9348ZM92.7268 16.6H95.2468C95.9468 16.6 96.4788 16.4647 96.8428 16.194C97.2068 15.9233 97.3888 15.5313 97.3888 15.018C97.3888 14.01 96.6748 13.506 95.2468 13.506H92.7268V16.6ZM101.23 18V8.2H103.022V15.158L108.286 8.2H109.98V18H108.188V11.056L102.924 18H101.23ZM115.631 17.034L116.219 15.704C116.639 15.9933 117.096 16.2173 117.591 16.376C118.095 16.5253 118.594 16.6047 119.089 16.614C119.583 16.6233 120.031 16.5673 120.433 16.446C120.843 16.3247 121.17 16.1427 121.413 15.9C121.655 15.6573 121.777 15.354 121.777 14.99C121.777 14.5513 121.595 14.2247 121.231 14.01C120.876 13.786 120.391 13.674 119.775 13.674H117.493V12.246H119.635C120.185 12.246 120.61 12.134 120.909 11.91C121.217 11.686 121.371 11.3827 121.371 11C121.371 10.6827 121.268 10.4213 121.063 10.216C120.867 10.0107 120.596 9.85667 120.251 9.754C119.915 9.65133 119.532 9.60467 119.103 9.614C118.683 9.614 118.244 9.67933 117.787 9.81C117.329 9.93133 116.895 10.1133 116.485 10.356L115.911 8.886C116.527 8.55933 117.171 8.33067 117.843 8.2C118.524 8.06933 119.182 8.032 119.817 8.088C120.451 8.144 121.021 8.28867 121.525 8.522C122.038 8.75533 122.449 9.06333 122.757 9.446C123.065 9.81933 123.219 10.2627 123.219 10.776C123.219 11.2427 123.093 11.658 122.841 12.022C122.598 12.3767 122.262 12.652 121.833 12.848C121.403 13.044 120.904 13.142 120.335 13.142L120.405 12.694C121.049 12.694 121.609 12.806 122.085 13.03C122.57 13.2447 122.943 13.5433 123.205 13.926C123.475 14.3087 123.611 14.752 123.611 15.256C123.611 15.732 123.489 16.1567 123.247 16.53C123.004 16.894 122.673 17.202 122.253 17.454C121.833 17.6967 121.352 17.8787 120.811 18C120.269 18.112 119.7 18.154 119.103 18.126C118.505 18.098 117.908 17.9953 117.311 17.818C116.723 17.6407 116.163 17.3793 115.631 17.034ZM124.442 18L128.852 8.2H130.644L135.068 18H133.164L129.37 9.166H130.098L126.318 18H124.442ZM126.472 15.732L126.962 14.304H132.254L132.744 15.732H126.472ZM135.113 8.2H137.213L139.523 11.476L141.833 8.2H143.961L140.671 12.904L144.227 18H142.071L139.523 14.43L136.989 18H134.889L138.431 12.974L135.113 8.2ZM145.458 18V8.2H147.25V15.158L152.514 8.2H154.208V18H152.416V11.056L147.152 18H145.458ZM161.464 18.14C160.717 18.14 160.022 18.0187 159.378 17.776C158.743 17.524 158.188 17.174 157.712 16.726C157.245 16.2687 156.881 15.732 156.62 15.116C156.359 14.5 156.228 13.828 156.228 13.1C156.228 12.372 156.359 11.7 156.62 11.084C156.881 10.468 157.25 9.936 157.726 9.488C158.202 9.03067 158.757 8.68067 159.392 8.438C160.027 8.186 160.722 8.06 161.478 8.06C162.281 8.06 163.013 8.2 163.676 8.48C164.339 8.75067 164.899 9.15667 165.356 9.698L164.18 10.804C163.825 10.4213 163.429 10.1367 162.99 9.95C162.551 9.754 162.075 9.656 161.562 9.656C161.049 9.656 160.577 9.74 160.148 9.908C159.728 10.076 159.359 10.314 159.042 10.622C158.734 10.93 158.491 11.294 158.314 11.714C158.146 12.134 158.062 12.596 158.062 13.1C158.062 13.604 158.146 14.066 158.314 14.486C158.491 14.906 158.734 15.27 159.042 15.578C159.359 15.886 159.728 16.124 160.148 16.292C160.577 16.46 161.049 16.544 161.562 16.544C162.075 16.544 162.551 16.4507 162.99 16.264C163.429 16.068 163.825 15.774 164.18 15.382L165.356 16.502C164.899 17.034 164.339 17.44 163.676 17.72C163.013 18 162.276 18.14 161.464 18.14ZM168.994 18V9.292L169.428 9.74H165.76V8.2H174.048V9.74H170.38L170.8 9.292V18H168.994ZM175.334 16.46C175.848 16.6373 176.3 16.684 176.692 16.6C177.084 16.516 177.434 16.2313 177.742 15.746L178.218 15.004L178.4 14.808L181.816 8.2H183.608L179.352 16.11C179.007 16.7727 178.596 17.2767 178.12 17.622C177.644 17.9673 177.131 18.1587 176.58 18.196C176.039 18.2427 175.474 18.14 174.886 17.888L175.334 16.46ZM178.358 16.376L173.99 8.2H175.936L179.352 14.976L178.358 16.376ZM49.372 33V23.2H53.404C54.272 23.2 55.014 23.34 55.63 23.62C56.2553 23.9 56.736 24.3013 57.072 24.824C57.408 25.3467 57.576 25.9673 57.576 26.686C57.576 27.4047 57.408 28.0253 57.072 28.548C56.736 29.0707 56.2553 29.472 55.63 29.752C55.014 30.032 54.272 30.172 53.404 30.172H50.38L51.192 29.318V33H49.372ZM51.192 29.514L50.38 28.632H53.32C54.1227 28.632 54.7247 28.464 55.126 28.128C55.5367 27.7827 55.742 27.302 55.742 26.686C55.742 26.0607 55.5367 25.58 55.126 25.244C54.7247 24.908 54.1227 24.74 53.32 24.74H50.38L51.192 23.844V29.514ZM63.9845 33.14C63.2192 33.14 62.5145 33.014 61.8705 32.762C61.2265 32.51 60.6665 32.16 60.1905 31.712C59.7145 31.2547 59.3458 30.7227 59.0845 30.116C58.8232 29.5 58.6925 28.828 58.6925 28.1C58.6925 27.372 58.8232 26.7047 59.0845 26.098C59.3458 25.482 59.7145 24.95 60.1905 24.502C60.6665 24.0447 61.2265 23.69 61.8705 23.438C62.5145 23.186 63.2145 23.06 63.9705 23.06C64.7358 23.06 65.4358 23.186 66.0705 23.438C66.7145 23.69 67.2745 24.0447 67.7505 24.502C68.2265 24.95 68.5952 25.482 68.8565 26.098C69.1178 26.7047 69.2485 27.372 69.2485 28.1C69.2485 28.828 69.1178 29.5 68.8565 30.116C68.5952 30.732 68.2265 31.264 67.7505 31.712C67.2745 32.16 66.7145 32.51 66.0705 32.762C65.4358 33.014 64.7405 33.14 63.9845 33.14ZM63.9705 31.544C64.4652 31.544 64.9225 31.46 65.3425 31.292C65.7625 31.124 66.1265 30.886 66.4345 30.578C66.7425 30.2607 66.9805 29.8967 67.1485 29.486C67.3258 29.066 67.4145 28.604 67.4145 28.1C67.4145 27.596 67.3258 27.1387 67.1485 26.728C66.9805 26.308 66.7425 25.944 66.4345 25.636C66.1265 25.3187 65.7625 25.076 65.3425 24.908C64.9225 24.74 64.4652 24.656 63.9705 24.656C63.4758 24.656 63.0185 24.74 62.5985 24.908C62.1878 25.076 61.8238 25.3187 61.5065 25.636C61.1985 25.944 60.9558 26.308 60.7785 26.728C60.6105 27.1387 60.5265 27.596 60.5265 28.1C60.5265 28.5947 60.6105 29.052 60.7785 29.472C60.9558 29.892 61.1985 30.2607 61.5065 30.578C61.8145 30.886 62.1785 31.124 62.5985 31.292C63.0185 31.46 63.4758 31.544 63.9705 31.544ZM75.7687 33.14C75.022 33.14 74.3267 33.0187 73.6827 32.776C73.048 32.524 72.4927 32.174 72.0167 31.726C71.55 31.2687 71.186 30.732 70.9247 30.116C70.6633 29.5 70.5327 28.828 70.5327 28.1C70.5327 27.372 70.6633 26.7 70.9247 26.084C71.186 25.468 71.5547 24.936 72.0307 24.488C72.5067 24.0307 73.062 23.6807 73.6967 23.438C74.3313 23.186 75.0267 23.06 75.7827 23.06C76.5853 23.06 77.318 23.2 77.9807 23.48C78.6433 23.7507 79.2033 24.1567 79.6607 24.698L78.4847 25.804C78.13 25.4213 77.7333 25.1367 77.2947 24.95C76.856 24.754 76.38 24.656 75.8667 24.656C75.3533 24.656 74.882 24.74 74.4527 24.908C74.0327 25.076 73.664 25.314 73.3467 25.622C73.0387 25.93 72.796 26.294 72.6187 26.714C72.4507 27.134 72.3667 27.596 72.3667 28.1C72.3667 28.604 72.4507 29.066 72.6187 29.486C72.796 29.906 73.0387 30.27 73.3467 30.578C73.664 30.886 74.0327 31.124 74.4527 31.292C74.882 31.46 75.3533 31.544 75.8667 31.544C76.38 31.544 76.856 31.4507 77.2947 31.264C77.7333 31.068 78.13 30.774 78.4847 30.382L79.6607 31.502C79.2033 32.034 78.6433 32.44 77.9807 32.72C77.318 33 76.5807 33.14 75.7687 33.14ZM80.9224 33.14C80.7638 33.14 80.6051 33.126 80.4464 33.098C80.2878 33.07 80.1151 33.0373 79.9284 33L80.0544 31.418C80.1851 31.4553 80.3251 31.474 80.4744 31.474C80.8664 31.474 81.1791 31.3153 81.4124 30.998C81.6458 30.6713 81.8138 30.1953 81.9164 29.57C82.0191 28.9447 82.0891 28.1747 82.1264 27.26L82.2664 23.2H89.4764V33H87.6844V24.292L88.1044 24.74H83.4424L83.8344 24.278L83.7364 27.19C83.7084 28.1607 83.6431 29.0147 83.5404 29.752C83.4378 30.4893 83.2791 31.11 83.0644 31.614C82.8591 32.1087 82.5838 32.4867 82.2384 32.748C81.8931 33.0093 81.4544 33.14 80.9224 33.14ZM92.2473 33V23.2H94.0393V30.158L99.3033 23.2H100.997V33H99.2053V26.056L93.9413 33H92.2473ZM110.633 23.2H112.453V33H110.633V23.2ZM105.565 33H103.745V23.2H105.565V33ZM110.773 28.8H105.411V27.246H110.773V28.8Z" fill="white"/>
<defs>
<clipPath id="clip0_37853_9678">
<rect width="24" height="24" fill="white" transform="translate(15 7)"/>
</clipPath>
</defs>
</svg>
