<svg width="220" height="47" viewBox="0 0 220 47" fill="none" xmlns="http://www.w3.org/2000/svg">
<rect width="220" height="47" rx="23.5" fill="#E74E13"/>
<path d="M29.8394 27.848V19.912H25.9994L25.9514 21.544C25.9194 22.2373 25.8714 22.8933 25.8074 23.512C25.7541 24.1307 25.6688 24.696 25.5514 25.208C25.4341 25.7093 25.2794 26.136 25.0874 26.488C24.9061 26.84 24.6768 27.0907 24.3994 27.24L21.6314 26.888C22.0154 26.8987 22.3301 26.7653 22.5754 26.488C22.8314 26.2107 23.0341 25.8213 23.1834 25.32C23.3328 24.808 23.4394 24.2107 23.5034 23.528C23.5781 22.8453 23.6314 22.104 23.6634 21.304L23.7914 17.8H32.3994V27.848H29.8394ZM21.2634 31.32L21.2794 26.888H33.9674V31.32H31.5674V29H23.6634V31.32H21.2634ZM35.5203 29V20.392H38.0003V25.512L42.1923 20.392H44.4803V29H42.0003V23.88L37.8243 29H35.5203ZM46.8797 29V20.392H51.2797C52.357 20.392 53.1997 20.5893 53.8077 20.984C54.4157 21.368 54.7197 21.912 54.7197 22.616C54.7197 23.32 54.4317 23.8747 53.8557 24.28C53.2903 24.6747 52.5383 24.872 51.5997 24.872L51.8557 24.296C52.901 24.296 53.6797 24.488 54.1917 24.872C54.7143 25.256 54.9757 25.816 54.9757 26.552C54.9757 27.3093 54.6877 27.9067 54.1117 28.344C53.5357 28.7813 52.6557 29 51.4717 29H46.8797ZM49.1677 27.304H51.2637C51.7223 27.304 52.0637 27.2293 52.2877 27.08C52.5223 26.92 52.6397 26.68 52.6397 26.36C52.6397 26.0293 52.533 25.7893 52.3197 25.64C52.1063 25.48 51.7703 25.4 51.3117 25.4H49.1677V27.304ZM49.1677 23.928H51.0557C51.493 23.928 51.8183 23.848 52.0317 23.688C52.2557 23.528 52.3677 23.2987 52.3677 23C52.3677 22.6907 52.2557 22.4613 52.0317 22.312C51.8183 22.1627 51.493 22.088 51.0557 22.088H49.1677V23.928ZM56.8328 29V20.392H59.3128V25.512L63.5048 20.392H65.7928V29H63.3128V23.88L59.1368 29H56.8328ZM70.0322 29V21.864L70.5922 22.44H67.1202V20.392H75.4242V22.44H71.9522L72.5122 21.864V29H70.0322ZM76.7547 29V20.392H79.2347V25.512L83.4267 20.392H85.7147V29H83.2347V23.88L79.0587 29H76.7547ZM92.21 29.128C91.282 29.128 90.4554 28.9413 89.73 28.568C89.0047 28.184 88.434 27.656 88.018 26.984C87.6127 26.312 87.41 25.5493 87.41 24.696C87.41 23.832 87.6127 23.0693 88.018 22.408C88.434 21.736 89.0047 21.2133 89.73 20.84C90.4554 20.456 91.282 20.264 92.21 20.264C93.1167 20.264 93.906 20.456 94.578 20.84C95.25 21.2133 95.746 21.752 96.066 22.456L94.13 23.496C93.906 23.0907 93.6234 22.792 93.282 22.6C92.9514 22.408 92.5887 22.312 92.194 22.312C91.7674 22.312 91.3834 22.408 91.042 22.6C90.7007 22.792 90.4287 23.064 90.226 23.416C90.034 23.768 89.938 24.1947 89.938 24.696C89.938 25.1973 90.034 25.624 90.226 25.976C90.4287 26.328 90.7007 26.6 91.042 26.792C91.3834 26.984 91.7674 27.08 92.194 27.08C92.5887 27.08 92.9514 26.9893 93.282 26.808C93.6234 26.616 93.906 26.312 94.13 25.896L96.066 26.952C95.746 27.6453 95.25 28.184 94.578 28.568C93.906 28.9413 93.1167 29.128 92.21 29.128ZM102.804 29V26.136L103.156 26.536H100.772C99.5343 26.536 98.5637 26.28 97.8597 25.768C97.1557 25.256 96.8037 24.52 96.8037 23.56C96.8037 22.536 97.1717 21.752 97.9077 21.208C98.6543 20.664 99.657 20.392 100.916 20.392H105.028V29H102.804ZM96.6757 29L98.9637 25.72H101.508L99.3317 29H96.6757ZM102.804 25.368V21.784L103.156 22.424H100.964C100.452 22.424 100.052 22.52 99.7637 22.712C99.4863 22.904 99.3477 23.2133 99.3477 23.64C99.3477 24.4613 99.8757 24.872 100.932 24.872H103.156L102.804 25.368ZM113.126 32.232C112.678 32.232 112.235 32.1627 111.798 32.024C111.36 31.8853 111.003 31.6933 110.726 31.448L111.638 29.672C111.83 29.8427 112.048 29.976 112.294 30.072C112.55 30.168 112.8 30.216 113.046 30.216C113.398 30.216 113.675 30.1307 113.878 29.96C114.091 29.8 114.283 29.528 114.454 29.144L114.902 28.088L115.094 27.816L118.182 20.392H120.582L116.694 29.528C116.416 30.2213 116.096 30.7653 115.734 31.16C115.382 31.5547 114.987 31.832 114.55 31.992C114.123 32.152 113.648 32.232 113.126 32.232ZM114.598 29.336L110.758 20.392H113.334L116.31 27.592L114.598 29.336ZM125.648 29.128C124.72 29.128 123.893 28.9413 123.168 28.568C122.442 28.184 121.872 27.656 121.456 26.984C121.05 26.312 120.848 25.5493 120.848 24.696C120.848 23.832 121.05 23.0693 121.456 22.408C121.872 21.736 122.442 21.2133 123.168 20.84C123.893 20.456 124.72 20.264 125.648 20.264C126.554 20.264 127.344 20.456 128.016 20.84C128.688 21.2133 129.184 21.752 129.504 22.456L127.568 23.496C127.344 23.0907 127.061 22.792 126.72 22.6C126.389 22.408 126.026 22.312 125.632 22.312C125.205 22.312 124.821 22.408 124.48 22.6C124.138 22.792 123.866 23.064 123.664 23.416C123.472 23.768 123.376 24.1947 123.376 24.696C123.376 25.1973 123.472 25.624 123.664 25.976C123.866 26.328 124.138 26.6 124.48 26.792C124.821 26.984 125.205 27.08 125.632 27.08C126.026 27.08 126.389 26.9893 126.72 26.808C127.061 26.616 127.344 26.312 127.568 25.896L129.504 26.952C129.184 27.6453 128.688 28.184 128.016 28.568C127.344 28.9413 126.554 29.128 125.648 29.128ZM131.004 29V20.392H133.5V29H131.004ZM132.252 19.192C131.794 19.192 131.42 19.0587 131.132 18.792C130.844 18.5253 130.7 18.1947 130.7 17.8C130.7 17.4053 130.844 17.0747 131.132 16.808C131.42 16.5413 131.794 16.408 132.252 16.408C132.711 16.408 133.084 16.536 133.372 16.792C133.66 17.0373 133.804 17.3573 133.804 17.752C133.804 18.168 133.66 18.5147 133.372 18.792C133.095 19.0587 132.722 19.192 132.252 19.192ZM142.267 29V21.864L142.827 22.44H139.355V20.392H147.659V22.44H144.187L144.747 21.864V29H142.267ZM152.662 29.128C151.744 29.128 150.928 28.936 150.214 28.552C149.51 28.168 148.95 27.6453 148.534 26.984C148.128 26.312 147.926 25.5493 147.926 24.696C147.926 23.832 148.128 23.0693 148.534 22.408C148.95 21.736 149.51 21.2133 150.214 20.84C150.928 20.456 151.744 20.264 152.662 20.264C153.568 20.264 154.379 20.456 155.094 20.84C155.808 21.2133 156.368 21.7307 156.774 22.392C157.179 23.0533 157.382 23.8213 157.382 24.696C157.382 25.5493 157.179 26.312 156.774 26.984C156.368 27.6453 155.808 28.168 155.094 28.552C154.379 28.936 153.568 29.128 152.662 29.128ZM152.662 27.08C153.078 27.08 153.451 26.984 153.782 26.792C154.112 26.6 154.374 26.328 154.566 25.976C154.758 25.6133 154.854 25.1867 154.854 24.696C154.854 24.1947 154.758 23.768 154.566 23.416C154.374 23.064 154.112 22.792 153.782 22.6C153.451 22.408 153.078 22.312 152.662 22.312C152.246 22.312 151.872 22.408 151.542 22.6C151.211 22.792 150.944 23.064 150.742 23.416C150.55 23.768 150.454 24.1947 150.454 24.696C150.454 25.1867 150.55 25.6133 150.742 25.976C150.944 26.328 151.211 26.6 151.542 26.792C151.872 26.984 152.246 27.08 152.662 27.08ZM159.098 29V20.392H163.498C164.576 20.392 165.418 20.5893 166.026 20.984C166.634 21.368 166.938 21.912 166.938 22.616C166.938 23.32 166.65 23.8747 166.074 24.28C165.509 24.6747 164.757 24.872 163.818 24.872L164.074 24.296C165.12 24.296 165.898 24.488 166.41 24.872C166.933 25.256 167.194 25.816 167.194 26.552C167.194 27.3093 166.906 27.9067 166.33 28.344C165.754 28.7813 164.874 29 163.69 29H159.098ZM161.386 27.304H163.482C163.941 27.304 164.282 27.2293 164.506 27.08C164.741 26.92 164.858 26.68 164.858 26.36C164.858 26.0293 164.752 25.7893 164.538 25.64C164.325 25.48 163.989 25.4 163.53 25.4H161.386V27.304ZM161.386 23.928H163.274C163.712 23.928 164.037 23.848 164.25 23.688C164.474 23.528 164.586 23.2987 164.586 23C164.586 22.6907 164.474 22.4613 164.25 22.312C164.037 22.1627 163.712 22.088 163.274 22.088H161.386V23.928ZM174.204 29V27.32L174.044 26.952V23.944C174.044 23.4107 173.878 22.9947 173.548 22.696C173.228 22.3973 172.732 22.248 172.06 22.248C171.601 22.248 171.148 22.3227 170.7 22.472C170.262 22.6107 169.889 22.8027 169.58 23.048L168.684 21.304C169.153 20.9733 169.718 20.7173 170.38 20.536C171.041 20.3547 171.713 20.264 172.396 20.264C173.708 20.264 174.726 20.5733 175.452 21.192C176.177 21.8107 176.54 22.776 176.54 24.088V29H174.204ZM171.58 29.128C170.908 29.128 170.332 29.016 169.852 28.792C169.372 28.5573 169.004 28.2427 168.748 27.848C168.492 27.4533 168.364 27.0107 168.364 26.52C168.364 26.008 168.486 25.56 168.732 25.176C168.988 24.792 169.388 24.4933 169.932 24.28C170.476 24.056 171.185 23.944 172.06 23.944H174.348V25.4H172.332C171.745 25.4 171.34 25.496 171.116 25.688C170.902 25.88 170.796 26.12 170.796 26.408C170.796 26.728 170.918 26.984 171.164 27.176C171.42 27.3573 171.766 27.448 172.204 27.448C172.62 27.448 172.993 27.352 173.324 27.16C173.654 26.9573 173.894 26.664 174.044 26.28L174.428 27.432C174.246 27.9867 173.916 28.408 173.436 28.696C172.956 28.984 172.337 29.128 171.58 29.128ZM183.78 29.128C183.054 29.128 182.42 28.968 181.876 28.648C181.332 28.328 180.905 27.8427 180.596 27.192C180.297 26.5307 180.148 25.6987 180.148 24.696C180.148 23.6827 180.292 22.8507 180.58 22.2C180.868 21.5493 181.284 21.064 181.828 20.744C182.372 20.424 183.022 20.264 183.78 20.264C184.59 20.264 185.316 20.4507 185.956 20.824C186.606 21.1867 187.118 21.6987 187.492 22.36C187.876 23.0213 188.068 23.8 188.068 24.696C188.068 25.6027 187.876 26.3867 187.492 27.048C187.118 27.7093 186.606 28.2213 185.956 28.584C185.316 28.9467 184.59 29.128 183.78 29.128ZM178.692 32.104V20.392H181.076V22.152L181.028 24.712L181.188 27.256V32.104H178.692ZM183.348 27.08C183.764 27.08 184.132 26.984 184.452 26.792C184.782 26.6 185.044 26.328 185.236 25.976C185.438 25.6133 185.54 25.1867 185.54 24.696C185.54 24.1947 185.438 23.768 185.236 23.416C185.044 23.064 184.782 22.792 184.452 22.6C184.132 22.408 183.764 22.312 183.348 22.312C182.932 22.312 182.558 22.408 182.228 22.6C181.897 22.792 181.636 23.064 181.444 23.416C181.252 23.768 181.156 24.1947 181.156 24.696C181.156 25.1867 181.252 25.6133 181.444 25.976C181.636 26.328 181.897 26.6 182.228 26.792C182.558 26.984 182.932 27.08 183.348 27.08ZM189.817 29V20.392H192.297V25.512L196.489 20.392H198.777V29H196.297V23.88L192.121 29H189.817Z" fill="white"/>
</svg>
