<svg width="40.000000" height="40.000000" viewBox="0 0 40 40" fill="none" xmlns="http://www.w3.org/2000/svg" xmlns:xlink="http://www.w3.org/1999/xlink">
	<desc>
			Created with Pixso.
	</desc>
	<defs/>
	<path id="Vector 11" d="M0 20C0 8.95 8.95 0 20 0C31.04 0 40 8.95 40 20C40 31.04 31.04 40 20 40C8.95 40 0 31.04 0 20Z" fill="#7E2D11" fill-opacity="1.000000" fill-rule="evenodd"/>
	<path id="Vector 11" d="M27.9 14.87C27.81 14.74 27.66 14.65 27.5 14.65L17.58 14.22C17.29 14.21 17.06 14.43 17.04 14.71C17.03 14.99 17.25 15.23 17.53 15.25L26.79 15.64L24.97 21.32L16.87 21.32L15.41 13.36C15.38 13.18 15.26 13.04 15.09 12.97L12.7 12.03C12.43 11.93 12.13 12.06 12.03 12.32C11.93 12.58 12.06 12.88 12.32 12.99L14.45 13.82L15.94 21.93C15.98 22.17 16.2 22.35 16.44 22.35L16.69 22.35L16.13 23.91C16.08 24.05 16.1 24.19 16.18 24.3C16.26 24.42 16.39 24.49 16.53 24.49L16.93 24.49C16.68 24.76 16.53 25.12 16.53 25.51C16.53 26.36 17.22 27.05 18.07 27.05C18.92 27.05 19.61 26.36 19.61 25.51C19.61 25.12 19.46 24.76 19.21 24.49L22.57 24.49C22.33 24.76 22.18 25.12 22.18 25.51C22.18 26.36 22.87 27.05 23.72 27.05C24.57 27.05 25.26 26.36 25.26 25.51C25.26 25.12 25.11 24.76 24.86 24.49L25.34 24.49C25.58 24.49 25.77 24.3 25.77 24.06C25.77 23.82 25.58 23.63 25.34 23.63L17.14 23.63L17.6 22.35L25.34 22.35C25.57 22.35 25.76 22.2 25.83 21.99L27.97 15.32C28.02 15.16 27.99 15 27.9 14.87ZM18.07 26.2C17.69 26.2 17.39 25.89 17.39 25.51C17.39 25.14 17.69 24.83 18.07 24.83C18.45 24.83 18.75 25.14 18.75 25.51C18.75 25.89 18.45 26.2 18.07 26.2ZM23.72 26.2C23.34 26.2 23.03 25.89 23.03 25.51C23.03 25.14 23.34 24.83 23.72 24.83C24.09 24.83 24.4 25.14 24.4 25.51C24.4 25.89 24.09 26.2 23.72 26.2Z" fill="#FFFFFF" fill-opacity="1.000000" fill-rule="nonzero"/>
</svg>
