<svg width="40.000000" height="40.000000" viewBox="0 0 40 40" fill="none" xmlns="http://www.w3.org/2000/svg" xmlns:xlink="http://www.w3.org/1999/xlink">
	<desc>
			Created with Pixso.
	</desc>
	<defs>
		<clipPath id="clip25_1206">
			<rect id="shopping-cart-empty-side-view 1" width="16.000000" height="16.000000" transform="translate(12.000000 12.000000)" fill="white" fill-opacity="0"/>
		</clipPath>
	</defs>
	<rect id="shopping-cart-empty-side-view 1" width="16.000000" height="16.000000" transform="translate(12.000000 12.000000)" fill="#3F3F3F" fill-opacity="0"/>
	<g clip-path="url(#clip25_1206)">
		<path id="Vector" d="M27.9 15.34C27.81 15.21 27.66 15.13 27.5 15.12L17.58 14.69C17.29 14.68 17.06 14.9 17.04 15.18C17.03 15.46 17.25 15.7 17.53 15.72L26.79 16.12L24.97 21.79L16.87 21.79L15.41 13.83C15.38 13.65 15.26 13.51 15.09 13.44L12.7 12.5C12.43 12.4 12.13 12.53 12.03 12.79C11.93 13.06 12.06 13.35 12.32 13.46L14.45 14.29L15.94 22.4C15.98 22.64 16.2 22.82 16.44 22.82L16.69 22.82L16.13 24.38C16.08 24.52 16.1 24.66 16.18 24.78C16.26 24.89 16.39 24.96 16.53 24.96L16.93 24.96C16.68 25.23 16.53 25.59 16.53 25.98C16.53 26.83 17.22 27.52 18.07 27.52C18.92 27.52 19.61 26.83 19.61 25.98C19.61 25.59 19.46 25.23 19.21 24.96L22.57 24.96C22.33 25.23 22.18 25.59 22.18 25.98C22.18 26.83 22.87 27.52 23.72 27.52C24.57 27.52 25.26 26.83 25.26 25.98C25.26 25.59 25.11 25.23 24.86 24.96L25.34 24.96C25.58 24.96 25.77 24.77 25.77 24.53C25.77 24.29 25.58 24.1 25.34 24.1L17.14 24.1L17.6 22.82L25.34 22.82C25.57 22.82 25.76 22.67 25.83 22.46L27.97 15.79C28.02 15.64 27.99 15.47 27.9 15.34ZM18.07 26.67C17.69 26.67 17.39 26.36 17.39 25.98C17.39 25.61 17.69 25.3 18.07 25.3C18.45 25.3 18.75 25.61 18.75 25.98C18.75 26.36 18.45 26.67 18.07 26.67ZM23.72 26.67C23.34 26.67 23.03 26.36 23.03 25.98C23.03 25.61 23.34 25.3 23.72 25.3C24.09 25.3 24.4 25.61 24.4 25.98C24.4 26.36 24.09 26.67 23.72 26.67Z" fill="#8C3213" fill-opacity="1.000000" fill-rule="nonzero"/>
	</g>
	<circle id="Ellipse 8" cx="20.000000" cy="20.000000" r="20.000000" fill="#C4C4C4" fill-opacity="0"/>
	<circle id="Ellipse 8" cx="20.000000" cy="20.000000" r="19.500000" stroke="#8C3213" stroke-opacity="1.000000" stroke-width="1.000000"/>
</svg>
