<svg width="20" height="20" viewBox="0 0 20 20" fill="none" xmlns="http://www.w3.org/2000/svg">
<path d="M14.375 7.5H6.875V5.44375C6.875 4.66302 7.18514 3.91426 7.7372 3.3622C8.28926 2.81014 9.03802 2.5 9.81875 2.5H10.1813C10.962 2.5 11.7107 2.81014 12.2628 3.3622C12.8149 3.91426 13.125 4.66302 13.125 5.44375C13.125 5.60951 13.1908 5.76848 13.3081 5.88569C13.4253 6.0029 13.5842 6.06875 13.75 6.06875C13.9158 6.06875 14.0747 6.0029 14.1919 5.88569C14.3092 5.76848 14.375 5.60951 14.375 5.44375C14.3733 4.33201 13.931 3.26627 13.1449 2.48015C12.3587 1.69402 11.293 1.25165 10.1813 1.25H9.81875C8.70701 1.25165 7.64127 1.69402 6.85515 2.48015C6.06902 3.26627 5.62665 4.33201 5.625 5.44375V7.5C5.12772 7.5 4.65081 7.69754 4.29917 8.04917C3.94754 8.40081 3.75 8.87772 3.75 9.375V15.1875C3.75165 16.1318 4.12752 17.037 4.79526 17.7047C5.463 18.3725 6.36817 18.7483 7.3125 18.75H12.6875C13.6318 18.7483 14.537 18.3725 15.2047 17.7047C15.8725 17.037 16.2483 16.1318 16.25 15.1875V9.375C16.25 8.87772 16.0525 8.40081 15.7008 8.04917C15.3492 7.69754 14.8723 7.5 14.375 7.5ZM15 15.1875C15 15.8008 14.7564 16.389 14.3227 16.8227C13.889 17.2564 13.3008 17.5 12.6875 17.5H7.3125C6.69919 17.5 6.11099 17.2564 5.67732 16.8227C5.24364 16.389 5 15.8008 5 15.1875V9.375C5 9.20924 5.06585 9.05027 5.18306 8.93306C5.30027 8.81585 5.45924 8.75 5.625 8.75H14.375C14.5408 8.75 14.6997 8.81585 14.8169 8.93306C14.9342 9.05027 15 9.20924 15 9.375V15.1875ZM10.625 12.95V15C10.625 15.1658 10.5592 15.3247 10.4419 15.4419C10.3247 15.5592 10.1658 15.625 10 15.625C9.83424 15.625 9.67527 15.5592 9.55806 15.4419C9.44085 15.3247 9.375 15.1658 9.375 15V12.95C9.1367 12.8124 8.95045 12.6 8.84515 12.3458C8.73985 12.0916 8.72137 11.8097 8.79259 11.5439C8.86381 11.2782 9.02074 11.0433 9.23905 10.8758C9.45735 10.7083 9.72483 10.6175 10 10.6175C10.2752 10.6175 10.5426 10.7083 10.761 10.8758C10.9793 11.0433 11.1362 11.2782 11.2074 11.5439C11.2786 11.8097 11.2602 12.0916 11.1548 12.3458C11.0495 12.6 10.8633 12.8124 10.625 12.95Z" fill="#84C551"/>
</svg>
