<svg width="32" height="25" viewBox="0 0 32 25" fill="none" xmlns="http://www.w3.org/2000/svg">
<path d="M0.0429948 0.00718358C0.152706 -0.00239453 0.263063 -0.00239453 0.372774 0.00718358H8.79333H13.8782C18.6571 0.180678 22.2493 1.36623 24.6547 3.56382C24.7694 3.66503 24.8794 3.76621 24.9845 3.87706C26.3675 5.27629 27.3429 7.03172 27.8041 8.95178L32 25H18.141C13.3843 24.8265 9.80326 23.6506 7.39784 21.4723C7.28315 21.3711 7.17326 21.265 7.06334 21.159C5.65855 19.7575 4.66608 17.991 4.19595 16.0554L4.05009e-07 0.00718358H0.0429948ZM12.497 13.9012C12.7781 14.9994 13.3515 15.9993 14.1553 16.7927C14.2652 16.8988 14.3799 17.0048 14.4994 17.106L14.7001 17.265C15.6355 17.9829 16.7582 18.41 17.9307 18.494H21.5389L19.5365 11.1108C19.2615 10.0165 18.6984 9.01743 17.9068 8.21924C17.7969 8.11321 17.6822 8.00718 17.5627 7.90597L17.3334 7.71804C16.398 7.00016 15.2753 6.57304 14.1028 6.4891H10.4899L12.497 13.9012Z" fill="#84C551"/>
</svg>
